<svg width="14" height="14" viewBox="0 0 14 14" fill="none" xmlns="http://www.w3.org/2000/svg">
<path fill-rule="evenodd" clip-rule="evenodd" d="M6.99992 1.66683C4.0544 1.66683 1.66659 4.05464 1.66659 7.00016C1.66659 9.94568 4.0544 12.3335 6.99992 12.3335C9.94544 12.3335 12.3333 9.94568 12.3333 7.00016C12.3333 4.05464 9.94544 1.66683 6.99992 1.66683ZM0.333252 7.00016C0.333252 3.31826 3.31802 0.333496 6.99992 0.333496C10.6818 0.333496 13.6666 3.31826 13.6666 7.00016C13.6666 10.6821 10.6818 13.6668 6.99992 13.6668C3.31802 13.6668 0.333252 10.6821 0.333252 7.00016ZM6.99992 4.3335C7.36811 4.3335 7.66659 4.63197 7.66659 5.00016V6.3335H8.99992C9.36811 6.3335 9.66659 6.63197 9.66659 7.00016C9.66659 7.36835 9.36811 7.66683 8.99992 7.66683H7.66659V9.00016C7.66659 9.36835 7.36811 9.66683 6.99992 9.66683C6.63173 9.66683 6.33325 9.36835 6.33325 9.00016V7.66683H4.99992C4.63173 7.66683 4.33325 7.36835 4.33325 7.00016C4.33325 6.63197 4.63173 6.3335 4.99992 6.3335H6.33325V5.00016C6.33325 4.63197 6.63173 4.3335 6.99992 4.3335Z" fill="#137D60"/>
</svg>
