<svg width="49" height="48" viewBox="0 0 49 48" fill="none" xmlns="http://www.w3.org/2000/svg">
<path fill-rule="evenodd" clip-rule="evenodd" d="M24.6 8C15.7634 8 8.59998 15.1634 8.59998 24C8.59998 32.8366 15.7634 40 24.6 40C33.4365 40 40.6 32.8366 40.6 24C40.6 15.1634 33.4365 8 24.6 8ZM4.59998 24C4.59998 12.9543 13.5543 4 24.6 4C35.6457 4 44.6 12.9543 44.6 24C44.6 35.0457 35.6457 44 24.6 44C13.5543 44 4.59998 35.0457 4.59998 24ZM24.6 12C25.7045 12 26.6 12.8954 26.6 14V14.1847C28.4809 14.5383 30.1829 15.3927 31.3079 16.6892C32.0318 17.5235 31.9423 18.7867 31.108 19.5106C30.2738 20.2345 29.0106 20.145 28.2867 19.3108C27.9617 18.9362 27.382 18.5554 26.6 18.3015V22.184C27.8432 22.4175 28.993 22.8681 29.952 23.5075C31.3954 24.4697 32.6 26.0187 32.6 28C32.6 29.9813 31.3954 31.5303 29.9521 32.4925C28.9931 33.1319 27.8432 33.5826 26.6 33.816V34C26.6 35.1046 25.7045 36 24.5999 36C23.4954 36 22.6 35.1045 22.6 34V33.8153C20.7191 33.4617 19.0171 32.6073 17.8921 31.3108C17.1682 30.4765 17.2577 29.2133 18.092 28.4894C18.9262 27.7655 20.1894 27.855 20.9133 28.6892C21.2383 29.0638 21.818 29.4446 22.6 29.6985V25.816C21.3568 25.5826 20.2069 25.1319 19.2479 24.4925C17.8046 23.5303 16.6 21.9813 16.6 20C16.6 18.0187 17.8046 16.4697 19.2479 15.5075C20.2069 14.8681 21.3568 14.4175 22.6 14.184V14C22.6 12.8954 23.4954 12 24.6 12ZM22.6 18.302C22.1588 18.4448 21.7763 18.6293 21.4667 18.8357C20.7385 19.3212 20.6 19.7722 20.6 20C20.6 20.2278 20.7385 20.6788 21.4667 21.1643C21.7763 21.3707 22.1588 21.5552 22.6 21.698V18.302ZM26.6 26.302V29.698C27.0412 29.5552 27.4237 29.3707 27.7333 29.1643C28.4615 28.6788 28.6 28.2278 28.6 28C28.6 27.7722 28.4615 27.3212 27.7332 26.8357C27.4237 26.6293 27.0412 26.4448 26.6 26.302Z" fill="#1E94A3"/>
</svg>
