<svg width="48" height="48" viewBox="0 0 48 48" fill="none" xmlns="http://www.w3.org/2000/svg">
<path d="M24 48C37.2548 48 48 37.2548 48 24C48 10.7452 37.2548 0 24 0C10.7452 0 0 10.7452 0 24C0 37.2548 10.7452 48 24 48Z" fill="url(#paint0_linear_5_2)"/>
<path fill-rule="evenodd" clip-rule="evenodd" d="M23.9966 12.3688C24.3134 12.2104 24.6862 12.2104 25.003 12.3688L27.253 13.4938C27.8087 13.7716 28.0339 14.4474 27.756 15.0031C27.4782 15.5588 26.8024 15.7841 26.2466 15.5062L24.4998 14.6328L22.753 15.5062C22.1972 15.7841 21.5214 15.5588 21.2436 15.0031C20.9657 14.4474 21.1909 13.7716 21.7466 13.4938L23.9966 12.3688ZM18.756 16.2469C19.0339 16.8026 18.8087 17.4784 18.253 17.7562L18.0154 17.875L18.253 17.9938C18.8087 18.2716 19.0339 18.9474 18.756 19.5031C18.4782 20.0588 17.8024 20.2841 17.2466 20.0062L16.6248 19.6952V20.6875C16.6248 21.3088 16.1212 21.8125 15.4998 21.8125C14.8784 21.8125 14.3748 21.3088 14.3748 20.6875V17.875C14.3748 17.4488 14.6155 17.0593 14.9966 16.8688L17.2466 15.7438C17.8024 15.4658 18.4782 15.6911 18.756 16.2469ZM30.2436 16.2469C30.5214 15.6911 31.1972 15.4658 31.753 15.7438L34.003 16.8688C34.3841 17.0593 34.6248 17.4488 34.6248 17.875V20.6875C34.6248 21.3088 34.1212 21.8125 33.4998 21.8125C32.8784 21.8125 32.3748 21.3088 32.3748 20.6875V19.6952L31.753 20.0062C31.1972 20.2841 30.5214 20.0588 30.2436 19.5031C29.9657 18.9474 30.1909 18.2716 30.7466 17.9938L30.9842 17.875L30.7466 17.7562C30.1909 17.4784 29.9657 16.8026 30.2436 16.2469ZM21.2436 20.7469C21.5214 20.1911 22.1972 19.9658 22.753 20.2438L24.4998 21.1172L26.2466 20.2438C26.8024 19.9658 27.4782 20.1911 27.756 20.7469C28.0339 21.3026 27.8087 21.9784 27.253 22.2562L25.6248 23.0702V25.1875C25.6248 25.8088 25.1212 26.3125 24.4998 26.3125C23.8784 26.3125 23.3748 25.8088 23.3748 25.1875V23.0702L21.7466 22.2562C21.1909 21.9784 20.9657 21.3026 21.2436 20.7469ZM15.4998 25.1875C16.1212 25.1875 16.6248 25.6912 16.6248 26.3125V28.4297L18.253 29.2438C18.8087 29.5216 19.0339 30.1974 18.756 30.7531C18.4782 31.3088 17.8024 31.5341 17.2466 31.2562L14.9966 30.1312C14.6155 29.9406 14.3748 29.5511 14.3748 29.125V26.3125C14.3748 25.6912 14.8784 25.1875 15.4998 25.1875ZM33.4998 25.1875C34.1212 25.1875 34.6248 25.6912 34.6248 26.3125V29.125C34.6248 29.5511 34.3841 29.9406 34.003 30.1312L31.753 31.2562C31.1972 31.5341 30.5214 31.3088 30.2436 30.7531C29.9657 30.1974 30.1909 29.5216 30.7466 29.2438L32.3748 28.4297V26.3125C32.3748 25.6912 32.8784 25.1875 33.4998 25.1875ZM24.4998 29.6875C25.1212 29.6875 25.6248 30.1912 25.6248 30.8125V31.8047L26.2466 31.4938C26.8024 31.2158 27.4782 31.4411 27.756 31.9968C28.0339 32.5526 27.8087 33.2284 27.253 33.5062L25.003 34.6312C24.6862 34.7896 24.3134 34.7896 23.9966 34.6312L21.7466 33.5062C21.1909 33.2284 20.9657 32.5526 21.2436 31.9968C21.5214 31.4411 22.1972 31.2158 22.753 31.4938L23.3748 31.8047V30.8125C23.3748 30.1912 23.8784 29.6875 24.4998 29.6875Z" fill="white"/>
<defs>
<linearGradient id="paint0_linear_5_2" x1="0" y1="24" x2="48" y2="24" gradientUnits="userSpaceOnUse">
<stop stop-color="#3023AE"/>
<stop offset="1" stop-color="#C86DD7"/>
</linearGradient>
</defs>
</svg>
