<svg width="40" height="40" viewBox="0 0 40 40" fill="none" xmlns="http://www.w3.org/2000/svg">
<circle cx="20" cy="20" r="20" fill="url(#paint0_linear_2199_33320)"/>
<path fill-rule="evenodd" clip-rule="evenodd" d="M19.9972 10.3073C20.2612 10.1753 20.5718 10.1753 20.8358 10.3073L22.7108 11.2448C23.1739 11.4763 23.3616 12.0395 23.13 12.5026C22.8985 12.9657 22.3353 13.1534 21.8722 12.9218L20.4165 12.194L18.9608 12.9218C18.4977 13.1534 17.9345 12.9657 17.703 12.5026C17.4714 12.0395 17.6591 11.4763 18.1222 11.2448L19.9972 10.3073ZM15.63 13.5391C15.8616 14.0022 15.6739 14.5653 15.2108 14.7968L15.0128 14.8958L15.2108 14.9948C15.6739 15.2263 15.8616 15.7895 15.63 16.2526C15.3985 16.7157 14.8353 16.9034 14.3722 16.6718L13.854 16.4127V17.2396C13.854 17.7573 13.4343 18.1771 12.9165 18.1771C12.3987 18.1771 11.979 17.7573 11.979 17.2396V14.8958C11.979 14.5407 12.1796 14.2161 12.4972 14.0573L14.3722 13.1198C14.8353 12.8882 15.3985 13.0759 15.63 13.5391ZM25.203 13.5391C25.4345 13.0759 25.9977 12.8882 26.4608 13.1198L28.3358 14.0573C28.6534 14.2161 28.854 14.5407 28.854 14.8958V17.2396C28.854 17.7573 28.4343 18.1771 27.9165 18.1771C27.3987 18.1771 26.979 17.7573 26.979 17.2396V16.4127L26.4608 16.6718C25.9977 16.9034 25.4345 16.7157 25.203 16.2526C24.9714 15.7895 25.1591 15.2263 25.6222 14.9948L25.8202 14.8958L25.6222 14.7968C25.1591 14.5653 24.9714 14.0022 25.203 13.5391ZM17.703 17.2891C17.9345 16.8259 18.4977 16.6382 18.9608 16.8698L20.4165 17.5977L21.8722 16.8698C22.3353 16.6382 22.8985 16.8259 23.13 17.2891C23.3616 17.7522 23.1739 18.3153 22.7108 18.5468L21.354 19.2252V20.9896C21.354 21.5073 20.9343 21.9271 20.4165 21.9271C19.8987 21.9271 19.479 21.5073 19.479 20.9896V19.2252L18.1222 18.5468C17.6591 18.3153 17.4714 17.7522 17.703 17.2891ZM12.9165 20.9896C13.4343 20.9896 13.854 21.4093 13.854 21.9271V23.6914L15.2108 24.3698C15.6739 24.6013 15.8616 25.1645 15.63 25.6276C15.3985 26.0907 14.8353 26.2784 14.3722 26.0468L12.4972 25.1093C12.1796 24.9505 11.979 24.6259 11.979 24.2708V21.9271C11.979 21.4093 12.3987 20.9896 12.9165 20.9896ZM27.9165 20.9896C28.4343 20.9896 28.854 21.4093 28.854 21.9271V24.2708C28.854 24.6259 28.6534 24.9505 28.3358 25.1093L26.4608 26.0468C25.9977 26.2784 25.4345 26.0907 25.203 25.6276C24.9714 25.1645 25.1591 24.6013 25.6222 24.3698L26.979 23.6914V21.9271C26.979 21.4093 27.3987 20.9896 27.9165 20.9896ZM20.4165 24.7396C20.9343 24.7396 21.354 25.1593 21.354 25.6771V26.5039L21.8722 26.2448C22.3353 26.0132 22.8985 26.2009 23.13 26.664C23.3616 27.1272 23.1739 27.6903 22.7108 27.9218L20.8358 28.8593C20.5718 28.9913 20.2612 28.9913 19.9972 28.8593L18.1222 27.9218C17.6591 27.6903 17.4714 27.1272 17.703 26.664C17.9345 26.2009 18.4977 26.0132 18.9608 26.2448L19.479 26.5039V25.6771C19.479 25.1593 19.8987 24.7396 20.4165 24.7396Z" fill="white"/>
<defs>
<linearGradient id="paint0_linear_2199_33320" x1="0" y1="20" x2="40" y2="20" gradientUnits="userSpaceOnUse">
<stop stop-color="#3023AE"/>
<stop offset="1" stop-color="#C86DD7"/>
</linearGradient>
</defs>
</svg>
