<svg width="40" height="44" viewBox="0 0 40 44" fill="none" xmlns="http://www.w3.org/2000/svg">
<circle cx="20" cy="24" r="20" fill="white"/>
<path d="M28 12.75C28 12.75 28 14.51 30.24 16.9C30.34 17 30.51 17.2 30.59 17.3C30.9005 17.7097 31.1094 18.1873 31.1995 18.6934C31.2896 19.1995 31.2583 19.7198 31.1083 20.2115C30.9582 20.7032 30.6937 21.1523 30.3364 21.5219C29.979 21.8916 29.5391 22.1711 29.0528 22.3377C28.5664 22.5042 28.0475 22.553 27.5386 22.4801C27.0297 22.4071 26.5454 22.2145 26.1254 21.918C25.7054 21.6215 25.3618 21.2296 25.1227 20.7745C24.8836 20.3194 24.7558 19.8141 24.75 19.3C24.7028 18.0238 24.9754 16.7561 25.543 15.6122C26.1106 14.4682 26.9552 13.4843 28 12.75V12.75Z" stroke="#555555" stroke-width="1.5" stroke-linecap="round" stroke-linejoin="round"/>
<path d="M27.9999 35.25C28.3309 35.2497 28.6583 35.1809 28.9614 35.0479C29.2645 34.915 29.5368 34.7208 29.7613 34.4776C29.9857 34.2343 30.1574 33.9473 30.2656 33.6345C30.3738 33.3217 30.4161 32.9899 30.3899 32.66L29.2699 22.24C28.8631 22.4179 28.4239 22.5097 27.9799 22.5097C27.536 22.5097 27.0968 22.4179 26.6899 22.24L25.61 32.66C25.5837 32.9899 25.6261 33.3217 25.7343 33.6345C25.8425 33.9473 26.0142 34.2343 26.2386 34.4776C26.4631 34.7208 26.7354 34.915 27.0385 35.0479C27.3416 35.1809 27.669 35.2497 27.9999 35.25V35.25Z" stroke="#555555" stroke-width="1.5" stroke-linecap="round" stroke-linejoin="round"/>
<path d="M16.75 17.3301L19.25 19.5001L21.75 17.3301" stroke="#555555" stroke-width="1.5" stroke-linecap="round" stroke-linejoin="round"/>
<path d="M16.75 30H21.75" stroke="#555555" stroke-width="1.5" stroke-linecap="round" stroke-linejoin="round"/>
<path d="M16.75 26H21.75" stroke="#555555" stroke-width="1.5" stroke-linecap="round" stroke-linejoin="round"/>
<path d="M13.75 30.67L11.25 35.25L8.75 30.67V15.25C8.75 14.587 9.01339 13.9511 9.48223 13.4822C9.95107 13.0134 10.587 12.75 11.25 12.75V12.75C11.5783 12.75 11.9034 12.8147 12.2067 12.9403C12.51 13.0659 12.7856 13.2501 13.0178 13.4822C13.2499 13.7144 13.4341 13.99 13.5597 14.2933C13.6853 14.5966 13.75 14.9217 13.75 15.25V30.67Z" stroke="#555555" stroke-width="1.5" stroke-linecap="round" stroke-linejoin="round"/>
<path d="M8.75 28.75H13.75" stroke="#555555" stroke-width="1.5" stroke-linecap="round" stroke-linejoin="round"/>
<path d="M8.75 17.6101H13.75" stroke="#555555" stroke-width="1.5" stroke-linecap="round" stroke-linejoin="round"/>
<path d="M16.75 17.33L19.25 12.75L21.75 17.33V32.75C21.75 33.413 21.4866 34.0489 21.0178 34.5178C20.5489 34.9866 19.913 35.25 19.25 35.25C18.587 35.25 17.9511 34.9866 17.4822 34.5178C17.0134 34.0489 16.75 33.413 16.75 32.75V17.33Z" stroke="#555555" stroke-width="1.5" stroke-linecap="round" stroke-linejoin="round"/>
</svg>
