<svg width="14" height="10" viewBox="0 0 14 10" fill="none" xmlns="http://www.w3.org/2000/svg">
<path d="M6.99967 0.333496C3.96937 0.333496 1.38149 2.21834 0.333008 4.87895C1.38149 7.53956 3.96937 9.42441 6.99967 9.42441C10.03 9.42441 12.6179 7.53956 13.6663 4.87895C12.6179 2.21834 10.03 0.333496 6.99967 0.333496ZM6.99967 7.90925C5.32695 7.90925 3.96937 6.55168 3.96937 4.87895C3.96937 3.20622 5.32695 1.84865 6.99967 1.84865C8.6724 1.84865 10.03 3.20622 10.03 4.87895C10.03 6.55168 8.6724 7.90925 6.99967 7.90925ZM6.99967 3.06077C5.99361 3.06077 5.18149 3.87289 5.18149 4.87895C5.18149 5.88501 5.99361 6.69713 6.99967 6.69713C8.00574 6.69713 8.81786 5.88501 8.81786 4.87895C8.81786 3.87289 8.00574 3.06077 6.99967 3.06077Z" fill="#2A2A2A"/>
</svg>
