<svg width="48" height="48" viewBox="0 0 48 48" fill="none" xmlns="http://www.w3.org/2000/svg">
<path d="M0 24C0 10.7452 10.7452 0 24 0V0C37.2548 0 48 10.7452 48 24V24C48 37.2548 37.2548 48 24 48V48C10.7452 48 0 37.2548 0 24V24Z" fill="url(#paint0_linear_783_13265)"/>
<path fill-rule="evenodd" clip-rule="evenodd" d="M23.5528 14.1056C23.8343 13.9648 24.1657 13.9648 24.4472 14.1056L26.4472 15.1056C26.9412 15.3526 27.1414 15.9532 26.8944 16.4472C26.6474 16.9412 26.0468 17.1414 25.5528 16.8944L24 16.118L22.4472 16.8944C21.9532 17.1414 21.3526 16.9412 21.1056 16.4472C20.8586 15.9532 21.0588 15.3526 21.5528 15.1056L23.5528 14.1056ZM18.8944 17.5528C19.1414 18.0468 18.9412 18.6474 18.4472 18.8944L18.2361 19L18.4472 19.1056C18.9412 19.3526 19.1414 19.9532 18.8944 20.4472C18.6474 20.9412 18.0468 21.1414 17.5528 20.8944L17 20.618V21.5C17 22.0523 16.5523 22.5 16 22.5C15.4477 22.5 15 22.0523 15 21.5V19C15 18.6212 15.214 18.275 15.5528 18.1056L17.5528 17.1056C18.0468 16.8586 18.6474 17.0588 18.8944 17.5528ZM29.1056 17.5528C29.3526 17.0588 29.9532 16.8586 30.4472 17.1056L32.4472 18.1056C32.786 18.275 33 18.6212 33 19V21.5C33 22.0523 32.5523 22.5 32 22.5C31.4477 22.5 31 22.0523 31 21.5V20.618L30.4472 20.8944C29.9532 21.1414 29.3526 20.9412 29.1056 20.4472C28.8586 19.9532 29.0588 19.3526 29.5528 19.1056L29.7639 19L29.5528 18.8944C29.0588 18.6474 28.8586 18.0468 29.1056 17.5528ZM21.1056 21.5528C21.3526 21.0588 21.9532 20.8586 22.4472 21.1056L24 21.882L25.5528 21.1056C26.0468 20.8586 26.6474 21.0588 26.8944 21.5528C27.1414 22.0468 26.9412 22.6474 26.4472 22.8944L25 23.618V25.5C25 26.0523 24.5523 26.5 24 26.5C23.4477 26.5 23 26.0523 23 25.5V23.618L21.5528 22.8944C21.0588 22.6474 20.8586 22.0468 21.1056 21.5528ZM16 25.5C16.5523 25.5 17 25.9477 17 26.5V28.382L18.4472 29.1056C18.9412 29.3526 19.1414 29.9532 18.8944 30.4472C18.6474 30.9412 18.0468 31.1414 17.5528 30.8944L15.5528 29.8944C15.214 29.725 15 29.3788 15 29V26.5C15 25.9477 15.4477 25.5 16 25.5ZM32 25.5C32.5523 25.5 33 25.9477 33 26.5V29C33 29.3788 32.786 29.725 32.4472 29.8944L30.4472 30.8944C29.9532 31.1414 29.3526 30.9412 29.1056 30.4472C28.8586 29.9532 29.0588 29.3526 29.5528 29.1056L31 28.382V26.5C31 25.9477 31.4477 25.5 32 25.5ZM24 29.5C24.5523 29.5 25 29.9477 25 30.5V31.382L25.5528 31.1056C26.0468 30.8586 26.6474 31.0588 26.8944 31.5528C27.1414 32.0468 26.9412 32.6474 26.4472 32.8944L24.4472 33.8944C24.1657 34.0352 23.8343 34.0352 23.5528 33.8944L21.5528 32.8944C21.0588 32.6474 20.8586 32.0468 21.1056 31.5528C21.3526 31.0588 21.9532 30.8586 22.4472 31.1056L23 31.382V30.5C23 29.9477 23.4477 29.5 24 29.5Z" fill="white"/>
<defs>
<linearGradient id="paint0_linear_783_13265" x1="-1.49435e-07" y1="35.76" x2="49.4435" y2="31.3673" gradientUnits="userSpaceOnUse">
<stop stop-color="#723390"/>
<stop offset="1" stop-color="#8C384F"/>
</linearGradient>
</defs>
</svg>
