<svg width="18" height="18" viewBox="0 0 18 18" fill="none" xmlns="http://www.w3.org/2000/svg">
<path d="M7.85874 1.71248C8.21796 0.606907 9.78205 0.606908 10.1413 1.71248L11.4248 5.66264C11.5854 6.15706 12.0462 6.49182 12.566 6.49182H16.7195C17.8819 6.49182 18.3653 7.97936 17.4248 8.66264L14.0646 11.104C13.644 11.4095 13.468 11.9512 13.6287 12.4456L14.9122 16.3958C15.2714 17.5013 14.006 18.4207 13.0656 17.7374L9.70535 15.2961C9.28476 14.9905 8.71525 14.9905 8.29466 15.2961L4.93446 17.7374C3.994 18.4207 2.72863 17.5013 3.08785 16.3958L4.37133 12.4456C4.53198 11.9512 4.35599 11.4095 3.93541 11.104L0.575205 8.66264C-0.365251 7.97936 0.118079 6.49182 1.28055 6.49182H5.43399C5.95386 6.49182 6.41461 6.15706 6.57525 5.66264L7.85874 1.71248Z" fill="currentColor"/>
</svg>
