<svg width="16" height="16" viewBox="0 0 16 16" fill="none" xmlns="http://www.w3.org/2000/svg">
<path d="M2.2024 12.0141C1.81643 12.6808 2.29749 13.5151 3.06782 13.5151H12.9323C13.7026 13.5151 14.1837 12.6808 13.7977 12.0141L8.86547 3.49483C8.4803 2.82954 7.51978 2.82954 7.13461 3.49483L2.2024 12.0141ZM8.6061 11.0909C8.6061 11.4256 8.33476 11.697 8.00004 11.697V11.697C7.66532 11.697 7.39398 11.4256 7.39398 11.0909V11.0909C7.39398 10.7562 7.66532 10.4848 8.00004 10.4848V10.4848C8.33476 10.4848 8.6061 10.7562 8.6061 11.0909V11.0909ZM8.6061 8.66666C8.6061 9.00138 8.33476 9.27273 8.00004 9.27273V9.27273C7.66532 9.27273 7.39398 9.00138 7.39398 8.66667V7.45455C7.39398 7.11983 7.66532 6.84848 8.00004 6.84848V6.84848C8.33476 6.84848 8.6061 7.11983 8.6061 7.45454V8.66666Z" fill="white"/>
</svg>
