<svg width="20" height="20" viewBox="0 0 20 20" fill="none" xmlns="http://www.w3.org/2000/svg">
<path fill-rule="evenodd" clip-rule="evenodd" d="M10 2C5.58172 2 2 5.58172 2 10C2 14.4183 5.58172 18 10 18C14.4183 18 18 14.4183 18 10C18 5.58172 14.4183 2 10 2ZM0 10C0 4.47715 4.47715 0 10 0C15.5228 0 20 4.47715 20 10C20 15.5228 15.5228 20 10 20C4.47715 20 0 15.5228 0 10ZM10.0001 6C8.52833 6 7.47159 6.70623 7.13224 7.4263C6.89681 7.92589 6.30095 8.14002 5.80136 7.90458C5.30178 7.66914 5.08764 7.07329 5.32308 6.5737C6.08197 4.96338 7.98852 4 10.0001 4C11.3001 4 12.5155 4.39395 13.4285 5.07868C14.3418 5.76364 15.0001 6.78625 15.0001 8C15.0001 10.0693 13.166 11.5082 11.1827 11.8887C11.11 11.9026 11.0522 11.9386 11.0206 11.972C11.0064 11.9871 11.0014 11.9974 11.0002 12.0001C11.0002 12.0003 11.0001 12.0004 11.0001 12.0005C10.9998 12.5526 10.5522 13 10.0001 13C9.44777 13 9.00005 12.5523 9.00005 12C9.00005 10.8579 9.90969 10.0964 10.8059 9.92451C12.2788 9.64194 13.0001 8.72954 13.0001 8C13.0001 7.5569 12.7629 7.0795 12.2285 6.67868C11.6937 6.27763 10.9092 6 10.0001 6ZM9 15C9 14.4477 9.44771 14 10 14H10.01C10.5623 14 11.01 14.4477 11.01 15C11.01 15.5523 10.5623 16 10.01 16H10C9.44771 16 9 15.5523 9 15Z" fill="#137D60"/>
</svg>
