<svg width="48" height="36" viewBox="0 0 48 36" fill="none" xmlns="http://www.w3.org/2000/svg">
<path d="M4.5 25.5V4.5C4.5 3.70435 4.81607 2.94129 5.37868 2.37868C5.94129 1.81607 6.70435 1.5 7.5 1.5H40.5C41.2956 1.5 42.0587 1.81607 42.6213 2.37868C43.1839 2.94129 43.5 3.70435 43.5 4.5V25.5" stroke="#2A2A2A" stroke-width="3" stroke-linecap="round" stroke-linejoin="round"/>
<path d="M29.168 25.5C28.6474 26.4111 27.8952 27.1685 26.9877 27.6952C26.0801 28.2219 25.0494 28.4994 24 28.4994C22.9506 28.4994 21.9199 28.2219 21.0123 27.6952C20.1048 27.1685 19.3526 26.4111 18.832 25.5H1.5V28.5C1.5 30.0913 2.13214 31.6174 3.25736 32.7426C4.38258 33.8679 5.9087 34.5 7.5 34.5H40.5C42.0913 34.5 43.6174 33.8679 44.7426 32.7426C45.8679 31.6174 46.5 30.0913 46.5 28.5V25.5H29.168Z" stroke="#2A2A2A" stroke-width="3" stroke-linecap="round" stroke-linejoin="round"/>
</svg>
