<svg width="34" height="48" viewBox="0 0 34 48" fill="none" xmlns="http://www.w3.org/2000/svg">
<path d="M27.8022 1.5H6.19623C4.03458 1.5 2.28223 3.25236 2.28223 5.414V42.586C2.28223 44.7476 4.03458 46.5 6.19623 46.5H27.8022C29.9639 46.5 31.7162 44.7476 31.7162 42.586V5.414C31.7162 3.25236 29.9639 1.5 27.8022 1.5Z" stroke="#fff" stroke-width="3" stroke-linecap="round" stroke-linejoin="round"/>
<path d="M23.0403 8.104H10.9603C10.4531 8.10455 9.96256 7.92324 9.57762 7.59298C9.19268 7.26271 8.9389 6.80539 8.86234 6.304L8.15234 1.5H25.8483L25.1383 6.3C25.0627 6.80212 24.8093 7.26039 24.4242 7.59146C24.0392 7.92253 23.5481 8.1044 23.0403 8.104V8.104Z" stroke="#fff" stroke-width="3" stroke-linecap="round" stroke-linejoin="round"/>
</svg>
