<svg width="17" height="17" viewBox="0 0 17 17" fill="none" xmlns="http://www.w3.org/2000/svg">
<path fill-rule="evenodd" clip-rule="evenodd" d="M16.0771 0.922782C15.6247 0.470401 14.9461 0.470401 14.4937 0.922782L8.49968 6.91683L2.50563 0.922782C2.05325 0.470401 1.37467 0.470401 0.922294 0.922782C0.469913 1.37516 0.469913 2.05373 0.922294 2.50612L6.91634 8.50016L0.922294 14.4942C0.469913 14.9466 0.469913 15.6252 0.922294 16.0775C1.14848 16.3037 1.37467 16.4168 1.71396 16.4168C2.05325 16.4168 2.27944 16.3037 2.50563 16.0775L8.49968 10.0835L14.4937 16.0775C14.7199 16.3037 15.0592 16.4168 15.2854 16.4168C15.5116 16.4168 15.8509 16.3037 16.0771 16.0775C16.5294 15.6252 16.5294 14.9466 16.0771 14.4942L10.083 8.50016L16.0771 2.50612C16.5294 2.05373 16.5294 1.37516 16.0771 0.922782V0.922782Z" fill="#2A2A2A"/>
</svg>
