<svg width="14" height="14" viewBox="0 0 14 14" fill="none" xmlns="http://www.w3.org/2000/svg">
<path fill-rule="evenodd" clip-rule="evenodd" d="M0.333252 6.99992C0.333252 3.33325 3.33325 0.333252 6.99992 0.333252C10.6666 0.333252 13.6666 3.33325 13.6666 6.99992C13.6666 10.6666 10.6666 13.6666 6.99992 13.6666C3.33325 13.6666 0.333252 10.6666 0.333252 6.99992ZM1.99992 6.99992C1.99992 9.74992 4.24992 11.9999 6.99992 11.9999C9.74992 11.9999 11.9999 9.74992 11.9999 6.99992C11.9999 4.24992 9.74992 1.99992 6.99992 1.99992C4.24992 1.99992 1.99992 4.24992 1.99992 6.99992ZM6.99992 9.49992C7.45992 9.49992 7.83325 9.87325 7.83325 10.3333C7.83325 10.7933 7.45992 11.1666 6.99992 11.1666C6.53992 11.1666 6.16658 10.7933 6.16658 10.3333C6.16658 9.87325 6.53992 9.49992 6.99992 9.49992ZM7.0409 4.49992C6.71303 4.49992 6.46713 4.66659 6.3032 4.91659L5.89336 5.66659L4.49992 4.83325L4.90975 4.08325C5.31959 3.33325 6.13926 2.83325 7.0409 2.83325C8.43435 2.83325 9.49992 3.91659 9.49992 5.33325C9.49992 6.49992 8.76221 6.99992 8.27041 7.33325C7.86057 7.58325 7.86057 7.66659 7.86057 7.83325V8.66659H6.22123V7.83325C6.22123 6.74992 6.87697 6.24992 7.36877 5.91659C7.77861 5.66659 7.86057 5.58325 7.86057 5.33325C7.86057 4.83325 7.53271 4.49992 7.0409 4.49992Z" fill="#2A2A2A"/>
</svg>
