<svg width="28" height="28" viewBox="0 0 28 28" fill="none" xmlns="http://www.w3.org/2000/svg">
<path d="M-0.000976562 13.9969C-0.000976562 6.26664 6.26566 0 13.9959 0C21.7262 0 27.9928 6.26664 27.9928 13.9969C27.9928 21.7272 21.7262 27.9938 13.9959 27.9938C6.26566 27.9938 -0.000976562 21.7272 -0.000976562 13.9969ZM13.9959 2L13.8972 2.0004C14.0798 2.35812 14.2797 2.79008 14.4599 3.2688C14.9461 4.56042 15.3872 6.45192 14.602 8.12396C13.8785 9.66442 12.6321 10.0634 11.7011 10.3039L11.5666 10.3386C10.6613 10.5718 10.2861 10.6684 10.0159 11.0786C9.7631 11.4623 9.8087 11.944 10.0956 12.8789C10.116 12.9455 10.1381 13.0156 10.161 13.0886C10.2749 13.4517 10.4109 13.885 10.4818 14.2926C10.5699 14.7992 10.5935 15.4363 10.2735 16.0503C9.95298 16.6653 9.52938 17.0827 9.0299 17.3548C8.55976 17.6109 8.07178 17.7086 7.7017 17.7743L7.5645 17.7984C6.84808 17.9244 6.4847 17.9882 6.13524 18.3626C5.86158 18.6558 5.6912 19.1652 5.59238 19.9064C5.55206 20.2088 5.5278 20.5088 5.50286 20.8172L5.48948 20.9814C5.46138 21.3222 5.4268 21.7102 5.35124 22.0422L5.30106 22.2628C7.48664 24.5612 10.574 25.9938 13.9959 25.9938C16.2263 25.9938 18.3146 25.3852 20.1036 24.3248C19.9448 24.1688 19.7644 23.9758 19.5872 23.7528C19.1132 23.156 18.4998 22.1376 18.7126 20.94C18.8146 20.3658 19.1228 19.8828 19.4244 19.5088C19.7316 19.1282 20.103 18.7756 20.4298 18.4748C20.507 18.4038 20.5812 18.336 20.6524 18.271C20.903 18.0422 21.1176 17.8463 21.3008 17.6542C21.414 17.5358 21.4946 17.4395 21.5492 17.3618C21.5954 17.2961 21.6098 17.2621 21.612 17.2569C21.6118 17.2569 21.6122 17.2565 21.612 17.2569C21.7134 16.9213 21.5902 16.6751 21.4442 16.5623C21.3346 16.4775 21.0538 16.3516 20.5528 16.6689C20.358 16.7923 20.1846 16.9019 20.045 16.983C19.9404 17.0438 19.7282 17.167 19.4964 17.2177C19.37 17.2454 19.0926 17.2857 18.7902 17.1435C18.4484 16.9829 18.2916 16.6963 18.2284 16.4993C18.173 16.3263 18.1708 16.1721 18.1714 16.0998C18.172 16.0152 18.1794 15.9345 18.1856 15.8758C18.1908 15.8272 18.197 15.7754 18.2038 15.7202C18.255 15.2991 18.3304 14.6795 18.0898 13.7558C17.8963 13.0131 17.6145 12.4481 17.3267 11.8712C17.1941 11.6053 17.0602 11.3368 16.9331 11.0473C16.758 10.6483 16.5655 10.1287 16.5993 9.57552C16.6385 8.93628 16.9625 8.41494 17.485 8.02308C18.119 7.54748 18.9166 6.4589 19.6066 5.3565C19.9366 4.8292 20.2192 4.3366 20.4194 3.97548C20.4352 3.94684 20.4506 3.91902 20.4654 3.89212C18.5988 2.6945 16.3785 2 13.9959 2ZM22.0694 5.1229C21.8668 5.48316 21.6036 5.93564 21.302 6.41756C20.6246 7.49962 19.6542 8.89614 18.685 9.62306C18.631 9.66354 18.6056 9.69154 18.5954 9.70446C18.5944 9.758 18.6164 9.90606 18.7646 10.2435C18.8292 10.3908 18.92 10.5734 19.025 10.7846C19.3374 11.4129 19.7758 12.2942 20.0252 13.2517C20.1584 13.7636 20.2212 14.2209 20.2448 14.6147C21.1168 14.3257 21.993 14.4585 22.6676 14.9801C23.504 15.6269 23.8548 16.7493 23.5262 17.8364C23.3766 18.3316 23.0268 18.7428 22.7476 19.0352C22.5118 19.2822 22.2292 19.54 21.9712 19.7754C21.907 19.8338 21.8442 19.8912 21.7842 19.9464C21.4612 20.2438 21.1868 20.5096 20.9812 20.7646C20.77 21.0264 20.6982 21.1964 20.6816 21.2898C20.623 21.62 20.7846 22.0446 21.1532 22.5088C21.3214 22.7206 21.5002 22.8986 21.6388 23.0244C21.6892 23.0702 21.733 23.108 21.7674 23.1366C24.3528 20.9362 25.9928 17.6581 25.9928 13.9969C25.9928 10.4804 24.4798 7.31724 22.0694 5.1229ZM1.99902 13.9969C1.99902 16.1604 2.57172 18.1902 3.5738 19.9428C3.58456 19.8434 3.5965 19.7428 3.60992 19.642C3.71782 18.8328 3.94688 17.7759 4.67322 16.9978C5.50264 16.1093 6.51938 15.9424 7.16954 15.8358C7.23434 15.8251 7.2955 15.8151 7.35248 15.805C7.70098 15.7432 7.90964 15.6876 8.07308 15.5985C8.20718 15.5255 8.35406 15.4058 8.49988 15.126C8.52854 15.071 8.56548 14.9463 8.51138 14.6354C8.4652 14.3699 8.37854 14.0921 8.26666 13.7334C8.2403 13.6489 8.21256 13.56 8.18362 13.4657C7.92284 12.6159 7.5168 11.2368 8.34564 9.97844C9.06596 8.88486 10.223 8.6051 10.9725 8.42386C11.0537 8.40422 11.1302 8.38574 11.2008 8.3675C11.9952 8.16226 12.4659 7.96742 12.7916 7.27382C13.2162 6.36976 13.0308 5.14948 12.5881 3.97334C12.3776 3.41404 12.1307 2.92286 11.9353 2.57048C11.8543 2.42434 11.783 2.30378 11.7283 2.21402C6.1868 3.27414 1.99902 8.14648 1.99902 13.9969Z" fill="#2A2A2A"/>
</svg>
