<svg version="1.1" xmlns="http://www.w3.org/2000/svg" xmlns:xlink="http://www.w3.org/1999/xlink" x="0px" y="0px"
	 viewBox="0 0 16 16" enable-background="new 0 0 16 16" xml:space="preserve">
<path fill="none" stroke="#AAAAAA" d="M7.551598,2.03827c0.183403-0.37162,0.713402-0.37163,0.896805,0l1.221695,2.4755
	c0.218506,0.44272,0.6408,0.74957,1.129402,0.82056l2.731903,0.39697c0.410095,0.05959,0.573898,0.56358,0.2771,0.85285
	l-1.976799,1.92691c-0.3535,0.344601-0.5149,0.84111-0.431404,1.32769l0.466698,2.72085
	c0.07,0.4085-0.358696,0.7199-0.725494,0.527101l-2.443504-1.2846c-0.436996-0.2298-0.959-0.2298-1.395996,0l-2.443504,1.2846
	C4.491699,13.2795,4.063004,12.9681,4.133003,12.5596l0.466698-2.72085C4.683197,9.35216,4.521797,8.85566,4.168297,8.51106
	L2.191498,6.58415c-0.296799-0.28927-0.132996-0.79326,0.2771-0.85285L5.2005,5.33433
	c0.488602-0.07099,0.910896-0.37784,1.129402-0.82056L7.551598,2.03827z"/>
</svg>
