<svg width="30" height="28" viewBox="0 0 30 28" fill="none" xmlns="http://www.w3.org/2000/svg">
<path d="M14.5516 1.03827C14.735 0.666646 15.265 0.666644 15.4484 1.03827L19.0212 8.27771C19.2397 8.72042 19.6621 9.02727 20.1507 9.09827L28.1398 10.2592C28.5499 10.3188 28.7137 10.8227 28.4169 11.112L22.6359 16.7471C22.2824 17.0917 22.1211 17.5882 22.2045 18.0748L23.5692 26.0317C23.6393 26.4402 23.2106 26.7517 22.8438 26.5588L15.698 22.8021C15.261 22.5723 14.739 22.5723 14.302 22.8021L7.15623 26.5588C6.78942 26.7517 6.36071 26.4402 6.43076 26.0317L7.79548 18.0748C7.87894 17.5882 7.71762 17.0917 7.36408 16.7471L1.58305 11.112C1.28629 10.8227 1.45004 10.3188 1.86016 10.2592L9.84935 9.09827C10.3379 9.02727 10.7603 8.72042 10.9788 8.27771L14.5516 1.03827Z" stroke="#AAAAAA"/>
</svg>
