<svg version="1.1" xmlns="http://www.w3.org/2000/svg" xmlns:xlink="http://www.w3.org/1999/xlink" x="0px" y="0px"
	 viewBox="0 0 16 16" enable-background="new 0 0 16 16" xml:space="preserve">
<path fill="#FFD84D" stroke="#FFC43D" d="M8.44836,2.03827l1.22173,2.4755c0.2185,0.44272,0.6408,0.74957,1.1294,0.82056
	L13.53139,5.7313c0.4101,0.05959,0.5739,0.56358,0.277101,0.85285l-1.9768,1.92691
	c-0.3535,0.344601-0.5149,0.841101-0.4314,1.327701l0.4667,2.72084c0.070001,0.4085-0.3587,0.7199-0.725499,0.527101
	l-2.44349-1.2846c-0.436991-0.2298-0.95904-0.2298-1.39602,0l-2.44347,1.2846c-0.36681,0.1928-0.79553-0.118601-0.72547-0.527101
	l0.46666-2.72085c0.08345-0.486589-0.07787-0.983089-0.4314-1.32769l-1.97681-1.92691
	c-0.29676-0.28927-0.133-0.79326,0.27711-0.85285l2.73188-0.39697c0.48857-0.07099,0.91091-0.37784,1.12941-0.82056l1.22173-2.4755
	C7.735031,1.66665,8.264951,1.66664,8.44836,2.03827z"/>
</svg>
