<svg width="49" height="48" viewBox="0 0 49 48" fill="none" xmlns="http://www.w3.org/2000/svg">
<path fill-rule="evenodd" clip-rule="evenodd" d="M24.4 10C22.1909 10 20.4 11.7909 20.4 14C20.4 16.2091 22.1909 18 24.4 18C26.6092 18 28.4 16.2091 28.4 14C28.4 11.7909 26.6092 10 24.4 10ZM16.4 14C16.4 9.58172 19.9817 6 24.4 6C28.8183 6 32.4 9.58172 32.4 14C32.4 18.4183 28.8183 22 24.4 22C19.9817 22 16.4 18.4183 16.4 14ZM10.4 18C9.29545 18 8.40002 18.8954 8.40002 20C8.40002 21.1046 9.29545 22 10.4 22C11.5046 22 12.4 21.1046 12.4 20C12.4 18.8954 11.5046 18 10.4 18ZM4.40002 20C4.40002 16.6863 7.08632 14 10.4 14C13.7137 14 16.4 16.6863 16.4 20C16.4 23.3137 13.7137 26 10.4 26C7.08632 26 4.40002 23.3137 4.40002 20ZM38.4 18C37.2955 18 36.4 18.8954 36.4 20C36.4 21.1046 37.2955 22 38.4 22C39.5046 22 40.4 21.1046 40.4 20C40.4 18.8954 39.5046 18 38.4 18ZM32.4 20C32.4 16.6863 35.0863 14 38.4 14C41.7137 14 44.4 16.6863 44.4 20C44.4 23.3137 41.7137 26 38.4 26C35.0863 26 32.4 23.3137 32.4 20ZM24.4 28C21.0349 28 18.1503 30.0784 16.9693 33.029C16.6027 33.9449 16.4 34.9463 16.4 36V38H32.4V36C32.4 34.9463 32.1974 33.9449 31.8308 33.029C30.6497 30.0784 27.7652 28 24.4 28ZM36.4 38H42.4V36C42.4 33.7909 40.6092 32 38.4 32C37.4879 32 36.6474 32.3041 35.9735 32.8195C36.2517 33.834 36.4 34.9009 36.4 36V38ZM34.2573 29.1553C32.0909 26.0411 28.4854 24 24.4 24C20.3146 24 16.7091 26.0411 14.5428 29.1553C13.3348 28.4228 11.9166 28 10.4 28C5.98175 28 2.40002 31.5817 2.40002 36V40C2.40002 41.1046 3.29545 42 4.40002 42H44.4C45.5046 42 46.4 41.1046 46.4 40V36C46.4 31.5817 42.8183 28 38.4 28C36.8834 28 35.4652 28.4228 34.2573 29.1553ZM12.8266 32.8195C12.1527 32.3041 11.3122 32 10.4 32C8.19089 32 6.40002 33.7909 6.40002 36V38H12.4V36C12.4 34.9009 12.5483 33.834 12.8266 32.8195Z" fill="#1E94A3"/>
</svg>
