<svg width="185" height="48" viewBox="0 0 185 48" fill="none" xmlns="http://www.w3.org/2000/svg">
<path d="M0 24C0 10.7452 10.7452 0 24 0H161C174.255 0 185 10.7452 185 24C185 37.2548 174.255 48 161 48H24C10.7452 48 0 37.2548 0 24Z" fill="#137D60"/>
<path d="M29.2266 24.8359H27.3594V29H25.0156V17.625H29.2422C30.5859 17.625 31.6224 17.9245 32.3516 18.5234C33.0807 19.1224 33.4453 19.9688 33.4453 21.0625C33.4453 21.8385 33.276 22.487 32.9375 23.0078C32.6042 23.5234 32.0964 23.9349 31.4141 24.2422L33.875 28.8906V29H31.3594L29.2266 24.8359ZM27.3594 22.9375H29.25C29.8385 22.9375 30.2943 22.7891 30.6172 22.4922C30.9401 22.1901 31.1016 21.776 31.1016 21.25C31.1016 20.7135 30.9479 20.2917 30.6406 19.9844C30.3385 19.6771 29.8724 19.5234 29.2422 19.5234H27.3594V22.9375ZM42.2061 24.0703H37.7061V27.1172H42.9874V29H35.3624V17.625H42.9718V19.5234H37.7061V22.2344H42.2061V24.0703ZM48.6935 26.1797L51.2716 17.625H53.881L49.9201 29H47.4748L43.5294 17.625H46.131L48.6935 26.1797ZM57.5793 29H55.2356V17.625H57.5793V29ZM66.7308 24.0703H62.2308V27.1172H67.512V29H59.887V17.625H67.4964V19.5234H62.2308V22.2344H66.7308V24.0703ZM77.8744 25.7188L79.4056 17.625H81.7416L79.2181 29H76.8587L75.0072 21.3906L73.1556 29H70.7962L68.2728 17.625H70.6087L72.1478 25.7031L74.0228 17.625H76.0072L77.8744 25.7188ZM86.7944 25.9375C86.7944 25.4115 86.9403 24.9245 87.2319 24.4766C87.5288 24.0286 88.0705 23.5312 88.8569 22.9844C88.5184 22.5312 88.2528 22.1068 88.0601 21.7109C87.8674 21.3099 87.771 20.8932 87.771 20.4609C87.771 19.5755 88.0496 18.8568 88.6069 18.3047C89.1694 17.7474 89.9246 17.4688 90.8726 17.4688C91.7215 17.4688 92.4168 17.7214 92.9585 18.2266C93.5054 18.7318 93.7788 19.362 93.7788 20.1172C93.7788 21.0234 93.3205 21.8229 92.4038 22.5156L91.5288 23.1484L93.4897 25.4297C93.797 24.8255 93.9507 24.1589 93.9507 23.4297H95.8726C95.8726 24.9089 95.5314 26.1068 94.8491 27.0234L96.5522 29H93.9897L93.4038 28.3281C92.5653 28.8802 91.6017 29.1562 90.5132 29.1562C89.3882 29.1562 88.4871 28.862 87.8101 28.2734C87.133 27.6797 86.7944 26.901 86.7944 25.9375ZM90.6226 27.3438C91.1642 27.3438 91.6772 27.1927 92.1616 26.8906L89.9194 24.2969L89.7554 24.4141C89.2918 24.8099 89.0601 25.276 89.0601 25.8125C89.0601 26.2656 89.2033 26.6354 89.4897 26.9219C89.7814 27.2031 90.159 27.3438 90.6226 27.3438ZM89.7944 20.4297C89.7944 20.8203 90.0236 21.3125 90.4819 21.9062L91.0835 21.5078C91.3908 21.3099 91.6017 21.1172 91.7163 20.9297C91.8361 20.7422 91.896 20.5182 91.896 20.2578C91.896 19.9974 91.7996 19.7708 91.6069 19.5781C91.4142 19.3854 91.1668 19.2891 90.8647 19.2891C90.5418 19.2891 90.2814 19.3932 90.0835 19.6016C89.8908 19.8099 89.7944 20.0859 89.7944 20.4297ZM107.894 26.0156C107.894 25.5729 107.738 25.2344 107.425 25C107.113 24.7604 106.55 24.5104 105.738 24.25C104.925 23.9844 104.282 23.724 103.808 23.4688C102.517 22.7708 101.871 21.8307 101.871 20.6484C101.871 20.0339 102.043 19.487 102.386 19.0078C102.735 18.5234 103.233 18.1458 103.879 17.875C104.53 17.6042 105.259 17.4688 106.066 17.4688C106.879 17.4688 107.603 17.6172 108.238 17.9141C108.873 18.2057 109.366 18.6198 109.715 19.1562C110.069 19.6927 110.246 20.3021 110.246 20.9844H107.902C107.902 20.4635 107.738 20.0599 107.41 19.7734C107.082 19.4818 106.621 19.3359 106.027 19.3359C105.454 19.3359 105.009 19.4583 104.691 19.7031C104.373 19.9427 104.215 20.2604 104.215 20.6562C104.215 21.026 104.399 21.3359 104.769 21.5859C105.144 21.8359 105.694 22.0703 106.418 22.2891C107.751 22.6901 108.722 23.1875 109.332 23.7812C109.941 24.375 110.246 25.1146 110.246 26C110.246 26.9844 109.873 27.7578 109.129 28.3203C108.384 28.8776 107.381 29.1562 106.121 29.1562C105.246 29.1562 104.449 28.9974 103.73 28.6797C103.011 28.3568 102.462 27.9167 102.082 27.3594C101.707 26.8021 101.519 26.1562 101.519 25.4219H103.871C103.871 26.6771 104.621 27.3047 106.121 27.3047C106.678 27.3047 107.113 27.1927 107.425 26.9688C107.738 26.7396 107.894 26.4219 107.894 26.0156ZM120.577 17.625V25.1172C120.577 26.362 120.186 27.3464 119.405 28.0703C118.629 28.7943 117.566 29.1562 116.217 29.1562C114.889 29.1562 113.835 28.8047 113.053 28.1016C112.272 27.3984 111.874 26.4323 111.858 25.2031V17.625H114.202V25.1328C114.202 25.8776 114.379 26.4219 114.733 26.7656C115.092 27.1042 115.587 27.2734 116.217 27.2734C117.535 27.2734 118.204 26.5807 118.225 25.1953V17.625H120.577ZM122.627 29V17.625H126.611C127.991 17.625 129.038 17.8906 129.752 18.4219C130.465 18.9479 130.822 19.7214 130.822 20.7422C130.822 21.2995 130.679 21.7917 130.392 22.2188C130.106 22.6406 129.707 22.9505 129.197 23.1484C129.78 23.2943 130.239 23.5885 130.572 24.0312C130.911 24.474 131.08 25.0156 131.08 25.6562C131.08 26.75 130.731 27.5781 130.033 28.1406C129.335 28.7031 128.34 28.9896 127.049 29H122.627ZM124.97 24.0469V27.1172H126.978C127.53 27.1172 127.96 26.987 128.267 26.7266C128.58 26.4609 128.736 26.0964 128.736 25.6328C128.736 24.5911 128.197 24.0625 127.119 24.0469H124.97ZM124.97 22.3906H126.705C127.887 22.3698 128.478 21.8984 128.478 20.9766C128.478 20.4609 128.327 20.0911 128.025 19.8672C127.728 19.638 127.257 19.5234 126.611 19.5234H124.97V22.3906ZM136.036 17.625L138.958 25.875L141.864 17.625H144.942V29H142.591V25.8906L142.825 20.5234L139.755 29H138.145L135.083 20.5312L135.317 25.8906V29H132.974V17.625H136.036ZM149.609 29H147.266V17.625H149.609V29ZM160.245 19.5234H156.761V29H154.417V19.5234H150.979V17.625H160.245V19.5234Z" fill="white"/>
</svg>
