<svg width="56" height="40" viewBox="0 0 56 40" fill="none" xmlns="http://www.w3.org/2000/svg">
<path d="M0 20C0 8.95431 8.95431 0 20 0H36C47.0457 0 56 8.95431 56 20C56 31.0457 47.0457 40 36 40H20C8.95431 40 0 31.0457 0 20Z" fill="white"/>
<path fill-rule="evenodd" clip-rule="evenodd" d="M28 11C28.5523 11 29 11.4477 29 12L29 19.5858L30.2929 18.2929C30.6834 17.9024 31.3166 17.9024 31.7071 18.2929C32.0976 18.6834 32.0976 19.3166 31.7071 19.7071L28.7071 22.7071C28.3166 23.0976 27.6834 23.0976 27.2929 22.7071L24.2929 19.7071C23.9024 19.3166 23.9024 18.6834 24.2929 18.2929C24.6834 17.9024 25.3166 17.9024 25.7071 18.2929L27 19.5858L27 12C27 11.4477 27.4477 11 28 11ZM18 17C18 15.3431 19.3431 14 21 14H24C24.5523 14 25 14.4477 25 15C25 15.5523 24.5523 16 24 16H21C20.4477 16 20 16.4477 20 17V26C20 26.5523 20.4477 27 21 27H35C35.5523 27 36 26.5523 36 26V17C36 16.4477 35.5523 16 35 16H32C31.4477 16 31 15.5523 31 15C31 14.4477 31.4477 14 32 14H35C36.6569 14 38 15.3431 38 17V26C38 27.6569 36.6569 29 35 29H21C19.3431 29 18 27.6569 18 26V17Z" fill="#137D60"/>
<path d="M20 2H36V-2H20V2ZM36 38H20V42H36V38ZM20 38C10.0589 38 2 29.9411 2 20H-2C-2 32.1503 7.84974 42 20 42V38ZM54 20C54 29.9411 45.9411 38 36 38V42C48.1503 42 58 32.1503 58 20H54ZM36 2C45.9411 2 54 10.0589 54 20H58C58 7.84974 48.1503 -2 36 -2V2ZM20 -2C7.84974 -2 -2 7.84974 -2 20H2C2 10.0589 10.0589 2 20 2V-2Z" fill="#137D60"/>
</svg>
