<svg width="49" height="48" viewBox="0 0 49 48" fill="none" xmlns="http://www.w3.org/2000/svg">
<path fill-rule="evenodd" clip-rule="evenodd" d="M14.2001 8C13.0955 8 12.2001 8.89543 12.2001 10V38C12.2001 39.1046 13.0955 40 14.2001 40H34.2001C35.3046 40 36.2001 39.1046 36.2001 38V18.8284L25.3716 8H14.2001ZM8.20007 10C8.20007 6.68629 10.8864 4 14.2001 4H25.3716C26.4325 4 27.4499 4.42143 28.2001 5.17157L39.0285 16C39.7787 16.7501 40.2001 17.7676 40.2001 18.8284V38C40.2001 41.3137 37.5138 44 34.2001 44H14.2001C10.8864 44 8.20007 41.3137 8.20007 38V10ZM16.2001 24C16.2001 22.8954 17.0955 22 18.2001 22H30.2001C31.3046 22 32.2001 22.8954 32.2001 24C32.2001 25.1046 31.3046 26 30.2001 26H18.2001C17.0955 26 16.2001 25.1046 16.2001 24ZM16.2001 32C16.2001 30.8954 17.0955 30 18.2001 30H30.2001C31.3046 30 32.2001 30.8954 32.2001 32C32.2001 33.1046 31.3046 34 30.2001 34H18.2001C17.0955 34 16.2001 33.1046 16.2001 32Z" fill="#1E94A3"/>
</svg>
