<svg width="48" height="48" viewBox="0 0 48 48" fill="none" xmlns="http://www.w3.org/2000/svg">
<path fill-rule="evenodd" clip-rule="evenodd" d="M16 4C17.1046 4 18 4.89543 18 6V8H30V6C30 4.89543 30.8954 4 32 4C33.1046 4 34 4.89543 34 6V8H38C41.3137 8 44 10.6863 44 14V38C44 41.3137 41.3137 44 38 44H10C6.68629 44 4 41.3137 4 38V14C4 10.6863 6.68629 8 10 8H14V6C14 4.89543 14.8954 4 16 4ZM14 12H10C8.89543 12 8 12.8954 8 14V38C8 39.1046 8.89543 40 10 40H38C39.1046 40 40 39.1046 40 38V14C40 12.8954 39.1046 12 38 12H34V14C34 15.1046 33.1046 16 32 16C30.8954 16 30 15.1046 30 14V12H18V14C18 15.1046 17.1046 16 16 16C14.8954 16 14 15.1046 14 14V12ZM12 22C12 20.8954 12.8954 20 14 20H34C35.1046 20 36 20.8954 36 22C36 23.1046 35.1046 24 34 24H14C12.8954 24 12 23.1046 12 22Z" fill="#1E94A3"/>
</svg>
