<svg width="26" height="26" viewBox="0 0 26 26" fill="none" xmlns="http://www.w3.org/2000/svg">
<path d="M25.4668 12.2002C25.4668 13.5257 24.3923 14.6002 23.0668 14.6002C21.7413 14.6002 20.6668 13.5257 20.6668 12.2002V2.6002C20.6668 1.27471 21.7413 0.200197 23.0668 0.200197C24.3923 0.200197 25.4668 1.27471 25.4668 2.6002V12.2002Z" fill="#AAAAAA"/>
<path d="M19.0668 12.4669V3.7779C19.0668 2.56583 18.382 1.45779 17.2979 0.915739L17.2181 0.875862C16.3295 0.431526 15.3495 0.200196 14.356 0.200196L5.69018 0.200195C4.1648 0.200195 2.85147 1.27687 2.55232 2.77262L0.632321 12.3726C0.236294 14.3528 1.75083 16.2002 3.77018 16.2002H9.46681V22.6002C9.46681 24.3675 10.8995 25.8002 12.6668 25.8002C13.5505 25.8002 14.2668 25.0839 14.2668 24.2002V23.1335C14.2668 21.7488 14.7159 20.4013 15.5468 19.2935L17.7868 16.3069C18.6177 15.199 19.0668 13.8516 19.0668 12.4669Z" fill="#AAAAAA"/>
</svg>
