<svg width="26" height="26" viewBox="0 0 26 26" fill="none" xmlns="http://www.w3.org/2000/svg">
<path d="M0.866699 13.8002C0.866699 12.4747 1.94122 11.4002 3.2667 11.4002C4.59218 11.4002 5.6667 12.4747 5.6667 13.8002V23.4002C5.6667 24.7257 4.59218 25.8002 3.2667 25.8002C1.94122 25.8002 0.866699 24.7257 0.866699 23.4002V13.8002Z" fill="#AAAAAA"/>
<path d="M7.2667 13.5335V22.2225C7.2667 23.4346 7.95151 24.5426 9.03561 25.0847L9.11537 25.1245C10.004 25.5689 10.984 25.8002 11.9775 25.8002H20.6433C22.1687 25.8002 23.482 24.7235 23.7812 23.2278L25.7012 13.6278C26.0972 11.6476 24.5827 9.80019 22.5633 9.80019H16.8667V3.4002C16.8667 1.63288 15.434 0.200195 13.6667 0.200195C12.783 0.200195 12.0667 0.91654 12.0667 1.8002V2.86686C12.0667 4.25163 11.6176 5.59905 10.7867 6.70686L8.5467 9.69353C7.71584 10.8013 7.2667 12.1488 7.2667 13.5335Z" fill="#AAAAAA"/>
</svg>
