<svg width="48" height="48" viewBox="0 0 48 48" fill="none" xmlns="http://www.w3.org/2000/svg">
<path d="M0 24C0 10.7452 10.7452 0 24 0V0C37.2548 0 48 10.7452 48 24V24C48 37.2548 37.2548 48 24 48V48C10.7452 48 0 37.2548 0 24V24Z" fill="url(#paint0_linear_1118_14258)"/>
<path fill-rule="evenodd" clip-rule="evenodd" d="M16.7999 14.3999C15.4744 14.3999 14.3999 15.4744 14.3999 16.7999V29.9999C14.3999 31.9881 16.0117 33.5999 17.9999 33.5999C19.9881 33.5999 21.5999 31.9881 21.5999 29.9999V16.7999C21.5999 15.4744 20.5254 14.3999 19.1999 14.3999H16.7999ZM17.9999 31.1999C18.6626 31.1999 19.1999 30.6626 19.1999 29.9999C19.1999 29.3372 18.6626 28.7999 17.9999 28.7999C17.3372 28.7999 16.7999 29.3372 16.7999 29.9999C16.7999 30.6626 17.3372 31.1999 17.9999 31.1999Z" fill="white"/>
<path d="M23.9999 29.091L29.8793 23.2116C30.8165 22.2743 30.8165 20.7547 29.8793 19.8175L28.1822 18.1204C27.245 17.1832 25.7254 17.1832 24.7881 18.1204L23.9999 18.9086V29.091Z" fill="white"/>
<path d="M31.1999 33.5999H22.8852L30.0852 26.3999H31.1999C32.5254 26.3999 33.5999 27.4744 33.5999 28.7999V31.1999C33.5999 32.5254 32.5254 33.5999 31.1999 33.5999Z" fill="white"/>
<defs>
<linearGradient id="paint0_linear_1118_14258" x1="-1.49435e-07" y1="35.76" x2="49.4435" y2="31.3673" gradientUnits="userSpaceOnUse">
<stop stop-color="#065D6E"/>
<stop offset="0.0001" stop-color="#06596E"/>
<stop offset="1" stop-color="#3E3B91"/>
</linearGradient>
</defs>
</svg>
