<svg width="49" height="48" viewBox="0 0 49 48" fill="none" xmlns="http://www.w3.org/2000/svg">
<path fill-rule="evenodd" clip-rule="evenodd" d="M18.7999 10C18.7999 6.68629 21.4862 4 24.7999 4C28.1136 4 30.7999 6.68629 30.7999 10H38.7999C42.1136 10 44.7999 12.6863 44.7999 16V34C44.7999 37.3137 42.1136 40 38.7999 40H10.7999C7.48622 40 4.79993 37.3137 4.79993 34V16C4.79993 12.6863 7.48622 10 10.7999 10H18.7999ZM19.1413 14H10.7999C9.69536 14 8.79993 14.8954 8.79993 16V34C8.79993 35.1046 9.69536 36 10.7999 36H38.7999C39.9045 36 40.7999 35.1046 40.7999 34V16C40.7999 14.8954 39.9045 14 38.7999 14H30.4585C29.6348 16.3304 27.4124 18 24.7999 18C22.1875 18 19.965 16.3304 19.1413 14ZM24.7999 8C23.6954 8 22.7999 8.89543 22.7999 10V12C22.7999 13.1046 23.6954 14 24.7999 14C25.9045 14 26.7999 13.1046 26.7999 12V10C26.7999 8.89543 25.9045 8 24.7999 8ZM18.7999 22C17.6954 22 16.7999 22.8954 16.7999 24C16.7999 25.1046 17.6954 26 18.7999 26C19.9045 26 20.7999 25.1046 20.7999 24C20.7999 22.8954 19.9045 22 18.7999 22ZM23.6004 27.6C24.3536 26.5972 24.7999 25.3507 24.7999 24C24.7999 20.6863 22.1136 18 18.7999 18C15.4862 18 12.7999 20.6863 12.7999 24C12.7999 25.3507 13.2462 26.5972 13.9995 27.6C12.7505 28.5385 11.7856 29.8338 11.2556 31.3335C10.8875 32.3749 11.4333 33.5176 12.4747 33.8857C13.5162 34.2538 14.6588 33.7079 15.0269 32.6665C15.577 31.1102 17.0614 30 18.7999 30C20.5384 30 22.0226 31.1102 22.5727 32.6665C22.9408 33.7079 24.0835 34.2538 25.1249 33.8857C26.1663 33.5176 26.7122 32.3749 26.3441 31.3335C25.814 29.8339 24.8492 28.5385 23.6004 27.6ZM28.7999 22C28.7999 20.8954 29.6954 20 30.7999 20H36.7999C37.9045 20 38.7999 20.8954 38.7999 22C38.7999 23.1046 37.9045 24 36.7999 24H30.7999C29.6954 24 28.7999 23.1046 28.7999 22ZM28.7999 30C28.7999 28.8954 29.6954 28 30.7999 28H34.7999C35.9045 28 36.7999 28.8954 36.7999 30C36.7999 31.1046 35.9045 32 34.7999 32H30.7999C29.6954 32 28.7999 31.1046 28.7999 30Z" fill="#1E94A3"/>
</svg>
