<svg width="520" height="100" viewBox="0 0 520 100" fill="none" xmlns="http://www.w3.org/2000/svg">
<path d="M2 8C2 3.58172 5.58172 0 10 0H278.352C281.226 0 283.879 1.54141 285.302 4.03802L308.105 44.038C309.505 46.4938 309.505 49.5062 308.105 51.962L285.302 91.962C283.879 94.4586 281.226 96 278.352 96H10C5.58172 96 2 92.4183 2 88V8Z" fill="white"/>
<path d="M47.7323 26.5866C49.4857 24.662 52.5143 24.662 54.2677 26.5866C55.4309 27.8633 57.2311 28.3456 58.8768 27.8216C61.3576 27.0316 63.9804 28.5459 64.5366 31.0893C64.9056 32.7765 66.2235 34.0944 67.9107 34.4634C70.4541 35.0196 71.9684 37.6424 71.1784 40.1232C70.6544 41.7689 71.1367 43.5691 72.4134 44.7323C74.338 46.4857 74.338 49.5143 72.4134 51.2677C71.1367 52.4309 70.6544 54.2311 71.1784 55.8768C71.9684 58.3576 70.4541 60.9804 67.9107 61.5366C66.2235 61.9056 64.9056 63.2235 64.5366 64.9107C63.9804 67.4541 61.3576 68.9684 58.8768 68.1784C57.2311 67.6544 55.4309 68.1367 54.2677 69.4134C52.5143 71.338 49.4857 71.338 47.7323 69.4134C46.5691 68.1367 44.7689 67.6544 43.1232 68.1784C40.6424 68.9684 38.0196 67.4541 37.4634 64.9107C37.0944 63.2235 35.7765 61.9056 34.0893 61.5366C31.5459 60.9804 30.0316 58.3576 30.8216 55.8768C31.3456 54.2311 30.8633 52.4309 29.5866 51.2677C27.662 49.5143 27.662 46.4857 29.5866 44.7323C30.8633 43.5691 31.3456 41.7689 30.8216 40.1232C30.0316 37.6424 31.5459 35.0196 34.0893 34.4634C35.7765 34.0944 37.0944 32.7765 37.4634 31.0893C38.0196 28.5459 40.6424 27.0316 43.1232 27.8216C44.7689 28.3456 46.5691 27.8633 47.7323 26.5866Z" fill="url(#paint0_linear_872_32000)"/>
<circle opacity="0.2" cx="51" cy="48.0002" r="17.6316" fill="white"/>
<path fill-rule="evenodd" clip-rule="evenodd" d="M53.1639 39.3445C53.6809 39.4737 53.9952 39.9976 53.866 40.5146L50.0063 55.9532C49.8771 56.4702 49.3532 56.7845 48.8362 56.6553C48.3192 56.526 48.0048 56.0021 48.1341 55.4851L51.9937 40.0465C52.123 39.5295 52.6469 39.2152 53.1639 39.3445ZM45.8928 43.4579C46.2697 43.8347 46.2697 44.4457 45.8928 44.8225L42.7155 47.9999L45.8928 51.1772C46.2697 51.554 46.2697 52.165 45.8928 52.5418C45.516 52.9186 44.9051 52.9186 44.5283 52.5418L40.6686 48.6822C40.2918 48.3053 40.2918 47.6944 40.6686 47.3176L44.5283 43.4579C44.9051 43.0811 45.516 43.0811 45.8928 43.4579ZM56.1072 43.4579C56.484 43.0811 57.095 43.0811 57.4718 43.4579L61.3314 47.3176C61.7083 47.6944 61.7083 48.3053 61.3314 48.6822L57.4718 52.5418C57.095 52.9186 56.484 52.9186 56.1072 52.5418C55.7304 52.165 55.7304 51.554 56.1072 51.1772L59.2846 47.9999L56.1072 44.8225C55.7304 44.4457 55.7304 43.8347 56.1072 43.4579Z" fill="white"/>
<path d="M51 70C38.8497 70 29 60.1503 29 48H23C23 63.464 35.536 76 51 76V70ZM73 48C73 60.1503 63.1503 70 51 70V76C66.464 76 79 63.464 79 48H73ZM51 26C63.1503 26 73 35.8497 73 48H79C79 32.536 66.464 20 51 20V26ZM51 20C35.536 20 23 32.536 23 48H29C29 35.8497 38.8497 26 51 26V20Z" fill="#16679A"/>
<path fill-rule="evenodd" clip-rule="evenodd" d="M105.25 36.7998C106.134 36.7998 106.85 37.5161 106.85 38.3998V46.3998H114.85C115.734 46.3998 116.45 47.1161 116.45 47.9998C116.45 48.8835 115.734 49.5998 114.85 49.5998H106.85V57.5998C106.85 58.4835 106.134 59.1998 105.25 59.1998C104.366 59.1998 103.65 58.4835 103.65 57.5998V49.5998H95.65C94.7664 49.5998 94.05 48.8835 94.05 47.9998C94.05 47.1161 94.7664 46.3998 95.65 46.3998H103.65V38.3998C103.65 37.5161 104.366 36.7998 105.25 36.7998Z" fill="#16679A"/>
<g opacity="0.5">
<path d="M152.886 30.8693C154.289 29.3296 156.711 29.3296 158.114 30.8693C159.045 31.8906 160.485 32.2765 161.801 31.8573C163.786 31.2253 165.884 32.4367 166.329 34.4714C166.625 35.8212 167.679 36.8755 169.029 37.1707C171.063 37.6157 172.275 39.714 171.643 41.6986C171.223 43.0151 171.609 44.4553 172.631 45.3858C174.17 46.7886 174.17 49.2114 172.631 50.6142C171.609 51.5447 171.223 52.9849 171.643 54.3014C172.275 56.286 171.063 58.3843 169.029 58.8293C167.679 59.1245 166.625 60.1788 166.329 61.5286C165.884 63.5633 163.786 64.7747 161.801 64.1427C160.485 63.7235 159.045 64.1094 158.114 65.1307C156.711 66.6704 154.289 66.6704 152.886 65.1307C151.955 64.1094 150.515 63.7235 149.199 64.1427C147.214 64.7747 145.116 63.5633 144.671 61.5286C144.375 60.1788 143.321 59.1245 141.971 58.8293C139.937 58.3843 138.725 56.2861 139.357 54.3014C139.777 52.9849 139.391 51.5447 138.369 50.6142C136.83 49.2114 136.83 46.7886 138.369 45.3858C139.391 44.4553 139.777 43.0151 139.357 41.6986C138.725 39.714 139.937 37.6157 141.971 37.1707C143.321 36.8755 144.375 35.8212 144.671 34.4714C145.116 32.4367 147.214 31.2253 149.199 31.8573C150.515 32.2765 151.955 31.8906 152.886 30.8693Z" fill="url(#paint1_linear_872_32000)"/>
<circle opacity="0.2" cx="155.5" cy="47.9998" r="14.1053" fill="white"/>
<path fill-rule="evenodd" clip-rule="evenodd" d="M155.155 40.3623C155.372 40.2536 155.628 40.2536 155.845 40.3623L157.389 41.1342C157.77 41.3248 157.925 41.7885 157.734 42.1698C157.544 42.5512 157.08 42.7057 156.699 42.5151L155.5 41.9157L154.301 42.5151C153.92 42.7057 153.456 42.5512 153.266 42.1698C153.075 41.7885 153.23 41.3248 153.611 41.1342L155.155 40.3623ZM151.559 43.0233C151.749 43.4046 151.595 43.8683 151.214 44.0589L151.051 44.1404L151.214 44.2219C151.595 44.4126 151.749 44.8762 151.559 45.2576C151.368 45.6389 150.905 45.7934 150.523 45.6028L150.096 45.3894V46.0702C150.096 46.4966 149.751 46.8422 149.325 46.8422C148.898 46.8422 148.553 46.4966 148.553 46.0702V44.1404C148.553 43.848 148.718 43.5807 148.979 43.45L150.523 42.678C150.905 42.4874 151.368 42.6419 151.559 43.0233ZM159.441 43.0233C159.632 42.6419 160.095 42.4874 160.477 42.678L162.021 43.45C162.282 43.5807 162.447 43.848 162.447 44.1404V46.0702C162.447 46.4966 162.102 46.8422 161.675 46.8422C161.249 46.8422 160.903 46.4966 160.903 46.0702V45.3894L160.477 45.6028C160.095 45.7934 159.632 45.6389 159.441 45.2576C159.25 44.8762 159.405 44.4126 159.786 44.2219L159.949 44.1404L159.786 44.0589C159.405 43.8683 159.25 43.4046 159.441 43.0233ZM153.266 46.111C153.456 45.7297 153.92 45.5751 154.301 45.7658L155.5 46.3651L156.699 45.7658C157.08 45.5751 157.544 45.7297 157.734 46.111C157.925 46.4923 157.77 46.956 157.389 47.1466L156.272 47.7052V49.158C156.272 49.5843 155.926 49.9299 155.5 49.9299C155.074 49.9299 154.728 49.5843 154.728 49.158V47.7052L153.611 47.1466C153.23 46.956 153.075 46.4923 153.266 46.111ZM149.325 49.158C149.751 49.158 150.096 49.5036 150.096 49.9299V51.3826L151.214 51.9412C151.595 52.1319 151.749 52.5955 151.559 52.9769C151.368 53.3582 150.905 53.5127 150.523 53.3221L148.979 52.5501C148.718 52.4194 148.553 52.1521 148.553 51.8597V49.9299C148.553 49.5036 148.898 49.158 149.325 49.158ZM161.675 49.158C162.102 49.158 162.447 49.5036 162.447 49.9299V51.8597C162.447 52.1521 162.282 52.4194 162.021 52.5501L160.477 53.3221C160.095 53.5127 159.632 53.3582 159.441 52.9769C159.25 52.5955 159.405 52.1319 159.786 51.9412L160.903 51.3826V49.9299C160.903 49.5036 161.249 49.158 161.675 49.158ZM155.5 52.2457C155.926 52.2457 156.272 52.5913 156.272 53.0176V53.6984L156.699 53.4851C157.08 53.2944 157.544 53.449 157.734 53.8303C157.925 54.2116 157.77 54.6753 157.389 54.8659L155.845 55.6379C155.628 55.7465 155.372 55.7465 155.155 55.6379L153.611 54.8659C153.23 54.6753 153.075 54.2116 153.266 53.8303C153.456 53.449 153.92 53.2944 154.301 53.4851L154.728 53.6984V53.0176C154.728 52.5913 155.074 52.2457 155.5 52.2457Z" fill="white"/>
</g>
<path fill-rule="evenodd" clip-rule="evenodd" d="M209.75 36.7998C210.634 36.7998 211.35 37.5161 211.35 38.3998V46.3998H219.35C220.234 46.3998 220.95 47.1161 220.95 47.9998C220.95 48.8835 220.234 49.5998 219.35 49.5998H211.35V57.5998C211.35 58.4835 210.634 59.1998 209.75 59.1998C208.866 59.1998 208.15 58.4835 208.15 57.5998V49.5998H200.15C199.266 49.5998 198.55 48.8835 198.55 47.9998C198.55 47.1161 199.266 46.3998 200.15 46.3998H208.15V38.3998C208.15 37.5161 208.866 36.7998 209.75 36.7998Z" fill="#16679A"/>
<g opacity="0.5">
<path d="M257.386 30.8693C258.789 29.3296 261.211 29.3296 262.614 30.8693C263.545 31.8906 264.985 32.2765 266.301 31.8573C268.286 31.2253 270.384 32.4367 270.829 34.4714C271.125 35.8212 272.179 36.8755 273.529 37.1707C275.563 37.6157 276.775 39.714 276.143 41.6986C275.723 43.0151 276.109 44.4553 277.131 45.3858C278.67 46.7886 278.67 49.2114 277.131 50.6142C276.109 51.5447 275.723 52.9849 276.143 54.3014C276.775 56.286 275.563 58.3843 273.529 58.8293C272.179 59.1245 271.125 60.1788 270.829 61.5286C270.384 63.5633 268.286 64.7747 266.301 64.1427C264.985 63.7235 263.545 64.1094 262.614 65.1307C261.211 66.6704 258.789 66.6704 257.386 65.1307C256.455 64.1094 255.015 63.7235 253.699 64.1427C251.714 64.7747 249.616 63.5633 249.171 61.5286C248.875 60.1788 247.821 59.1245 246.471 58.8293C244.437 58.3843 243.225 56.2861 243.857 54.3014C244.277 52.9849 243.891 51.5447 242.869 50.6142C241.33 49.2114 241.33 46.7886 242.869 45.3858C243.891 44.4553 244.277 43.0151 243.857 41.6986C243.225 39.714 244.437 37.6157 246.471 37.1707C247.821 36.8755 248.875 35.8212 249.171 34.4714C249.616 32.4367 251.714 31.2253 253.699 31.8573C255.015 32.2765 256.455 31.8906 257.386 30.8693Z" fill="url(#paint2_linear_872_32000)"/>
<circle opacity="0.2" cx="260" cy="47.9998" r="14.1053" fill="white"/>
<path fill-rule="evenodd" clip-rule="evenodd" d="M254.442 40.5894C253.419 40.5894 252.589 41.4188 252.589 42.442V52.6315C252.589 54.1662 253.834 55.4104 255.368 55.4104C256.903 55.4104 258.147 54.1662 258.147 52.6315V42.442C258.147 41.4188 257.318 40.5894 256.295 40.5894H254.442ZM255.368 53.5578C255.88 53.5578 256.295 53.1431 256.295 52.6315C256.295 52.1199 255.88 51.7051 255.368 51.7051C254.857 51.7051 254.442 52.1199 254.442 52.6315C254.442 53.1431 254.857 53.5578 255.368 53.5578Z" fill="white"/>
<path d="M260 51.9298L264.538 47.3914C265.262 46.6679 265.262 45.4948 264.538 44.7713L263.228 43.4613C262.505 42.7378 261.332 42.7378 260.608 43.4613L260 44.0698V51.9298Z" fill="white"/>
<path d="M265.558 55.4104H259.139L264.697 49.8525H265.558C266.581 49.8525 267.411 50.682 267.411 51.7051V53.5578C267.411 54.581 266.581 55.4104 265.558 55.4104Z" fill="white"/>
</g>
<path d="M369.465 7.17317C372.971 3.3241 379.029 3.3241 382.535 7.17317C384.862 9.72654 388.462 10.6912 391.754 9.64315C396.715 8.0632 401.961 11.0918 403.073 16.1786C403.811 19.5531 406.447 22.1887 409.821 22.9267C414.908 24.0392 417.937 29.2849 416.357 34.2465C415.309 37.5378 416.273 41.1382 418.827 43.4646C422.676 46.9714 422.676 53.0286 418.827 56.5354C416.273 58.8618 415.309 62.4622 416.357 65.7535C417.937 70.7151 414.908 75.9608 409.821 77.0733C406.447 77.8113 403.811 80.4469 403.073 83.8214C401.961 88.9082 396.715 91.9368 391.754 90.3568C388.462 89.3088 384.862 90.2735 382.535 92.8268C379.029 96.6759 372.971 96.6759 369.465 92.8268C367.138 90.2735 363.538 89.3088 360.246 90.3568C355.285 91.9368 350.039 88.9082 348.927 83.8214C348.189 80.4469 345.553 77.8113 342.179 77.0733C337.092 75.9608 334.063 70.7151 335.643 65.7535C336.691 62.4622 335.727 58.8618 333.173 56.5354C329.324 53.0286 329.324 46.9714 333.173 43.4646C335.727 41.1382 336.691 37.5378 335.643 34.2464C334.063 29.2849 337.092 24.0392 342.179 22.9267C345.553 22.1887 348.189 19.5531 348.927 16.1786C350.039 11.0918 355.285 8.0632 360.246 9.64315C363.538 10.6912 367.138 9.72654 369.465 7.17317Z" fill="url(#paint3_linear_872_32000)"/>
<circle opacity="0.2" cx="376" cy="50" r="35.2632" fill="white"/>
<path fill-rule="evenodd" clip-rule="evenodd" d="M387.05 46.1065C384.157 42.9716 380.272 41.0527 376 41.0527C371.728 41.0527 367.843 42.9716 364.951 46.1065C366.675 46.4226 368.432 46.8415 370.191 47.344C371.694 47.7733 373.108 48.2405 374.294 48.6837C374.767 48.8607 375.954 49.3774 376 49.4009C376.047 49.3774 377.233 48.8607 377.706 48.6837C378.892 48.2405 380.306 47.7733 381.809 47.344C383.568 46.8415 385.325 46.4226 387.05 46.1065ZM360.147 51.8507C359.516 53.5054 359.085 55.2522 358.867 57.0527C355.31 56.6663 352.842 51.1378 352.842 49.8165C352.842 47.6256 355.432 46.5301 358.143 46.5301C359.71 46.5301 361.307 46.664 362.865 46.8818C361.764 48.3553 360.843 50.0246 360.147 51.8507ZM375.442 50.3643C374.884 50.3643 370.186 51.7477 366.932 53.5137C366.207 53.9075 365.497 54.3265 364.807 54.7335C363.046 55.7724 361.417 56.7337 359.998 57.0009C360.215 55.3298 360.621 53.7309 361.192 52.2347C361.92 50.3269 362.913 48.5861 364.119 47.0757C370.228 48.1095 375.442 50.2604 375.442 50.3643ZM391.691 51.4372C392.41 53.2126 392.897 55.1009 393.133 57.0527C396.69 56.6663 399.158 51.1378 399.158 49.8165C399.158 47.6256 396.568 46.5301 393.857 46.5301C392.29 46.5301 390.693 46.664 389.135 46.8818C390.152 48.2428 391.015 49.7714 391.691 51.4372ZM385.068 53.5137C381.814 51.7477 377.116 50.3643 376.558 50.3643C376.558 50.2604 381.772 48.1095 387.881 47.0757C389.004 48.4819 389.942 50.0878 390.654 51.8423C391.306 53.4501 391.766 55.1828 392.002 57.0009C390.583 56.7337 388.954 55.7725 387.193 54.7335C386.503 54.3265 385.793 53.9075 385.068 53.5137Z" fill="white"/>
<path d="M439.526 57.144C438.626 57.144 437.834 56.97 437.15 56.622C436.466 56.262 435.938 55.764 435.566 55.128C435.194 54.492 435.008 53.754 435.008 52.914V48.468C435.008 47.628 435.194 46.89 435.566 46.254C435.938 45.618 436.466 45.126 437.15 44.778C437.834 44.43 438.626 44.256 439.526 44.256C440.414 44.256 441.2 44.424 441.884 44.76C442.568 45.096 443.096 45.57 443.468 46.182C443.84 46.794 444.026 47.502 444.026 48.306C444.026 48.426 443.936 48.498 443.756 48.522L442.226 48.612H442.154C442.01 48.612 441.938 48.582 441.938 48.522V48.414C441.938 47.706 441.716 47.136 441.272 46.704C440.84 46.272 440.258 46.056 439.526 46.056C438.794 46.056 438.206 46.272 437.762 46.704C437.318 47.136 437.096 47.706 437.096 48.414V53.004C437.096 53.7 437.318 54.264 437.762 54.696C438.206 55.128 438.794 55.344 439.526 55.344C440.258 55.344 440.84 55.134 441.272 54.714C441.716 54.282 441.938 53.712 441.938 53.004C441.938 52.944 441.962 52.896 442.01 52.86C442.07 52.812 442.142 52.794 442.226 52.806L443.738 52.878C443.93 52.902 444.026 52.932 444.026 52.968V53.058C444.026 53.874 443.84 54.594 443.468 55.218C443.096 55.83 442.568 56.304 441.884 56.64C441.2 56.976 440.414 57.144 439.526 57.144ZM454.797 45.912C454.797 46.104 454.701 46.2 454.509 46.2H448.461C448.389 46.2 448.353 46.236 448.353 46.308V49.638C448.353 49.71 448.389 49.746 448.461 49.746H452.493C452.685 49.746 452.781 49.842 452.781 50.034V51.258C452.781 51.45 452.685 51.546 452.493 51.546H448.461C448.389 51.546 448.353 51.582 448.353 51.654V55.092C448.353 55.164 448.389 55.2 448.461 55.2H454.509C454.701 55.2 454.797 55.296 454.797 55.488V56.712C454.797 56.904 454.701 57 454.509 57H446.553C446.361 57 446.265 56.904 446.265 56.712V44.688C446.265 44.496 446.361 44.4 446.553 44.4H454.509C454.701 44.4 454.797 44.496 454.797 44.688V45.912ZM464.046 57C463.878 57 463.764 56.928 463.704 56.784L461.346 51.636C461.334 51.588 461.292 51.564 461.22 51.564H459.114C459.042 51.564 459.006 51.6 459.006 51.672V56.712C459.006 56.904 458.91 57 458.718 57H457.206C457.014 57 456.918 56.904 456.918 56.712V44.67C456.918 44.478 457.014 44.382 457.206 44.382H462.084C462.816 44.382 463.464 44.538 464.028 44.85C464.592 45.15 465.03 45.582 465.342 46.146C465.654 46.698 465.81 47.334 465.81 48.054C465.81 48.882 465.594 49.59 465.162 50.178C464.742 50.754 464.16 51.15 463.416 51.366C463.38 51.378 463.356 51.402 463.344 51.438C463.332 51.462 463.338 51.486 463.362 51.51L465.846 56.658L465.882 56.802C465.882 56.934 465.798 57 465.63 57H464.046ZM459.114 46.182C459.042 46.182 459.006 46.218 459.006 46.29V49.836C459.006 49.908 459.042 49.944 459.114 49.944H461.796C462.372 49.944 462.834 49.776 463.182 49.44C463.542 49.092 463.722 48.642 463.722 48.09C463.722 47.526 463.542 47.07 463.182 46.722C462.834 46.362 462.372 46.182 461.796 46.182H459.114ZM476.147 44.4C476.339 44.4 476.435 44.496 476.435 44.688V45.93C476.435 46.122 476.339 46.218 476.147 46.218H472.925C472.853 46.218 472.817 46.254 472.817 46.326V56.712C472.817 56.904 472.721 57 472.529 57H471.017C470.825 57 470.729 56.904 470.729 56.712V46.326C470.729 46.254 470.693 46.218 470.621 46.218H467.525C467.333 46.218 467.237 46.122 467.237 45.93V44.688C467.237 44.496 467.333 44.4 467.525 44.4H476.147ZM478.651 57C478.459 57 478.363 56.904 478.363 56.712V44.688C478.363 44.496 478.459 44.4 478.651 44.4H480.163C480.355 44.4 480.451 44.496 480.451 44.688V56.712C480.451 56.904 480.355 57 480.163 57H478.651ZM491.588 45.912C491.588 46.104 491.492 46.2 491.3 46.2H485.27C485.198 46.2 485.162 46.236 485.162 46.308V49.638C485.162 49.71 485.198 49.746 485.27 49.746H489.302C489.494 49.746 489.59 49.842 489.59 50.034V51.258C489.59 51.45 489.494 51.546 489.302 51.546H485.27C485.198 51.546 485.162 51.582 485.162 51.654V56.712C485.162 56.904 485.066 57 484.874 57H483.362C483.17 57 483.074 56.904 483.074 56.712V44.688C483.074 44.496 483.17 44.4 483.362 44.4H491.3C491.492 44.4 491.588 44.496 491.588 44.688V45.912ZM493.504 57C493.312 57 493.216 56.904 493.216 56.712V44.688C493.216 44.496 493.312 44.4 493.504 44.4H495.016C495.208 44.4 495.304 44.496 495.304 44.688V56.712C495.304 56.904 495.208 57 495.016 57H493.504ZM506.459 45.912C506.459 46.104 506.363 46.2 506.171 46.2H500.123C500.051 46.2 500.015 46.236 500.015 46.308V49.638C500.015 49.71 500.051 49.746 500.123 49.746H504.155C504.347 49.746 504.443 49.842 504.443 50.034V51.258C504.443 51.45 504.347 51.546 504.155 51.546H500.123C500.051 51.546 500.015 51.582 500.015 51.654V55.092C500.015 55.164 500.051 55.2 500.123 55.2H506.171C506.363 55.2 506.459 55.296 506.459 55.488V56.712C506.459 56.904 506.363 57 506.171 57H498.215C498.023 57 497.927 56.904 497.927 56.712V44.688C497.927 44.496 498.023 44.4 498.215 44.4H506.171C506.363 44.4 506.459 44.496 506.459 44.688V45.912ZM508.868 57C508.676 57 508.58 56.904 508.58 56.712V44.688C508.58 44.496 508.676 44.4 508.868 44.4H513.188C514.04 44.4 514.79 44.55 515.438 44.85C516.086 45.15 516.584 45.582 516.932 46.146C517.292 46.698 517.472 47.346 517.472 48.09V53.31C517.472 54.054 517.292 54.708 516.932 55.272C516.584 55.824 516.086 56.25 515.438 56.55C514.79 56.85 514.04 57 513.188 57H508.868ZM510.668 55.092C510.668 55.164 510.704 55.2 510.776 55.2H513.278C513.914 55.2 514.418 55.002 514.79 54.606C515.174 54.198 515.372 53.658 515.384 52.986V48.432C515.384 47.748 515.192 47.208 514.808 46.812C514.424 46.404 513.908 46.2 513.26 46.2H510.776C510.704 46.2 510.668 46.236 510.668 46.308V55.092Z" fill="#2A2A2A"/>
<path d="M439.526 57.144C438.626 57.144 437.834 56.97 437.15 56.622C436.466 56.262 435.938 55.764 435.566 55.128C435.194 54.492 435.008 53.754 435.008 52.914V48.468C435.008 47.628 435.194 46.89 435.566 46.254C435.938 45.618 436.466 45.126 437.15 44.778C437.834 44.43 438.626 44.256 439.526 44.256C440.414 44.256 441.2 44.424 441.884 44.76C442.568 45.096 443.096 45.57 443.468 46.182C443.84 46.794 444.026 47.502 444.026 48.306C444.026 48.426 443.936 48.498 443.756 48.522L442.226 48.612H442.154C442.01 48.612 441.938 48.582 441.938 48.522V48.414C441.938 47.706 441.716 47.136 441.272 46.704C440.84 46.272 440.258 46.056 439.526 46.056C438.794 46.056 438.206 46.272 437.762 46.704C437.318 47.136 437.096 47.706 437.096 48.414V53.004C437.096 53.7 437.318 54.264 437.762 54.696C438.206 55.128 438.794 55.344 439.526 55.344C440.258 55.344 440.84 55.134 441.272 54.714C441.716 54.282 441.938 53.712 441.938 53.004C441.938 52.944 441.962 52.896 442.01 52.86C442.07 52.812 442.142 52.794 442.226 52.806L443.738 52.878C443.93 52.902 444.026 52.932 444.026 52.968V53.058C444.026 53.874 443.84 54.594 443.468 55.218C443.096 55.83 442.568 56.304 441.884 56.64C441.2 56.976 440.414 57.144 439.526 57.144ZM454.797 45.912C454.797 46.104 454.701 46.2 454.509 46.2H448.461C448.389 46.2 448.353 46.236 448.353 46.308V49.638C448.353 49.71 448.389 49.746 448.461 49.746H452.493C452.685 49.746 452.781 49.842 452.781 50.034V51.258C452.781 51.45 452.685 51.546 452.493 51.546H448.461C448.389 51.546 448.353 51.582 448.353 51.654V55.092C448.353 55.164 448.389 55.2 448.461 55.2H454.509C454.701 55.2 454.797 55.296 454.797 55.488V56.712C454.797 56.904 454.701 57 454.509 57H446.553C446.361 57 446.265 56.904 446.265 56.712V44.688C446.265 44.496 446.361 44.4 446.553 44.4H454.509C454.701 44.4 454.797 44.496 454.797 44.688V45.912ZM464.046 57C463.878 57 463.764 56.928 463.704 56.784L461.346 51.636C461.334 51.588 461.292 51.564 461.22 51.564H459.114C459.042 51.564 459.006 51.6 459.006 51.672V56.712C459.006 56.904 458.91 57 458.718 57H457.206C457.014 57 456.918 56.904 456.918 56.712V44.67C456.918 44.478 457.014 44.382 457.206 44.382H462.084C462.816 44.382 463.464 44.538 464.028 44.85C464.592 45.15 465.03 45.582 465.342 46.146C465.654 46.698 465.81 47.334 465.81 48.054C465.81 48.882 465.594 49.59 465.162 50.178C464.742 50.754 464.16 51.15 463.416 51.366C463.38 51.378 463.356 51.402 463.344 51.438C463.332 51.462 463.338 51.486 463.362 51.51L465.846 56.658L465.882 56.802C465.882 56.934 465.798 57 465.63 57H464.046ZM459.114 46.182C459.042 46.182 459.006 46.218 459.006 46.29V49.836C459.006 49.908 459.042 49.944 459.114 49.944H461.796C462.372 49.944 462.834 49.776 463.182 49.44C463.542 49.092 463.722 48.642 463.722 48.09C463.722 47.526 463.542 47.07 463.182 46.722C462.834 46.362 462.372 46.182 461.796 46.182H459.114ZM476.147 44.4C476.339 44.4 476.435 44.496 476.435 44.688V45.93C476.435 46.122 476.339 46.218 476.147 46.218H472.925C472.853 46.218 472.817 46.254 472.817 46.326V56.712C472.817 56.904 472.721 57 472.529 57H471.017C470.825 57 470.729 56.904 470.729 56.712V46.326C470.729 46.254 470.693 46.218 470.621 46.218H467.525C467.333 46.218 467.237 46.122 467.237 45.93V44.688C467.237 44.496 467.333 44.4 467.525 44.4H476.147ZM478.651 57C478.459 57 478.363 56.904 478.363 56.712V44.688C478.363 44.496 478.459 44.4 478.651 44.4H480.163C480.355 44.4 480.451 44.496 480.451 44.688V56.712C480.451 56.904 480.355 57 480.163 57H478.651ZM491.588 45.912C491.588 46.104 491.492 46.2 491.3 46.2H485.27C485.198 46.2 485.162 46.236 485.162 46.308V49.638C485.162 49.71 485.198 49.746 485.27 49.746H489.302C489.494 49.746 489.59 49.842 489.59 50.034V51.258C489.59 51.45 489.494 51.546 489.302 51.546H485.27C485.198 51.546 485.162 51.582 485.162 51.654V56.712C485.162 56.904 485.066 57 484.874 57H483.362C483.17 57 483.074 56.904 483.074 56.712V44.688C483.074 44.496 483.17 44.4 483.362 44.4H491.3C491.492 44.4 491.588 44.496 491.588 44.688V45.912ZM493.504 57C493.312 57 493.216 56.904 493.216 56.712V44.688C493.216 44.496 493.312 44.4 493.504 44.4H495.016C495.208 44.4 495.304 44.496 495.304 44.688V56.712C495.304 56.904 495.208 57 495.016 57H493.504ZM506.459 45.912C506.459 46.104 506.363 46.2 506.171 46.2H500.123C500.051 46.2 500.015 46.236 500.015 46.308V49.638C500.015 49.71 500.051 49.746 500.123 49.746H504.155C504.347 49.746 504.443 49.842 504.443 50.034V51.258C504.443 51.45 504.347 51.546 504.155 51.546H500.123C500.051 51.546 500.015 51.582 500.015 51.654V55.092C500.015 55.164 500.051 55.2 500.123 55.2H506.171C506.363 55.2 506.459 55.296 506.459 55.488V56.712C506.459 56.904 506.363 57 506.171 57H498.215C498.023 57 497.927 56.904 497.927 56.712V44.688C497.927 44.496 498.023 44.4 498.215 44.4H506.171C506.363 44.4 506.459 44.496 506.459 44.688V45.912ZM508.868 57C508.676 57 508.58 56.904 508.58 56.712V44.688C508.58 44.496 508.676 44.4 508.868 44.4H513.188C514.04 44.4 514.79 44.55 515.438 44.85C516.086 45.15 516.584 45.582 516.932 46.146C517.292 46.698 517.472 47.346 517.472 48.09V53.31C517.472 54.054 517.292 54.708 516.932 55.272C516.584 55.824 516.086 56.25 515.438 56.55C514.79 56.85 514.04 57 513.188 57H508.868ZM510.668 55.092C510.668 55.164 510.704 55.2 510.776 55.2H513.278C513.914 55.2 514.418 55.002 514.79 54.606C515.174 54.198 515.372 53.658 515.384 52.986V48.432C515.384 47.748 515.192 47.208 514.808 46.812C514.424 46.404 513.908 46.2 513.26 46.2H510.776C510.704 46.2 510.668 46.236 510.668 46.308V55.092Z" fill="black" fill-opacity="0.2"/>
<defs>
<linearGradient id="paint0_linear_872_32000" x1="26" y1="60.25" x2="77.5036" y2="55.6743" gradientUnits="userSpaceOnUse">
<stop stop-color="#048467"/>
<stop offset="1" stop-color="#064871"/>
</linearGradient>
<linearGradient id="paint1_linear_872_32000" x1="135.5" y1="57.8" x2="176.703" y2="54.1394" gradientUnits="userSpaceOnUse">
<stop stop-color="#723390"/>
<stop offset="1" stop-color="#8C384F"/>
</linearGradient>
<linearGradient id="paint2_linear_872_32000" x1="240" y1="57.8" x2="281.203" y2="54.1394" gradientUnits="userSpaceOnUse">
<stop stop-color="#065D6E"/>
<stop offset="0.0001" stop-color="#06596E"/>
<stop offset="1" stop-color="#3E3B91"/>
</linearGradient>
<linearGradient id="paint3_linear_872_32000" x1="426" y1="26.6289" x2="322.705" y2="34.9679" gradientUnits="userSpaceOnUse">
<stop stop-color="#FFC43D"/>
<stop offset="1" stop-color="#EF476F"/>
</linearGradient>
</defs>
</svg>
