<svg width="16" height="16" viewBox="0 0 16 16" fill="none" xmlns="http://www.w3.org/2000/svg">
<path fill-rule="evenodd" clip-rule="evenodd" d="M8 1.33333C11.676 1.33333 14.6667 4.324 14.6667 8C14.6667 11.676 11.676 14.6667 8 14.6667C4.324 14.6667 1.33333 11.676 1.33333 8C1.33333 4.324 4.324 1.33333 8 1.33333ZM8 0C3.582 0 0 3.582 0 8C0 12.418 3.582 16 8 16C12.418 16 16 12.418 16 8C16 3.582 12.418 0 8 0ZM8 4.72135C9.068 4.72135 9.19466 4.72535 9.61666 4.74469C10.7013 4.79402 11.2067 5.30802 11.2567 6.38402C11.2753 6.80602 11.2793 6.93202 11.2793 8.00002C11.2793 9.06802 11.2753 9.19469 11.2567 9.61602C11.2067 10.6914 10.702 11.2067 9.61666 11.256C9.19466 11.2747 9.06866 11.2794 8 11.2794C6.932 11.2794 6.80533 11.2754 6.384 11.256C5.29733 11.206 4.794 10.69 4.744 9.61602C4.72533 9.19469 4.72066 9.06802 4.72066 8.00002C4.72066 6.93202 4.72533 6.80535 4.744 6.38402C4.79333 5.30735 5.29866 4.79335 6.384 4.74402C6.80533 4.72469 6.932 4.72135 8 4.72135ZM8 4C6.91333 4 6.778 4.00467 6.35067 4.02467C4.89733 4.09133 4.09067 4.89733 4.024 6.35067C4.00467 6.778 4 6.914 4 8C4 9.08667 4.00467 9.22267 4.024 9.64933C4.09067 11.102 4.89733 11.9093 6.35067 11.976C6.778 11.9953 6.91333 12 8 12C9.08667 12 9.22267 11.9953 9.65 11.976C11.1007 11.9093 11.9107 11.1033 11.976 9.64933C11.9953 9.22267 12 9.08667 12 8C12 6.914 11.9953 6.778 11.976 6.35067C11.9107 4.89933 11.1033 4.09067 9.65 4.02467C9.22267 4.00467 9.08667 4 8 4ZM8 5.94596C6.866 5.94596 5.946 6.8653 5.946 7.99996C5.946 9.13463 6.866 10.054 8 10.054C9.134 10.054 10.054 9.13463 10.054 7.99996C10.054 6.86596 9.134 5.94596 8 5.94596ZM8 9.33333C7.26333 9.33333 6.66667 8.73667 6.66667 8C6.66667 7.264 7.26333 6.66667 8 6.66667C8.736 6.66667 9.334 7.26333 9.334 8C9.334 8.73667 8.736 9.33333 8 9.33333ZM10.1347 5.38534C9.87 5.38534 9.65466 5.6 9.65466 5.86534C9.65466 6.13 9.86933 6.34534 10.1347 6.34534C10.4 6.34534 10.6153 6.13067 10.6153 5.86534C10.6153 5.6 10.4007 5.38534 10.1347 5.38534Z" fill="#767676"/>
</svg>
