<svg width="16" height="16" viewBox="0 0 16 16" fill="none" xmlns="http://www.w3.org/2000/svg">
    <path fill-rule="evenodd" clip-rule="evenodd" d="M8 1.33333C11.676 1.33333 14.6667 4.324 14.6667 8C14.6667 11.676 11.676 14.6667 8 14.6667C4.324 14.6667 1.33333 11.676 1.33333 8C1.33333 4.324 4.324 1.33333 8 1.33333ZM8 0C3.582 0 0 3.582 0 8C0 12.418 3.582 16 8 16C12.418 16 16 12.418 16 8C16 3.582 12.418 0 8 0ZM6.66667 6.66667H5.33333V8H6.66667V12H8.66667V8H9.88L10 6.66667H8.66667V6.11133C8.66667 5.79267 8.73067 5.66667 9.03867 5.66667H10V4H8.39733C7.19867 4 6.66667 4.528 6.66667 5.53867V6.66667Z" fill="#767676"/>
</svg>
