<svg width="16" height="16" viewBox="0 0 16 16" fill="none" xmlns="http://www.w3.org/2000/svg">
<path fill-rule="evenodd" clip-rule="evenodd" d="M8 1.33333C11.676 1.33333 14.6667 4.324 14.6667 8C14.6667 11.676 11.676 14.6667 8 14.6667C4.324 14.6667 1.33333 11.676 1.33333 8C1.33333 4.324 4.324 1.33333 8 1.33333ZM8 0C3.582 0 0 3.582 0 8C0 12.418 3.582 16 8 16C12.418 16 16 12.418 16 8C16 3.582 12.418 0 8 0ZM6.66667 5.3333C6.66667 5.70463 6.36867 6.0053 6 6.0053C5.63133 6.0053 5.33333 5.7053 5.33333 5.3333C5.33333 4.96196 5.63133 4.6613 6 4.6613C6.36867 4.6613 6.66667 4.96263 6.66667 5.3333ZM6.66667 6.66667H5.33333V10.6667H6.66667V6.66667ZM8.66667 6.66669H7.33333V10.6667H8.66667V8.75935C8.66667 7.61135 10.0013 7.50535 10.0013 8.75935V10.6667H11.3333V8.42735C11.3333 6.23802 9.248 6.31802 8.66667 7.39535V6.66669Z" fill="#767676"/>
</svg>
