<svg width="16" height="16" viewBox="0 0 16 16" fill="none" xmlns="http://www.w3.org/2000/svg">
<path fill-rule="evenodd" clip-rule="evenodd" d="M10.82 4.73466C9.48534 4.64399 6.51201 4.64466 5.17934 4.73466C3.73601 4.83333 3.56667 5.70533 3.55534 7.99999C3.56667 10.2907 3.73534 11.1667 5.18001 11.2653C6.51267 11.3553 9.486 11.356 10.8207 11.2653C12.264 11.1667 12.434 10.294 12.4453 7.99999C12.4333 5.70933 12.2647 4.83333 10.82 4.73466ZM6.66667 9.4813V6.51864L9.852 7.9973L6.66667 9.4813ZM8 1.33333C11.676 1.33333 14.6667 4.324 14.6667 8C14.6667 11.676 11.676 14.6667 8 14.6667C4.324 14.6667 1.33333 11.676 1.33333 8C1.33333 4.324 4.324 1.33333 8 1.33333ZM8 0C3.582 0 0 3.582 0 8C0 12.418 3.582 16 8 16C12.418 16 16 12.418 16 8C16 3.582 12.418 0 8 0Z" fill="#767676"/>
</svg>
