<svg width="32" height="32" viewBox="0 0 32 32" fill="none" xmlns="http://www.w3.org/2000/svg">
<path d="M0 16C0 7.16344 7.16344 0 16 0C24.8366 0 32 7.16344 32 16C32 24.8366 24.8366 32 16 32C7.16344 32 0 24.8366 0 16Z" fill="url(#paint0_linear_908_12580)"/>
<path d="M15.6031 8.90539C15.849 8.76485 16.1509 8.76485 16.3969 8.90539L17.7969 9.70539C18.1805 9.9246 18.3138 10.4133 18.0946 10.7969C17.8754 11.1805 17.3867 11.3138 17.0031 11.0946L16 10.5214L14.9969 11.0946C14.6133 11.3138 14.1246 11.1805 13.9054 10.7969C13.6862 10.4133 13.8194 9.9246 14.2031 9.70539L15.6031 8.90539Z" fill="white"/>
<path d="M12.4946 11.6031C12.7138 11.9867 12.5805 12.4754 12.1969 12.6946L12.0124 12.8L12.1969 12.9054C12.5805 13.1246 12.7138 13.6133 12.4946 13.9969C12.2754 14.3805 11.7867 14.5138 11.4031 14.2946L11.2 14.1785V14.4C11.2 14.8418 10.8418 15.2 10.4 15.2C9.95815 15.2 9.59998 14.8418 9.59998 14.4V12.8C9.59998 12.6 9.67336 12.4171 9.79467 12.2769C9.82239 12.2448 9.85276 12.2148 9.88557 12.1873C9.92601 12.1533 9.96986 12.1232 10.0165 12.0977L11.4031 11.3054C11.7867 11.0862 12.2754 11.2195 12.4946 11.6031Z" fill="white"/>
<path d="M19.5054 11.6031C19.7246 11.2195 20.2133 11.0862 20.5969 11.3054L21.9834 12.0977C22.0301 12.1232 22.0739 12.1533 22.1144 12.1873C22.289 12.334 22.4 12.554 22.4 12.8V14.4C22.4 14.8418 22.0418 15.2 21.6 15.2C21.1581 15.2 20.8 14.8418 20.8 14.4V14.1785L20.5969 14.2946C20.2133 14.5138 19.7246 14.3805 19.5054 13.9969C19.2862 13.6133 19.4194 13.1246 19.8031 12.9054L19.9875 12.8L19.8031 12.6946C19.4194 12.4754 19.2862 11.9867 19.5054 11.6031Z" fill="white"/>
<path d="M13.9054 14.8031C14.1246 14.4195 14.6133 14.2862 14.9969 14.5054L16 15.0786L17.0031 14.5054C17.3867 14.2862 17.8754 14.4195 18.0946 14.8031C18.3138 15.1867 18.1805 15.6754 17.7969 15.8946L16.8 16.4642V17.6C16.8 18.0418 16.4418 18.4 16 18.4C15.5581 18.4 15.2 18.0418 15.2 17.6V16.4642L14.2031 15.8946C13.8194 15.6754 13.6862 15.1867 13.9054 14.8031Z" fill="white"/>
<path d="M10.4 16.8C10.8418 16.8 11.2 17.1582 11.2 17.6V18.7357L12.1969 19.3054C12.5805 19.5246 12.7138 20.0133 12.4946 20.3969C12.2754 20.7805 11.7867 20.9138 11.4031 20.6946L10.0031 19.8946C9.7538 19.7521 9.59998 19.4871 9.59998 19.2V17.6C9.59998 17.1582 9.95815 16.8 10.4 16.8Z" fill="white"/>
<path d="M21.6 16.8C22.0418 16.8 22.4 17.1582 22.4 17.6V19.2C22.4 19.4871 22.2461 19.7521 21.9969 19.8946L20.5969 20.6946C20.2133 20.9138 19.7246 20.7805 19.5054 20.3969C19.2862 20.0133 19.4194 19.5246 19.8031 19.3054L20.8 18.7357V17.6C20.8 17.1582 21.1581 16.8 21.6 16.8Z" fill="white"/>
<path d="M13.9054 21.2031C14.1246 20.8195 14.6133 20.6862 14.9969 20.9054L15.2 21.0214V20.8C15.2 20.3582 15.5581 20 16 20C16.4418 20 16.8 20.3582 16.8 20.8V21.0214L17.0031 20.9054C17.3867 20.6862 17.8754 20.8195 18.0946 21.2031C18.3138 21.5867 18.1805 22.0754 17.7969 22.2946L16.409 23.0876C16.2893 23.159 16.1494 23.2 16 23.2C15.8505 23.2 15.7106 23.159 15.5909 23.0876L14.2031 22.2946C13.8194 22.0754 13.6862 21.5867 13.9054 21.2031Z" fill="white"/>
<defs>
<linearGradient id="paint0_linear_908_12580" x1="-9.96235e-08" y1="23.84" x2="32.9623" y2="20.9115" gradientUnits="userSpaceOnUse">
<stop stop-color="#723390"/>
<stop offset="1" stop-color="#8C384F"/>
</linearGradient>
</defs>
</svg>
