<svg width="32" height="32" viewBox="0 0 32 32" fill="none" xmlns="http://www.w3.org/2000/svg">
<path d="M0 16C0 7.16344 7.16344 0 16 0V0C24.8366 0 32 7.16344 32 16V16C32 24.8366 24.8366 32 16 32V32C7.16344 32 0 24.8366 0 16V16Z" fill="url(#paint0_linear_908_12684)"/>
<path fill-rule="evenodd" clip-rule="evenodd" d="M17.853 10.4411C18.2722 10.5808 18.4987 11.0338 18.359 11.453L15.159 21.053C15.0193 21.4721 14.5662 21.6987 14.1471 21.5589C13.7279 21.4192 13.5014 20.9662 13.6411 20.547L16.8411 10.947C16.9808 10.5279 17.4339 10.3013 17.853 10.4411ZM12.5657 13.0343C12.8782 13.3467 12.8782 13.8533 12.5657 14.1657L10.7314 16L12.5657 17.8343C12.8782 18.1467 12.8782 18.6533 12.5657 18.9657C12.2533 19.2781 11.7468 19.2781 11.4344 18.9657L9.03436 16.5657C8.72194 16.2533 8.72194 15.7467 9.03436 15.4343L11.4344 13.0343C11.7468 12.7219 12.2533 12.7219 12.5657 13.0343ZM19.4344 13.0343C19.7468 12.7219 20.2533 12.7219 20.5657 13.0343L22.9657 15.4343C23.2782 15.7467 23.2782 16.2533 22.9657 16.5657L20.5657 18.9657C20.2533 19.2781 19.7468 19.2781 19.4344 18.9657C19.1219 18.6533 19.1219 18.1467 19.4344 17.8343L21.2687 16L19.4344 14.1657C19.1219 13.8533 19.1219 13.3467 19.4344 13.0343Z" fill="white"/>
<defs>
<linearGradient id="paint0_linear_908_12684" x1="-9.96235e-08" y1="23.84" x2="32.9623" y2="20.9115" gradientUnits="userSpaceOnUse">
<stop stop-color="#048467"/>
<stop offset="1" stop-color="#064871"/>
</linearGradient>
</defs>
</svg>
