<svg width="48" height="48" viewBox="0 0 48 48" fill="none" xmlns="http://www.w3.org/2000/svg">
<path d="M0 24C0 10.7452 10.7452 0 24 0C37.2549 0 48 10.7452 48 24C48 37.2549 37.2549 48 24 48C10.7452 48 0 37.2549 0 24Z" fill="url(#paint0_linear_5_8)"/>
<path d="M23.4046 13.3581C23.7735 13.1473 24.2263 13.1473 24.5953 13.3581L26.6953 14.5581C27.2707 14.8869 27.4707 15.62 27.1419 16.1954C26.8131 16.7708 26.08 16.9707 25.5046 16.6419L24 15.7821L22.4953 16.6419C21.9199 16.9707 21.1869 16.7708 20.8581 16.1954C20.5293 15.62 20.7291 14.8869 21.3046 14.5581L23.4046 13.3581Z" fill="white"/>
<path d="M18.7419 17.4047C19.0707 17.9801 18.8707 18.7131 18.2953 19.0419L18.0186 19.2L18.2953 19.3581C18.8707 19.6869 19.0707 20.42 18.7419 20.9954C18.4131 21.5708 17.68 21.7707 17.1046 21.4419L16.8 21.2678V21.6C16.8 22.2627 16.2627 22.8 15.6 22.8C14.9372 22.8 14.4 22.2627 14.4 21.6V19.2C14.4 18.9 14.51 18.6257 14.692 18.4154C14.7336 18.3672 14.7791 18.3222 14.8283 18.281C14.889 18.23 14.9548 18.1848 15.0247 18.1466L17.1046 16.9581C17.68 16.6293 18.4131 16.8293 18.7419 17.4047Z" fill="white"/>
<path d="M29.2581 17.4047C29.5869 16.8293 30.3199 16.6293 30.8953 16.9581L32.9751 18.1466C33.0451 18.1848 33.1108 18.23 33.1716 18.281C33.4335 18.501 33.6 18.831 33.6 19.2V21.6C33.6 22.2627 33.0627 22.8 32.4 22.8C31.7371 22.8 31.2 22.2627 31.2 21.6V21.2678L30.8953 21.4419C30.3199 21.7707 29.5869 21.5708 29.2581 20.9954C28.9293 20.42 29.1291 19.6869 29.7046 19.3581L29.9812 19.2L29.7046 19.0419C29.1291 18.7131 28.9293 17.9801 29.2581 17.4047Z" fill="white"/>
<path d="M20.8581 22.2046C21.1869 21.6292 21.9199 21.4293 22.4953 21.7581L24 22.6179L25.5046 21.7581C26.08 21.4293 26.8131 21.6292 27.1419 22.2046C27.4707 22.78 27.2707 23.5131 26.6953 23.8419L25.2 24.6963V26.4C25.2 27.0627 24.6627 27.6 24 27.6C23.3371 27.6 22.8 27.0627 22.8 26.4V24.6963L21.3046 23.8419C20.7291 23.5131 20.5293 22.78 20.8581 22.2046Z" fill="white"/>
<path d="M15.6 25.2C16.2627 25.2 16.8 25.7373 16.8 26.4V28.1035L18.2953 28.9581C18.8707 29.2869 19.0707 30.0199 18.7419 30.5953C18.4131 31.1707 17.68 31.3707 17.1046 31.0419L15.0046 29.8419C14.6307 29.6281 14.4 29.2306 14.4 28.8V26.4C14.4 25.7373 14.9372 25.2 15.6 25.2Z" fill="white"/>
<path d="M32.4 25.2C33.0627 25.2 33.6 25.7373 33.6 26.4V28.8C33.6 29.2306 33.3691 29.6281 32.9953 29.8419L30.8953 31.0419C30.3199 31.3707 29.5869 31.1707 29.2581 30.5953C28.9293 30.0199 29.1291 29.2869 29.7046 28.9581L31.2 28.1035V26.4C31.2 25.7373 31.7371 25.2 32.4 25.2Z" fill="white"/>
<path d="M20.8581 31.8047C21.1869 31.2293 21.9199 31.0293 22.4953 31.3581L22.8 31.5321V31.2C22.8 30.5373 23.3371 30 24 30C24.6627 30 25.2 30.5373 25.2 31.2V31.5321L25.5046 31.3581C26.08 31.0293 26.8131 31.2293 27.1419 31.8047C27.4707 32.3801 27.2707 33.1131 26.6953 33.4419L24.6135 34.6314C24.4339 34.7385 24.2241 34.8 24 34.8C23.7757 34.8 23.5659 34.7385 23.3863 34.6314L21.3046 33.4419C20.7291 33.1131 20.5293 32.3801 20.8581 31.8047Z" fill="white"/>
<defs>
<linearGradient id="paint0_linear_5_8" x1="-2.22933e-07" y1="35.76" x2="49.4434" y2="31.3672" gradientUnits="userSpaceOnUse">
<stop stop-color="#723390"/>
<stop offset="1" stop-color="#8C384F"/>
</linearGradient>
</defs>
</svg>
