<svg width="283" height="278" viewBox="0 0 283 278" fill="none" xmlns="http://www.w3.org/2000/svg">
<path d="M222.006 68.514L214.337 67.8136L210.831 75.3979L209.597 67.3808L201.928 66.6804L208.834 62.4259L207.6 54.4088L213.103 59.7965L220.009 55.542L216.504 63.1263L222.006 68.514Z" fill="#F9F649"/>
<path opacity="0.5" d="M218.703 243.791L211.348 241.51L206.341 248.199L206.802 240.101L199.446 237.82L207.086 235.096L207.547 226.997L211.808 233.412L219.448 230.687L214.442 237.376L218.703 243.791Z" fill="#F9F649"/>
<path d="M57.7753 80.325L53.0718 74.2271L45.128 76.8167L50.165 70.4584L45.4615 64.3606L53.278 66.5288L58.3149 60.1706L58.1088 67.8689L65.9252 70.0371L57.9814 72.6267L57.7753 80.325Z" fill="#F9F649"/>
<path opacity="0.5" d="M11.0269 128.591L15.8635 134.584L23.7483 131.82L18.8526 138.288L23.6891 144.281L15.8269 142.285L10.9311 148.753L10.9677 141.052L3.10545 139.056L10.9903 136.292L11.0269 128.591Z" fill="#F9F649"/>
<path opacity="0.5" d="M132.164 2.08569L135.648 8.95355L143.935 7.89051L137.801 13.1981L141.285 20.066L134.01 16.4784L127.876 21.786L129.514 14.2612L122.239 10.6736L130.526 9.61054L132.164 2.08569Z" fill="#F9F649"/>
<path d="M135.989 255.106L137.516 262.654L145.787 263.839L138.46 267.319L139.987 274.867L133.932 269.47L126.605 272.95L130.189 266.134L124.134 260.737L132.404 261.922L135.989 255.106Z" fill="#F9F649"/>
<path d="M83.3609 97.6304L84.8881 105.179L93.1589 106.363L85.832 109.843L87.3592 117.392L81.3036 111.994L73.9767 115.475L77.5611 108.659L71.5056 103.262L79.7764 104.446L83.3609 97.6304Z" fill="#FFD84D"/>
<path d="M266.361 37.6304L267.888 45.1785L276.159 46.3631L268.832 49.8435L270.359 57.3916L264.304 51.9945L256.977 55.4749L260.561 48.6589L254.506 43.2618L262.776 44.4464L266.361 37.6304Z" fill="#F9F649"/>
<path d="M222.006 68.514L214.337 67.8136L210.831 75.3979L209.597 67.3808L201.928 66.6804L208.834 62.4259L207.6 54.4088L213.103 59.7965L220.009 55.542L216.504 63.1263L222.006 68.514Z" fill="#FFD84D"/>
<path opacity="0.5" d="M247.556 109.842L244.95 102.595L236.594 102.623L243.339 98.1166L240.733 90.8699L247.507 95.3314L254.252 90.8249L251.694 98.0888L258.469 102.55L250.113 102.578L247.556 109.842Z" fill="#F9F649"/>
<path d="M275.703 228.791L268.348 226.51L263.341 233.199L263.802 225.101L256.446 222.82L264.086 220.096L264.547 211.997L268.808 218.412L276.448 215.687L271.442 222.376L275.703 228.791Z" fill="#F9F649"/>
<path opacity="0.5" d="M133.703 217.791L126.348 215.51L121.341 222.199L121.802 214.101L114.446 211.82L122.086 209.096L122.547 200.997L126.808 207.412L134.448 204.687L129.442 211.376L133.703 217.791Z" fill="#F9F649"/>
<path d="M80.5699 184.038L77.9638 176.792L69.6087 176.819L76.3532 172.313L73.7472 165.066L80.5216 169.528L87.2662 165.021L84.7084 172.285L91.4828 176.747L83.1276 176.774L80.5699 184.038Z" fill="#F9F649"/>
<path d="M138.57 74.0383L135.964 66.7916L127.609 66.8194L134.353 62.3129L131.747 55.0662L138.522 59.5277L145.266 55.0212L142.708 62.2851L149.483 66.7466L141.128 66.7744L138.57 74.0383Z" fill="#F9F649"/>
<path d="M60.5699 237.038L57.9638 229.792L49.6087 229.819L56.3532 225.313L53.7472 218.066L60.5216 222.528L67.2662 218.021L64.7084 225.285L71.4828 229.747L63.1276 229.774L60.5699 237.038Z" fill="#F9F649"/>
<path d="M215.57 209.038L212.964 201.792L204.609 201.819L211.353 197.313L208.747 190.066L215.522 194.528L222.266 190.021L219.708 197.285L226.483 201.747L218.128 201.774L215.57 209.038Z" fill="#FFD84D"/>
</svg>
