<svg width="128" height="37" viewBox="0 0 128 37" fill="none" xmlns="http://www.w3.org/2000/svg">
<path d="M46.7351 4.16416C46.7942 4.16416 46.8414 4.18777 46.8768 4.23501C46.9241 4.27043 46.9477 4.31766 46.9477 4.37671V4.78409C46.9477 4.84313 46.9241 4.89626 46.8768 4.9435C46.8414 4.97892 46.7942 4.99663 46.7351 4.99663H43.2281C43.1809 4.99663 43.1573 5.02025 43.1573 5.06748V16.3502C43.1573 16.4092 43.1337 16.4624 43.0864 16.5096C43.051 16.545 43.0038 16.5627 42.9447 16.5627H42.4311C42.372 16.5627 42.3189 16.545 42.2717 16.5096C42.2362 16.4624 42.2185 16.4092 42.2185 16.3502V5.06748C42.2185 5.02025 42.1949 4.99663 42.1477 4.99663H38.8178C38.7587 4.99663 38.7056 4.97892 38.6584 4.9435C38.6229 4.89626 38.6052 4.84313 38.6052 4.78409V4.37671C38.6052 4.31766 38.6229 4.27043 38.6584 4.23501C38.7056 4.18777 38.7587 4.16416 38.8178 4.16416H46.7351Z" fill="#2A2A2A"/>
<path d="M46.7351 4.16416C46.7942 4.16416 46.8414 4.18777 46.8768 4.23501C46.9241 4.27043 46.9477 4.31766 46.9477 4.37671V4.78409C46.9477 4.84313 46.9241 4.89626 46.8768 4.9435C46.8414 4.97892 46.7942 4.99663 46.7351 4.99663H43.2281C43.1809 4.99663 43.1573 5.02025 43.1573 5.06748V16.3502C43.1573 16.4092 43.1337 16.4624 43.0864 16.5096C43.051 16.545 43.0038 16.5627 42.9447 16.5627H42.4311C42.372 16.5627 42.3189 16.545 42.2717 16.5096C42.2362 16.4624 42.2185 16.4092 42.2185 16.3502V5.06748C42.2185 5.02025 42.1949 4.99663 42.1477 4.99663H38.8178C38.7587 4.99663 38.7056 4.97892 38.6584 4.9435C38.6229 4.89626 38.6052 4.84313 38.6052 4.78409V4.37671C38.6052 4.31766 38.6229 4.27043 38.6584 4.23501C38.7056 4.18777 38.7587 4.16416 38.8178 4.16416H46.7351Z" fill="black" fill-opacity="0.2"/>
<path d="M52.4862 16.7044C51.6715 16.7044 50.9512 16.5391 50.3253 16.2085C49.7113 15.866 49.2331 15.3937 48.8906 14.7915C48.56 14.1775 48.3947 13.4749 48.3947 12.6837V8.04314C48.3947 7.25199 48.56 6.55531 48.8906 5.95309C49.2331 5.33907 49.7113 4.86674 50.3253 4.53612C50.9512 4.19368 51.6715 4.02246 52.4862 4.02246C53.301 4.02246 54.0213 4.19368 54.6471 4.53612C55.2729 4.86674 55.7571 5.33907 56.0995 5.95309C56.442 6.55531 56.6132 7.25199 56.6132 8.04314V12.6837C56.6132 13.4749 56.442 14.1775 56.0995 14.7915C55.7571 15.3937 55.2729 15.866 54.6471 16.2085C54.0213 16.5391 53.301 16.7044 52.4862 16.7044ZM52.4862 15.8897C53.4427 15.8897 54.2102 15.6004 54.7888 15.0218C55.3792 14.4432 55.6744 13.6756 55.6744 12.7192V8.02543C55.6744 7.08077 55.3792 6.31915 54.7888 5.74055C54.2102 5.15014 53.4427 4.85494 52.4862 4.85494C51.5416 4.85494 50.7799 5.15014 50.2013 5.74055C49.6227 6.31915 49.3334 7.08077 49.3334 8.02543V12.7192C49.3334 13.6756 49.6227 14.4432 50.2013 15.0218C50.7799 15.6004 51.5416 15.8897 52.4862 15.8897Z" fill="#2A2A2A"/>
<path d="M52.4862 16.7044C51.6715 16.7044 50.9512 16.5391 50.3253 16.2085C49.7113 15.866 49.2331 15.3937 48.8906 14.7915C48.56 14.1775 48.3947 13.4749 48.3947 12.6837V8.04314C48.3947 7.25199 48.56 6.55531 48.8906 5.95309C49.2331 5.33907 49.7113 4.86674 50.3253 4.53612C50.9512 4.19368 51.6715 4.02246 52.4862 4.02246C53.301 4.02246 54.0213 4.19368 54.6471 4.53612C55.2729 4.86674 55.7571 5.33907 56.0995 5.95309C56.442 6.55531 56.6132 7.25199 56.6132 8.04314V12.6837C56.6132 13.4749 56.442 14.1775 56.0995 14.7915C55.7571 15.3937 55.2729 15.866 54.6471 16.2085C54.0213 16.5391 53.301 16.7044 52.4862 16.7044ZM52.4862 15.8897C53.4427 15.8897 54.2102 15.6004 54.7888 15.0218C55.3792 14.4432 55.6744 13.6756 55.6744 12.7192V8.02543C55.6744 7.08077 55.3792 6.31915 54.7888 5.74055C54.2102 5.15014 53.4427 4.85494 52.4862 4.85494C51.5416 4.85494 50.7799 5.15014 50.2013 5.74055C49.6227 6.31915 49.3334 7.08077 49.3334 8.02543V12.7192C49.3334 13.6756 49.6227 14.4432 50.2013 15.0218C50.7799 15.6004 51.5416 15.8897 52.4862 15.8897Z" fill="black" fill-opacity="0.2"/>
<path d="M64.5672 4.12873C65.5709 4.12873 66.3798 4.44165 66.9938 5.06748C67.6078 5.68151 67.9148 6.49627 67.9148 7.51177C67.9148 8.51546 67.6019 9.32432 66.9761 9.93835C66.362 10.5524 65.5473 10.8594 64.5318 10.8594H60.8476C60.8004 10.8594 60.7768 10.883 60.7768 10.9302V16.3502C60.7768 16.4092 60.7532 16.4624 60.7059 16.5096C60.6705 16.545 60.6233 16.5627 60.5642 16.5627H60.0506C59.9915 16.5627 59.9384 16.545 59.8912 16.5096C59.8558 16.4624 59.838 16.4092 59.838 16.3502V4.34128C59.838 4.28224 59.8558 4.23501 59.8912 4.19958C59.9384 4.15235 59.9915 4.12873 60.0506 4.12873H64.5672ZM64.4964 10.0623C65.2403 10.0623 65.8366 9.83207 66.2853 9.37156C66.7458 8.89923 66.9761 8.2852 66.9761 7.52948C66.9761 6.76195 66.7458 6.14793 66.2853 5.68741C65.8366 5.21508 65.2403 4.97892 64.4964 4.97892H60.8476C60.8004 4.97892 60.7768 5.00254 60.7768 5.04977V9.99148C60.7768 10.0387 60.8004 10.0623 60.8476 10.0623H64.4964Z" fill="#2A2A2A"/>
<path d="M64.5672 4.12873C65.5709 4.12873 66.3798 4.44165 66.9938 5.06748C67.6078 5.68151 67.9148 6.49627 67.9148 7.51177C67.9148 8.51546 67.6019 9.32432 66.9761 9.93835C66.362 10.5524 65.5473 10.8594 64.5318 10.8594H60.8476C60.8004 10.8594 60.7768 10.883 60.7768 10.9302V16.3502C60.7768 16.4092 60.7532 16.4624 60.7059 16.5096C60.6705 16.545 60.6233 16.5627 60.5642 16.5627H60.0506C59.9915 16.5627 59.9384 16.545 59.8912 16.5096C59.8558 16.4624 59.838 16.4092 59.838 16.3502V4.34128C59.838 4.28224 59.8558 4.23501 59.8912 4.19958C59.9384 4.15235 59.9915 4.12873 60.0506 4.12873H64.5672ZM64.4964 10.0623C65.2403 10.0623 65.8366 9.83207 66.2853 9.37156C66.7458 8.89923 66.9761 8.2852 66.9761 7.52948C66.9761 6.76195 66.7458 6.14793 66.2853 5.68741C65.8366 5.21508 65.2403 4.97892 64.4964 4.97892H60.8476C60.8004 4.97892 60.7768 5.00254 60.7768 5.04977V9.99148C60.7768 10.0387 60.8004 10.0623 60.8476 10.0623H64.4964Z" fill="black" fill-opacity="0.2"/>
<path d="M74.1999 16.7221C73.3969 16.7221 72.6885 16.5627 72.0744 16.2439C71.4604 15.9251 70.9822 15.4764 70.6397 14.8978C70.3091 14.3074 70.1438 13.6343 70.1438 12.8786V7.83059C70.1438 7.07487 70.3091 6.41361 70.6397 5.84682C70.9822 5.26822 71.4604 4.81951 72.0744 4.50069C72.6885 4.18187 73.3969 4.02246 74.1999 4.02246C74.991 4.02246 75.6936 4.18187 76.3077 4.50069C76.9217 4.8077 77.394 5.2446 77.7246 5.8114C78.0671 6.37819 78.2383 7.03354 78.2383 7.77745C78.2383 7.8365 78.2147 7.88963 78.1674 7.93686C78.132 7.97229 78.0848 7.99 78.0257 7.99L77.5121 8.00771C77.3704 8.00771 77.2995 7.97229 77.2995 7.90144V7.79517C77.2995 6.90955 77.0161 6.20107 76.4494 5.6697C75.8826 5.12652 75.1327 4.85494 74.1999 4.85494C73.2552 4.85494 72.4995 5.12652 71.9327 5.6697C71.3659 6.20107 71.0825 6.90955 71.0825 7.79517V12.9317C71.0825 13.8173 71.3659 14.5317 71.9327 15.0749C72.5113 15.6181 73.2671 15.8897 74.1999 15.8897C75.1327 15.8897 75.8826 15.6181 76.4494 15.0749C77.0161 14.5317 77.2995 13.8173 77.2995 12.9317C77.2995 12.8018 77.3704 12.7369 77.5121 12.7369L78.0257 12.7546C78.1674 12.7546 78.2383 12.7841 78.2383 12.8432V12.9317C78.2383 13.6756 78.0671 14.3369 77.7246 14.9155C77.394 15.4823 76.9217 15.9251 76.3077 16.2439C75.6936 16.5627 74.991 16.7221 74.1999 16.7221Z" fill="#2A2A2A"/>
<path d="M74.1999 16.7221C73.3969 16.7221 72.6885 16.5627 72.0744 16.2439C71.4604 15.9251 70.9822 15.4764 70.6397 14.8978C70.3091 14.3074 70.1438 13.6343 70.1438 12.8786V7.83059C70.1438 7.07487 70.3091 6.41361 70.6397 5.84682C70.9822 5.26822 71.4604 4.81951 72.0744 4.50069C72.6885 4.18187 73.3969 4.02246 74.1999 4.02246C74.991 4.02246 75.6936 4.18187 76.3077 4.50069C76.9217 4.8077 77.394 5.2446 77.7246 5.8114C78.0671 6.37819 78.2383 7.03354 78.2383 7.77745C78.2383 7.8365 78.2147 7.88963 78.1674 7.93686C78.132 7.97229 78.0848 7.99 78.0257 7.99L77.5121 8.00771C77.3704 8.00771 77.2995 7.97229 77.2995 7.90144V7.79517C77.2995 6.90955 77.0161 6.20107 76.4494 5.6697C75.8826 5.12652 75.1327 4.85494 74.1999 4.85494C73.2552 4.85494 72.4995 5.12652 71.9327 5.6697C71.3659 6.20107 71.0825 6.90955 71.0825 7.79517V12.9317C71.0825 13.8173 71.3659 14.5317 71.9327 15.0749C72.5113 15.6181 73.2671 15.8897 74.1999 15.8897C75.1327 15.8897 75.8826 15.6181 76.4494 15.0749C77.0161 14.5317 77.2995 13.8173 77.2995 12.9317C77.2995 12.8018 77.3704 12.7369 77.5121 12.7369L78.0257 12.7546C78.1674 12.7546 78.2383 12.7841 78.2383 12.8432V12.9317C78.2383 13.6756 78.0671 14.3369 77.7246 14.9155C77.394 15.4823 76.9217 15.9251 76.3077 16.2439C75.6936 16.5627 74.991 16.7221 74.1999 16.7221Z" fill="black" fill-opacity="0.2"/>
<path d="M85.1358 16.7044C84.3211 16.7044 83.6008 16.5391 82.9749 16.2085C82.3609 15.866 81.8827 15.3937 81.5402 14.7915C81.2096 14.1775 81.0443 13.4749 81.0443 12.6837V8.04314C81.0443 7.25199 81.2096 6.55531 81.5402 5.95309C81.8827 5.33907 82.3609 4.86674 82.9749 4.53612C83.6008 4.19368 84.3211 4.02246 85.1358 4.02246C85.9506 4.02246 86.6709 4.19368 87.2967 4.53612C87.9225 4.86674 88.4067 5.33907 88.7491 5.95309C89.0915 6.55531 89.2628 7.25199 89.2628 8.04314V12.6837C89.2628 13.4749 89.0915 14.1775 88.7491 14.7915C88.4067 15.3937 87.9225 15.866 87.2967 16.2085C86.6709 16.5391 85.9506 16.7044 85.1358 16.7044ZM85.1358 15.8897C86.0923 15.8897 86.8598 15.6004 87.4384 15.0218C88.0288 14.4432 88.324 13.6756 88.324 12.7192V8.02543C88.324 7.08077 88.0288 6.31915 87.4384 5.74055C86.8598 5.15014 86.0923 4.85494 85.1358 4.85494C84.1912 4.85494 83.4295 5.15014 82.8509 5.74055C82.2723 6.31915 81.983 7.08077 81.983 8.02543V12.7192C81.983 13.6756 82.2723 14.4432 82.8509 15.0218C83.4295 15.6004 84.1912 15.8897 85.1358 15.8897Z" fill="#2A2A2A"/>
<path d="M85.1358 16.7044C84.3211 16.7044 83.6008 16.5391 82.9749 16.2085C82.3609 15.866 81.8827 15.3937 81.5402 14.7915C81.2096 14.1775 81.0443 13.4749 81.0443 12.6837V8.04314C81.0443 7.25199 81.2096 6.55531 81.5402 5.95309C81.8827 5.33907 82.3609 4.86674 82.9749 4.53612C83.6008 4.19368 84.3211 4.02246 85.1358 4.02246C85.9506 4.02246 86.6709 4.19368 87.2967 4.53612C87.9225 4.86674 88.4067 5.33907 88.7491 5.95309C89.0915 6.55531 89.2628 7.25199 89.2628 8.04314V12.6837C89.2628 13.4749 89.0915 14.1775 88.7491 14.7915C88.4067 15.3937 87.9225 15.866 87.2967 16.2085C86.6709 16.5391 85.9506 16.7044 85.1358 16.7044ZM85.1358 15.8897C86.0923 15.8897 86.8598 15.6004 87.4384 15.0218C88.0288 14.4432 88.324 13.6756 88.324 12.7192V8.02543C88.324 7.08077 88.0288 6.31915 87.4384 5.74055C86.8598 5.15014 86.0923 4.85494 85.1358 4.85494C84.1912 4.85494 83.4295 5.15014 82.8509 5.74055C82.2723 6.31915 81.983 7.08077 81.983 8.02543V12.7192C81.983 13.6756 82.2723 14.4432 82.8509 15.0218C83.4295 15.6004 84.1912 15.8897 85.1358 15.8897Z" fill="black" fill-opacity="0.2"/>
<path d="M92.8242 16.5627C92.7651 16.5627 92.712 16.545 92.6648 16.5096C92.6293 16.4624 92.6116 16.4092 92.6116 16.3502V4.37671C92.6116 4.31766 92.6293 4.27043 92.6648 4.23501C92.712 4.18777 92.7651 4.16416 92.8242 4.16416H96.898C98.0316 4.16416 98.929 4.46527 99.5902 5.06748C100.252 5.65789 100.582 6.46675 100.582 7.49406V13.2328C100.582 14.2601 100.252 15.0749 99.5902 15.6771C98.929 16.2675 98.0316 16.5627 96.898 16.5627H92.8242ZM93.5504 15.6594C93.5504 15.7066 93.574 15.7302 93.6212 15.7302H96.9511C97.7777 15.7302 98.4271 15.5 98.8995 15.0395C99.3836 14.5671 99.6316 13.9295 99.6434 13.1265V7.60033C99.6434 6.79738 99.4013 6.16564 98.9172 5.70512C98.4449 5.2328 97.7895 4.99663 96.9511 4.99663H93.6212C93.574 4.99663 93.5504 5.02025 93.5504 5.06748V15.6594Z" fill="#2A2A2A"/>
<path d="M92.8242 16.5627C92.7651 16.5627 92.712 16.545 92.6648 16.5096C92.6293 16.4624 92.6116 16.4092 92.6116 16.3502V4.37671C92.6116 4.31766 92.6293 4.27043 92.6648 4.23501C92.712 4.18777 92.7651 4.16416 92.8242 4.16416H96.898C98.0316 4.16416 98.929 4.46527 99.5902 5.06748C100.252 5.65789 100.582 6.46675 100.582 7.49406V13.2328C100.582 14.2601 100.252 15.0749 99.5902 15.6771C98.929 16.2675 98.0316 16.5627 96.898 16.5627H92.8242ZM93.5504 15.6594C93.5504 15.7066 93.574 15.7302 93.6212 15.7302H96.9511C97.7777 15.7302 98.4271 15.5 98.8995 15.0395C99.3836 14.5671 99.6316 13.9295 99.6434 13.1265V7.60033C99.6434 6.79738 99.4013 6.16564 98.9172 5.70512C98.4449 5.2328 97.7895 4.99663 96.9511 4.99663H93.6212C93.574 4.99663 93.5504 5.02025 93.5504 5.06748V15.6594Z" fill="black" fill-opacity="0.2"/>
<path d="M111.602 4.78409C111.602 4.84313 111.578 4.89626 111.531 4.9435C111.496 4.97892 111.449 4.99663 111.39 4.99663H104.712C104.665 4.99663 104.641 5.02025 104.641 5.06748V9.84979C104.641 9.89702 104.665 9.92063 104.712 9.92063H109.441C109.5 9.92063 109.547 9.94425 109.583 9.99148C109.63 10.0269 109.654 10.0741 109.654 10.1332V10.5406C109.654 10.5996 109.63 10.6527 109.583 10.7C109.547 10.7354 109.5 10.7531 109.441 10.7531H104.712C104.665 10.7531 104.641 10.7767 104.641 10.824V15.6594C104.641 15.7066 104.665 15.7302 104.712 15.7302H111.39C111.449 15.7302 111.496 15.7539 111.531 15.8011C111.578 15.8365 111.602 15.8838 111.602 15.9428V16.3502C111.602 16.4092 111.578 16.4624 111.531 16.5096C111.496 16.545 111.449 16.5627 111.39 16.5627H103.915C103.856 16.5627 103.803 16.545 103.756 16.5096C103.72 16.4624 103.702 16.4092 103.702 16.3502V4.37671C103.702 4.31766 103.72 4.27043 103.756 4.23501C103.803 4.18777 103.856 4.16416 103.915 4.16416H111.39C111.449 4.16416 111.496 4.18777 111.531 4.23501C111.578 4.27043 111.602 4.31766 111.602 4.37671V4.78409Z" fill="#2A2A2A"/>
<path d="M111.602 4.78409C111.602 4.84313 111.578 4.89626 111.531 4.9435C111.496 4.97892 111.449 4.99663 111.39 4.99663H104.712C104.665 4.99663 104.641 5.02025 104.641 5.06748V9.84979C104.641 9.89702 104.665 9.92063 104.712 9.92063H109.441C109.5 9.92063 109.547 9.94425 109.583 9.99148C109.63 10.0269 109.654 10.0741 109.654 10.1332V10.5406C109.654 10.5996 109.63 10.6527 109.583 10.7C109.547 10.7354 109.5 10.7531 109.441 10.7531H104.712C104.665 10.7531 104.641 10.7767 104.641 10.824V15.6594C104.641 15.7066 104.665 15.7302 104.712 15.7302H111.39C111.449 15.7302 111.496 15.7539 111.531 15.8011C111.578 15.8365 111.602 15.8838 111.602 15.9428V16.3502C111.602 16.4092 111.578 16.4624 111.531 16.5096C111.496 16.545 111.449 16.5627 111.39 16.5627H103.915C103.856 16.5627 103.803 16.545 103.756 16.5096C103.72 16.4624 103.702 16.4092 103.702 16.3502V4.37671C103.702 4.31766 103.72 4.27043 103.756 4.23501C103.803 4.18777 103.856 4.16416 103.915 4.16416H111.39C111.449 4.16416 111.496 4.18777 111.531 4.23501C111.578 4.27043 111.602 4.31766 111.602 4.37671V4.78409Z" fill="black" fill-opacity="0.2"/>
<path d="M122.058 16.5627C121.952 16.5627 121.869 16.5096 121.81 16.4033L119.082 10.7708C119.071 10.7354 119.047 10.7177 119.012 10.7177H115.682C115.634 10.7177 115.611 10.7413 115.611 10.7885V16.3502C115.611 16.4092 115.587 16.4624 115.54 16.5096C115.505 16.545 115.457 16.5627 115.398 16.5627H114.885C114.826 16.5627 114.772 16.545 114.725 16.5096C114.69 16.4624 114.672 16.4092 114.672 16.3502V4.34128C114.672 4.28224 114.69 4.23501 114.725 4.19958C114.772 4.15235 114.826 4.12873 114.885 4.12873H119.313C120.305 4.12873 121.102 4.43575 121.704 5.04977C122.318 5.66379 122.625 6.46675 122.625 7.45863C122.625 8.30882 122.389 9.02322 121.916 9.60182C121.456 10.1686 120.836 10.5169 120.057 10.6468C119.998 10.6705 119.98 10.7 120.003 10.7354L122.713 16.3148C122.737 16.362 122.749 16.3974 122.749 16.421C122.749 16.5155 122.684 16.5627 122.554 16.5627H122.058ZM115.682 4.97892C115.634 4.97892 115.611 5.00254 115.611 5.04977V9.8675C115.611 9.91473 115.634 9.93835 115.682 9.93835H119.224C119.956 9.93835 120.547 9.71399 120.995 9.26528C121.456 8.80476 121.686 8.20845 121.686 7.47635C121.686 6.72062 121.456 6.11841 120.995 5.6697C120.547 5.20918 119.956 4.97892 119.224 4.97892H115.682Z" fill="#2A2A2A"/>
<path d="M122.058 16.5627C121.952 16.5627 121.869 16.5096 121.81 16.4033L119.082 10.7708C119.071 10.7354 119.047 10.7177 119.012 10.7177H115.682C115.634 10.7177 115.611 10.7413 115.611 10.7885V16.3502C115.611 16.4092 115.587 16.4624 115.54 16.5096C115.505 16.545 115.457 16.5627 115.398 16.5627H114.885C114.826 16.5627 114.772 16.545 114.725 16.5096C114.69 16.4624 114.672 16.4092 114.672 16.3502V4.34128C114.672 4.28224 114.69 4.23501 114.725 4.19958C114.772 4.15235 114.826 4.12873 114.885 4.12873H119.313C120.305 4.12873 121.102 4.43575 121.704 5.04977C122.318 5.66379 122.625 6.46675 122.625 7.45863C122.625 8.30882 122.389 9.02322 121.916 9.60182C121.456 10.1686 120.836 10.5169 120.057 10.6468C119.998 10.6705 119.98 10.7 120.003 10.7354L122.713 16.3148C122.737 16.362 122.749 16.3974 122.749 16.421C122.749 16.5155 122.684 16.5627 122.554 16.5627H122.058ZM115.682 4.97892C115.634 4.97892 115.611 5.00254 115.611 5.04977V9.8675C115.611 9.91473 115.634 9.93835 115.682 9.93835H119.224C119.956 9.93835 120.547 9.71399 120.995 9.26528C121.456 8.80476 121.686 8.20845 121.686 7.47635C121.686 6.72062 121.456 6.11841 120.995 5.6697C120.547 5.20918 119.956 4.97892 119.224 4.97892H115.682Z" fill="black" fill-opacity="0.2"/>
<path d="M48.0018 32.2876C47.82 32.2876 47.6966 32.1967 47.6316 32.0149L47.0861 30.2029C47.0731 30.138 47.0341 30.1055 46.9692 30.1055H42.1957C42.1308 30.1055 42.0918 30.138 42.0788 30.2029L41.5333 32.0149C41.4684 32.1967 41.345 32.2876 41.1631 32.2876H38.903C38.7861 32.2876 38.7017 32.2552 38.6498 32.1902C38.5978 32.1123 38.5913 32.0214 38.6303 31.9175L42.7803 18.922C42.8452 18.7401 42.9686 18.6492 43.1504 18.6492H46.0145C46.1964 18.6492 46.3197 18.7401 46.3847 18.922L50.5347 31.9175C50.5477 31.9434 50.5542 31.9824 50.5542 32.0344C50.5542 32.1123 50.5282 32.1772 50.4762 32.2292C50.4243 32.2682 50.3528 32.2876 50.2619 32.2876H48.0018ZM42.7608 27.8454C42.7478 27.9363 42.7803 27.9818 42.8582 27.9818H46.3068C46.3847 27.9818 46.4172 27.9363 46.4042 27.8454L44.6507 21.903C44.6377 21.851 44.6117 21.825 44.5727 21.825C44.5468 21.825 44.5208 21.851 44.4948 21.903L42.7608 27.8454Z" fill="#2A2A2A"/>
<path d="M48.0018 32.2876C47.82 32.2876 47.6966 32.1967 47.6316 32.0149L47.0861 30.2029C47.0731 30.138 47.0341 30.1055 46.9692 30.1055H42.1957C42.1308 30.1055 42.0918 30.138 42.0788 30.2029L41.5333 32.0149C41.4684 32.1967 41.345 32.2876 41.1631 32.2876H38.903C38.7861 32.2876 38.7017 32.2552 38.6498 32.1902C38.5978 32.1123 38.5913 32.0214 38.6303 31.9175L42.7803 18.922C42.8452 18.7401 42.9686 18.6492 43.1504 18.6492H46.0145C46.1964 18.6492 46.3197 18.7401 46.3847 18.922L50.5347 31.9175C50.5477 31.9434 50.5542 31.9824 50.5542 32.0344C50.5542 32.1123 50.5282 32.1772 50.4762 32.2292C50.4243 32.2682 50.3528 32.2876 50.2619 32.2876H48.0018ZM42.7608 27.8454C42.7478 27.9363 42.7803 27.9818 42.8582 27.9818H46.3068C46.3847 27.9818 46.4172 27.9363 46.4042 27.8454L44.6507 21.903C44.6377 21.851 44.6117 21.825 44.5727 21.825C44.5468 21.825 44.5208 21.851 44.4948 21.903L42.7608 27.8454Z" fill="black" fill-opacity="0.2"/>
<path d="M56.68 32.4435C55.6669 32.4435 54.7771 32.2487 54.0108 31.859C53.2444 31.4563 52.6534 30.8978 52.2378 30.1834C51.8221 29.469 51.6143 28.6442 51.6143 27.709V23.2084C51.6143 22.2731 51.8221 21.4483 52.2378 20.734C52.6534 20.0196 53.2444 19.4675 54.0108 19.0779C54.7771 18.6882 55.6669 18.4934 56.68 18.4934C57.6802 18.4934 58.5569 18.6817 59.3103 19.0584C60.0766 19.4221 60.6676 19.9481 61.0833 20.6365C61.5119 21.312 61.7262 22.0978 61.7262 22.994C61.7262 23.1109 61.6223 23.1824 61.4145 23.2084L59.3298 23.3447H59.2518C59.07 23.3447 58.9791 23.3123 58.9791 23.2473V23.1304C58.9791 22.442 58.7648 21.89 58.3361 21.4743C57.9205 21.0587 57.3684 20.8509 56.68 20.8509C55.9786 20.8509 55.4136 21.0587 54.985 21.4743C54.5693 21.89 54.3615 22.442 54.3615 23.1304V27.8259C54.3615 28.5014 54.5693 29.0469 54.985 29.4625C55.4136 29.8782 55.9786 30.086 56.68 30.086C57.3684 30.086 57.9205 29.8782 58.3361 29.4625C58.7648 29.0469 58.9791 28.5014 58.9791 27.8259C58.9791 27.761 59.0051 27.709 59.057 27.6701C59.122 27.6181 59.2064 27.5986 59.3103 27.6116L61.395 27.709C61.6158 27.735 61.7262 27.7675 61.7262 27.8064V27.9039C61.7262 28.8001 61.5119 29.5924 61.0833 30.2808C60.6676 30.9693 60.0766 31.5018 59.3103 31.8785C58.5569 32.2552 57.6802 32.4435 56.68 32.4435Z" fill="#2A2A2A"/>
<path d="M56.68 32.4435C55.6669 32.4435 54.7771 32.2487 54.0108 31.859C53.2444 31.4563 52.6534 30.8978 52.2378 30.1834C51.8221 29.469 51.6143 28.6442 51.6143 27.709V23.2084C51.6143 22.2731 51.8221 21.4483 52.2378 20.734C52.6534 20.0196 53.2444 19.4675 54.0108 19.0779C54.7771 18.6882 55.6669 18.4934 56.68 18.4934C57.6802 18.4934 58.5569 18.6817 59.3103 19.0584C60.0766 19.4221 60.6676 19.9481 61.0833 20.6365C61.5119 21.312 61.7262 22.0978 61.7262 22.994C61.7262 23.1109 61.6223 23.1824 61.4145 23.2084L59.3298 23.3447H59.2518C59.07 23.3447 58.9791 23.3123 58.9791 23.2473V23.1304C58.9791 22.442 58.7648 21.89 58.3361 21.4743C57.9205 21.0587 57.3684 20.8509 56.68 20.8509C55.9786 20.8509 55.4136 21.0587 54.985 21.4743C54.5693 21.89 54.3615 22.442 54.3615 23.1304V27.8259C54.3615 28.5014 54.5693 29.0469 54.985 29.4625C55.4136 29.8782 55.9786 30.086 56.68 30.086C57.3684 30.086 57.9205 29.8782 58.3361 29.4625C58.7648 29.0469 58.9791 28.5014 58.9791 27.8259C58.9791 27.761 59.0051 27.709 59.057 27.6701C59.122 27.6181 59.2064 27.5986 59.3103 27.6116L61.395 27.709C61.6158 27.735 61.7262 27.7675 61.7262 27.8064V27.9039C61.7262 28.8001 61.5119 29.5924 61.0833 30.2808C60.6676 30.9693 60.0766 31.5018 59.3103 31.8785C58.5569 32.2552 57.6802 32.4435 56.68 32.4435Z" fill="black" fill-opacity="0.2"/>
<path d="M72.2039 32.2876C72.0221 32.2876 71.8987 32.1967 71.8337 32.0149L71.2882 30.2029C71.2752 30.138 71.2362 30.1055 71.1713 30.1055H66.3979C66.3329 30.1055 66.2939 30.138 66.281 30.2029L65.7354 32.0149C65.6705 32.1967 65.5471 32.2876 65.3652 32.2876H63.1052C62.9882 32.2876 62.9038 32.2552 62.8519 32.1902C62.7999 32.1123 62.7934 32.0214 62.8324 31.9175L66.9824 18.922C67.0473 18.7401 67.1707 18.6492 67.3525 18.6492H70.2166C70.3985 18.6492 70.5219 18.7401 70.5868 18.922L74.7368 31.9175C74.7498 31.9434 74.7563 31.9824 74.7563 32.0344C74.7563 32.1123 74.7303 32.1772 74.6783 32.2292C74.6264 32.2682 74.5549 32.2876 74.464 32.2876H72.2039ZM66.9629 27.8454C66.9499 27.9363 66.9824 27.9818 67.0603 27.9818H70.5089C70.5868 27.9818 70.6193 27.9363 70.6063 27.8454L68.8528 21.903C68.8398 21.851 68.8138 21.825 68.7748 21.825C68.7489 21.825 68.7229 21.851 68.6969 21.903L66.9629 27.8454Z" fill="#2A2A2A"/>
<path d="M72.2039 32.2876C72.0221 32.2876 71.8987 32.1967 71.8337 32.0149L71.2882 30.2029C71.2752 30.138 71.2362 30.1055 71.1713 30.1055H66.3979C66.3329 30.1055 66.2939 30.138 66.281 30.2029L65.7354 32.0149C65.6705 32.1967 65.5471 32.2876 65.3652 32.2876H63.1052C62.9882 32.2876 62.9038 32.2552 62.8519 32.1902C62.7999 32.1123 62.7934 32.0214 62.8324 31.9175L66.9824 18.922C67.0473 18.7401 67.1707 18.6492 67.3525 18.6492H70.2166C70.3985 18.6492 70.5219 18.7401 70.5868 18.922L74.7368 31.9175C74.7498 31.9434 74.7563 31.9824 74.7563 32.0344C74.7563 32.1123 74.7303 32.1772 74.6783 32.2292C74.6264 32.2682 74.5549 32.2876 74.464 32.2876H72.2039ZM66.9629 27.8454C66.9499 27.9363 66.9824 27.9818 67.0603 27.9818H70.5089C70.5868 27.9818 70.6193 27.9363 70.6063 27.8454L68.8528 21.903C68.8398 21.851 68.8138 21.825 68.7748 21.825C68.7489 21.825 68.7229 21.851 68.6969 21.903L66.9629 27.8454Z" fill="black" fill-opacity="0.2"/>
<path d="M76.839 32.2876C76.6182 32.2876 76.5078 32.1772 76.5078 31.9564V18.9804C76.5078 18.7596 76.6182 18.6492 76.839 18.6492H81.6125C82.5866 18.6492 83.4374 18.8246 84.1648 19.1753C84.9052 19.513 85.4767 19.9936 85.8793 20.6171C86.282 21.2405 86.4833 21.9614 86.4833 22.7797V28.1572C86.4833 28.9755 86.282 29.6963 85.8793 30.3198C85.4767 30.9433 84.9052 31.4304 84.1648 31.7811C83.4374 32.1188 82.5866 32.2876 81.6125 32.2876H76.839ZM79.255 29.8132C79.255 29.8912 79.2939 29.9301 79.3719 29.9301H81.7099C82.3074 29.9301 82.788 29.7288 83.1516 29.3262C83.5283 28.9235 83.7232 28.3845 83.7362 27.709V23.2278C83.7362 22.5524 83.5478 22.0134 83.1711 21.6107C82.8074 21.208 82.3139 21.0067 81.6904 21.0067H79.3719C79.2939 21.0067 79.255 21.0457 79.255 21.1236V29.8132Z" fill="#2A2A2A"/>
<path d="M76.839 32.2876C76.6182 32.2876 76.5078 32.1772 76.5078 31.9564V18.9804C76.5078 18.7596 76.6182 18.6492 76.839 18.6492H81.6125C82.5866 18.6492 83.4374 18.8246 84.1648 19.1753C84.9052 19.513 85.4767 19.9936 85.8793 20.6171C86.282 21.2405 86.4833 21.9614 86.4833 22.7797V28.1572C86.4833 28.9755 86.282 29.6963 85.8793 30.3198C85.4767 30.9433 84.9052 31.4304 84.1648 31.7811C83.4374 32.1188 82.5866 32.2876 81.6125 32.2876H76.839ZM79.255 29.8132C79.255 29.8912 79.2939 29.9301 79.3719 29.9301H81.7099C82.3074 29.9301 82.788 29.7288 83.1516 29.3262C83.5283 28.9235 83.7232 28.3845 83.7362 27.709V23.2278C83.7362 22.5524 83.5478 22.0134 83.1711 21.6107C82.8074 21.208 82.3139 21.0067 81.6904 21.0067H79.3719C79.2939 21.0067 79.255 21.0457 79.255 21.1236V29.8132Z" fill="black" fill-opacity="0.2"/>
<path d="M98.0207 20.6755C98.0207 20.8963 97.9103 21.0067 97.6895 21.0067H91.4158C91.3379 21.0067 91.2989 21.0457 91.2989 21.1236V24.1046C91.2989 24.1825 91.3379 24.2215 91.4158 24.2215H95.4879C95.7087 24.2215 95.8191 24.3319 95.8191 24.5527V26.2478C95.8191 26.4686 95.7087 26.579 95.4879 26.579H91.4158C91.3379 26.579 91.2989 26.618 91.2989 26.6959V29.8132C91.2989 29.8912 91.3379 29.9301 91.4158 29.9301H97.6895C97.9103 29.9301 98.0207 30.0406 98.0207 30.2614V31.9564C98.0207 32.1772 97.9103 32.2876 97.6895 32.2876H88.883C88.6622 32.2876 88.5518 32.1772 88.5518 31.9564V18.9804C88.5518 18.7596 88.6622 18.6492 88.883 18.6492H97.6895C97.9103 18.6492 98.0207 18.7596 98.0207 18.9804V20.6755Z" fill="#2A2A2A"/>
<path d="M98.0207 20.6755C98.0207 20.8963 97.9103 21.0067 97.6895 21.0067H91.4158C91.3379 21.0067 91.2989 21.0457 91.2989 21.1236V24.1046C91.2989 24.1825 91.3379 24.2215 91.4158 24.2215H95.4879C95.7087 24.2215 95.8191 24.3319 95.8191 24.5527V26.2478C95.8191 26.4686 95.7087 26.579 95.4879 26.579H91.4158C91.3379 26.579 91.2989 26.618 91.2989 26.6959V29.8132C91.2989 29.8912 91.3379 29.9301 91.4158 29.9301H97.6895C97.9103 29.9301 98.0207 30.0406 98.0207 30.2614V31.9564C98.0207 32.1772 97.9103 32.2876 97.6895 32.2876H88.883C88.6622 32.2876 88.5518 32.1772 88.5518 31.9564V18.9804C88.5518 18.7596 88.6622 18.6492 88.883 18.6492H97.6895C97.9103 18.6492 98.0207 18.7596 98.0207 18.9804V20.6755Z" fill="black" fill-opacity="0.2"/>
<path d="M100.28 32.2876C100.06 32.2876 99.9493 32.1772 99.9493 31.9564V18.9804C99.9493 18.7596 100.06 18.6492 100.28 18.6492H102.365C102.534 18.6492 102.664 18.7207 102.755 18.8635L105.58 23.4227C105.606 23.4616 105.632 23.4811 105.658 23.4811C105.697 23.4811 105.723 23.4616 105.736 23.4227L108.6 18.8635C108.691 18.7207 108.821 18.6492 108.99 18.6492H111.074C111.295 18.6492 111.406 18.7596 111.406 18.9804V31.9564C111.406 32.1772 111.295 32.2876 111.074 32.2876H108.99C108.769 32.2876 108.658 32.1772 108.658 31.9564V23.5201C108.658 23.4681 108.639 23.4357 108.6 23.4227C108.574 23.4097 108.548 23.4292 108.522 23.4811L106.554 26.6959C106.463 26.8388 106.333 26.9102 106.164 26.9102H105.171C105.002 26.9102 104.872 26.8388 104.781 26.6959L102.833 23.4811C102.807 23.4292 102.774 23.4097 102.735 23.4227C102.709 23.4357 102.696 23.4681 102.696 23.5201V31.9564C102.696 32.1772 102.586 32.2876 102.365 32.2876H100.28Z" fill="#2A2A2A"/>
<path d="M100.28 32.2876C100.06 32.2876 99.9493 32.1772 99.9493 31.9564V18.9804C99.9493 18.7596 100.06 18.6492 100.28 18.6492H102.365C102.534 18.6492 102.664 18.7207 102.755 18.8635L105.58 23.4227C105.606 23.4616 105.632 23.4811 105.658 23.4811C105.697 23.4811 105.723 23.4616 105.736 23.4227L108.6 18.8635C108.691 18.7207 108.821 18.6492 108.99 18.6492H111.074C111.295 18.6492 111.406 18.7596 111.406 18.9804V31.9564C111.406 32.1772 111.295 32.2876 111.074 32.2876H108.99C108.769 32.2876 108.658 32.1772 108.658 31.9564V23.5201C108.658 23.4681 108.639 23.4357 108.6 23.4227C108.574 23.4097 108.548 23.4292 108.522 23.4811L106.554 26.6959C106.463 26.8388 106.333 26.9102 106.164 26.9102H105.171C105.002 26.9102 104.872 26.8388 104.781 26.6959L102.833 23.4811C102.807 23.4292 102.774 23.4097 102.735 23.4227C102.709 23.4357 102.696 23.4681 102.696 23.5201V31.9564C102.696 32.1772 102.586 32.2876 102.365 32.2876H100.28Z" fill="black" fill-opacity="0.2"/>
<path d="M117.561 32.2682C117.34 32.2682 117.23 32.1578 117.23 31.9369V27.1245L117.191 26.9687L113.255 19.0389C113.216 18.9739 113.197 18.9155 113.197 18.8635C113.197 18.7986 113.223 18.7466 113.275 18.7077C113.327 18.6687 113.398 18.6492 113.489 18.6492H115.749C115.931 18.6492 116.061 18.7337 116.139 18.9025L118.516 23.9682C118.542 24.0072 118.568 24.0267 118.594 24.0267C118.633 24.0267 118.659 24.0072 118.672 23.9682L121.049 18.9025C121.14 18.7337 121.269 18.6492 121.438 18.6492H123.718C123.913 18.6492 124.01 18.7272 124.01 18.883C124.01 18.948 123.997 18.9999 123.971 19.0389L119.997 26.9687L119.958 27.1245V31.9369C119.958 32.1578 119.847 32.2682 119.626 32.2682H117.561Z" fill="#2A2A2A"/>
<path d="M117.561 32.2682C117.34 32.2682 117.23 32.1578 117.23 31.9369V27.1245L117.191 26.9687L113.255 19.0389C113.216 18.9739 113.197 18.9155 113.197 18.8635C113.197 18.7986 113.223 18.7466 113.275 18.7077C113.327 18.6687 113.398 18.6492 113.489 18.6492H115.749C115.931 18.6492 116.061 18.7337 116.139 18.9025L118.516 23.9682C118.542 24.0072 118.568 24.0267 118.594 24.0267C118.633 24.0267 118.659 24.0072 118.672 23.9682L121.049 18.9025C121.14 18.7337 121.269 18.6492 121.438 18.6492H123.718C123.913 18.6492 124.01 18.7272 124.01 18.883C124.01 18.948 123.997 18.9999 123.971 19.0389L119.997 26.9687L119.958 27.1245V31.9369C119.958 32.1578 119.847 32.2682 119.626 32.2682H117.561Z" fill="black" fill-opacity="0.2"/>
<path d="M18.9028 16.6421C14.3755 14.1905 9.24392 12.7161 3.78944 12.5012L3.78943 19.7579C3.78943 19.9242 3.85539 20.0836 3.97278 20.201L12.4046 28.6364C13.773 24.1932 16.0044 20.1295 18.9028 16.6421Z" fill="#2C95D7"/>
<path opacity="0.2" d="M16.1142 20.5053C16.9565 19.1526 17.8888 17.8621 18.9028 16.6421C14.3755 14.1905 9.24391 12.7161 3.78943 12.5012L3.78943 12.595C8.45422 14.3391 12.6448 17.0583 16.1142 20.5053Z" fill="white"/>
<path d="M29.3315 21.7149L30.8431 20.2009C30.9604 20.0835 31.0262 19.9242 31.0262 19.7581L31.0262 8.479C27.5341 10.4316 24.4126 12.97 21.7943 15.9617C24.5654 17.5316 27.1001 19.4717 29.3315 21.7149Z" fill="#0AB88A"/>
<path opacity="0.2" d="M31.0033 8.49194C27.5204 10.4428 24.4069 12.9767 21.7943 15.9619C22.941 16.6115 24.0473 17.3245 25.1083 18.0962C26.5495 14.568 28.5515 11.3295 31.0033 8.49194Z" fill="white"/>
<path d="M20.2349 15.1301C23.2769 11.871 26.9364 9.19789 31.0264 7.29816L31.0264 4.64849C31.0264 4.30274 30.7467 4.02246 30.4017 4.02246L4.41426 4.02246C4.06925 4.02246 3.78956 4.30275 3.78956 4.64849L3.78955 11.4842C4.09573 11.4763 4.40289 11.4722 4.71099 11.4722C10.2901 11.4722 15.5623 12.7893 20.2349 15.1301Z" fill="#EF476F"/>
<path opacity="0.2" d="M31.0263 7.29828C26.9362 9.198 23.2768 11.8711 20.2347 15.1302C15.5622 12.7894 10.29 11.4724 4.71086 11.4724C4.40277 11.4724 4.09561 11.4764 3.78943 11.4844L3.78943 11.2595C9.11205 7.94199 15.3949 6.02588 22.1243 6.02588C25.2014 6.02588 28.185 6.42651 31.0263 7.17855V7.29828Z" fill="white"/>
<path d="M14.2123 30.4448C15.4003 25.6836 17.5659 21.3106 20.483 17.5522C23.131 19.1717 25.5461 21.1361 27.6659 23.3831L17.8571 33.2075C17.6132 33.4518 17.2181 33.4519 16.9741 33.2078L14.2123 30.4448Z" fill="#2A2A2A"/>
<path d="M14.2123 30.4448C15.4003 25.6836 17.5659 21.3106 20.483 17.5522C23.131 19.1717 25.5461 21.1361 27.6659 23.3831L17.8571 33.2075C17.6132 33.4518 17.2181 33.4519 16.9741 33.2078L14.2123 30.4448Z" fill="black" fill-opacity="0.2"/>
</svg>
