<svg width="104" height="52" viewBox="0 0 104 52" fill="none" xmlns="http://www.w3.org/2000/svg">
<path fill-rule="evenodd" clip-rule="evenodd" d="M67.3966 7.6071C63.3664 3.17744 57.9526 0.465942 52 0.465942C46.0474 0.465942 40.6335 3.17744 36.6033 7.6071C39.0062 8.05381 41.4542 8.64568 43.9056 9.35576C46 9.96243 47.9706 10.6226 49.6224 11.2488C50.2824 11.499 51.9352 12.2291 52 12.2623C52.0648 12.2291 53.7176 11.499 54.3775 11.2488C56.0294 10.6226 57.9999 9.96243 60.0943 9.35576C62.5457 8.64568 64.9937 8.05381 67.3966 7.6071ZM29.9097 15.7239C29.0304 18.0621 28.4301 20.5304 28.1264 23.0746C23.1699 22.5286 19.7312 14.7166 19.7312 12.8496C19.7312 9.75366 23.3401 8.2057 27.118 8.2057C29.3008 8.2057 31.5257 8.39493 33.6978 8.70269C32.1632 10.7848 30.88 13.1436 29.9097 15.7239ZM51.2224 13.6235C50.4449 13.6235 43.8982 15.5784 39.3646 18.0739C38.3537 18.6303 37.3645 19.2223 36.4033 19.7974C33.9499 21.2655 31.6798 22.6239 29.7023 23.0013C30.0042 20.6401 30.5711 18.3808 31.3661 16.2666C32.3799 13.5708 33.7647 11.111 35.4445 8.97662C43.9572 10.4374 51.2224 13.4768 51.2224 13.6235ZM73.8637 15.1396C74.8667 17.6484 75.5443 20.3166 75.8735 23.0746C80.83 22.5286 84.2688 14.7166 84.2688 12.8496C84.2688 9.75366 80.6599 8.2057 76.8819 8.2057C74.6991 8.2057 72.4741 8.39494 70.3019 8.70272C71.7192 10.6258 72.9226 12.7857 73.8637 15.1396ZM64.6353 18.0739C60.1017 15.5784 53.5551 13.6235 52.7775 13.6235C52.7775 13.4768 60.0427 10.4374 68.5555 8.97662C70.1194 10.9637 71.4276 13.2329 72.4188 15.712C73.3271 17.984 73.9692 20.4323 74.2976 23.0013C72.3201 22.6239 70.0501 21.2655 67.5966 19.7974C66.6355 19.2223 65.6462 18.6303 64.6353 18.0739Z" fill="#2A2A2A"/>
<path fill-rule="evenodd" clip-rule="evenodd" d="M2.2122 44.1484V34.721H0V33.4609H2.2122V29.8433H3.67757V33.4609H6.38793V34.721H3.67757V43.9292C3.67757 44.9981 4.12001 45.7382 5.06061 45.7382C5.69682 45.7382 6.24946 45.4366 6.55384 45.1077L7.10689 46.2039C6.5817 46.6971 5.94549 47.0264 4.83898 47.0264C3.06922 47.0264 2.2122 45.9574 2.2122 44.1484" fill="#2A2A2A"/>
<path fill-rule="evenodd" clip-rule="evenodd" d="M19.5231 40.0654C19.5231 37.1327 17.7812 34.42 14.6284 34.42C11.5309 34.42 9.76118 37.1327 9.76118 40.0654C9.76118 43.0249 11.5309 45.7384 14.6284 45.7384C17.7812 45.7384 19.5231 43.0249 19.5231 40.0654M8.21265 40.0654C8.21265 36.201 10.7288 33.1318 14.6284 33.1318C18.5829 33.1318 21.0717 36.201 21.0717 40.0654C21.0717 43.9294 18.5829 47.0261 14.6284 47.0261C10.7288 47.0261 8.21265 43.9294 8.21265 40.0654" fill="#2A2A2A"/>
<path fill-rule="evenodd" clip-rule="evenodd" d="M34.7319 40.0654C34.7319 36.859 33.0453 34.42 30.0584 34.42C28.2051 34.42 26.4353 35.5161 25.6611 36.7766V43.3265C26.4353 44.5871 28.2051 45.7384 30.0584 45.7384C33.0453 45.7384 34.7319 43.2713 34.7319 40.0654M25.6611 44.5595V51.7398H24.2231V33.4607H25.6611V35.5433C26.6017 34.2008 28.3161 33.1318 30.3071 33.1318C33.8745 33.1318 36.2804 35.8173 36.2804 40.0654C36.2804 44.2858 33.8745 47.0261 30.3071 47.0261C28.4267 47.0261 26.7397 46.0668 25.6611 44.5595" fill="#2A2A2A"/>
<path fill-rule="evenodd" clip-rule="evenodd" d="M38.5745 40.0654C38.5745 36.201 41.1463 33.1318 45.073 33.1318C47.3962 33.1318 48.7235 34.0359 49.8022 35.3789L48.8067 36.2558C47.8387 34.9404 46.6219 34.42 45.1558 34.42C42.0312 34.42 40.123 36.8862 40.123 40.0654C40.123 43.2441 42.0312 45.7384 45.1558 45.7384C46.6219 45.7384 47.8387 45.1899 48.8067 43.8746L49.8022 44.7515C48.7235 46.1216 47.3962 47.0261 45.073 47.0261C41.1463 47.0261 38.5745 43.9294 38.5745 40.0654" fill="#2A2A2A"/>
<path fill-rule="evenodd" clip-rule="evenodd" d="M62.9921 40.0654C62.9921 37.1327 61.2498 34.42 58.0974 34.42C54.9999 34.42 53.2302 37.1327 53.2302 40.0654C53.2302 43.0249 54.9999 45.7384 58.0974 45.7384C61.2498 45.7384 62.9921 43.0249 62.9921 40.0654M51.6816 40.0654C51.6816 36.201 54.1978 33.1318 58.0974 33.1318C62.0519 33.1318 64.5407 36.201 64.5407 40.0654C64.5407 43.9294 62.0519 47.0261 58.0974 47.0261C54.1978 47.0261 51.6816 43.9294 51.6816 40.0654" fill="#2A2A2A"/>
<path fill-rule="evenodd" clip-rule="evenodd" d="M77.5371 43.3813V36.8314C76.7624 35.5433 75.0205 34.42 73.1401 34.42C70.1807 34.42 68.4663 36.8862 68.4663 40.0926C68.4663 43.2989 70.1807 45.7384 73.1401 45.7384C75.0205 45.7384 76.7624 44.6418 77.5371 43.3813V43.3813ZM77.5371 46.6973V44.587C76.5969 45.9576 74.8825 47.0265 72.8911 47.0265C69.3516 47.0265 66.9177 44.3402 66.9177 40.0926C66.9177 35.8997 69.3516 33.1318 72.8911 33.1318C74.7989 33.1318 76.4584 34.0907 77.5371 35.5981V28.4185H79.0029V46.6973H77.5371Z" fill="#2A2A2A"/>
<path fill-rule="evenodd" clip-rule="evenodd" d="M88.5701 34.3652C85.4177 34.3652 83.8413 37.1055 83.7307 39.4077H93.4373C93.4095 37.1603 91.9162 34.3652 88.5701 34.3652M82.1543 40.0654C82.1543 36.2286 84.8917 33.1318 88.5975 33.1318C92.6626 33.1318 94.9031 36.3382 94.9031 40.1474V40.531H83.7307C83.8683 43.4085 85.8048 45.7928 88.9572 45.7928C90.6438 45.7928 92.1928 45.1627 93.3267 43.957L94.0735 44.8887C92.7458 46.2588 91.0588 47.0261 88.8466 47.0261C84.947 47.0261 82.1543 44.1486 82.1543 40.0654" fill="#2A2A2A"/>
<path fill-rule="evenodd" clip-rule="evenodd" d="M98.0542 46.6973V33.4611H99.4921V35.7353C100.626 34.2556 102.147 33.1866 104 33.1866V34.7488C103.751 34.694 103.558 34.694 103.281 34.694C101.926 34.694 100.101 35.8997 99.4921 37.0507V46.6973H98.0542Z" fill="#2A2A2A"/>
</svg>
