<svg width="141" height="16" viewBox="0 0 141 16" fill="none" xmlns="http://www.w3.org/2000/svg">
<path d="M136.681 0.114967C136.603 0.191634 136.525 0.302967 136.525 0.414967C136.524 0.608301 136.752 0.870301 137.175 1.30097C138.937 2.98497 139.823 5.04763 139.817 7.5343C139.81 10.2863 138.878 12.4963 137.067 14.209C136.686 14.5476 136.529 14.813 136.529 15.0403C136.529 15.1523 136.606 15.2683 136.684 15.3796C136.757 15.4576 136.913 15.535 137.025 15.535C137.444 15.5363 138.031 15.0443 138.796 14.087C140.287 12.2723 140.962 10.2683 140.999 7.53763C141.034 4.80497 140.172 2.9523 138.483 1.03897C137.875 0.355634 137.369 0.000300456 137.022 -0.000366211C136.91 -0.000366211 136.793 0.0376338 136.681 0.114967Z" fill="white"/>
<path d="M131.372 8.02899C130.711 7.86099 133.427 4.67499 128.599 0.860321C128.599 0.860321 129.233 2.85832 126.039 7.31699C122.844 11.7743 127.46 14.429 127.46 14.429C127.46 14.429 125.294 13.283 127.812 9.20232C128.263 8.46165 128.852 7.79099 129.585 6.28232C129.585 6.28232 130.233 7.19032 129.894 9.16032C129.388 12.137 132.089 11.285 132.132 11.3263C133.075 12.4297 131.35 14.3683 131.245 14.429C131.141 14.4883 136.171 11.4243 132.597 6.81299C132.352 7.05632 132.034 8.19699 131.372 8.02899Z" fill="white"/>
<path d="M122.121 0.116981C122.198 0.193648 122.276 0.304981 122.276 0.416981C122.277 0.610315 122.049 0.872315 121.626 1.30298C119.865 2.98698 118.979 5.04965 118.984 7.53632C118.991 10.2883 119.923 12.4983 121.735 14.211C122.115 14.5496 122.272 14.815 122.272 15.0423C122.272 15.1543 122.195 15.2703 122.117 15.3816C122.044 15.4596 121.889 15.537 121.776 15.537C121.357 15.5383 120.77 15.0463 120.005 14.089C118.514 12.2743 117.84 10.2703 117.802 7.53965C117.767 4.80698 118.629 2.95431 120.318 1.04098C120.926 0.357648 121.433 0.00231462 121.779 0.00164795C121.891 0.00164795 122.008 0.039648 122.121 0.116981Z" fill="white"/>
<path d="M106.616 3.62028L106.637 3.62495L106.679 3.63828L106.7 3.64828L106.718 3.65895L106.739 3.66895L106.778 3.69761L106.799 3.71561L106.817 3.73161L106.838 3.74961L106.872 3.79095L106.908 3.84028L106.926 3.86828L106.942 3.89361L106.957 3.92495L106.975 3.95295L106.979 3.98161L106.992 4.03628L107.002 4.06761L107.009 4.09561L107.02 4.12428L107.028 4.15228L107.038 4.18095L107.048 4.21161L107.08 4.29495L107.091 4.32628L107.111 4.38295L107.119 4.41095L107.13 4.43961L107.143 4.49428L107.155 4.51961L107.158 4.54761L107.165 4.57161L107.334 4.49161L107.665 4.33828L107.824 4.26695L107.982 4.20161L108.134 4.13761L108.285 4.07828L108.434 4.02295L108.577 3.97428L108.718 3.92495L108.856 3.88361L108.989 3.84028L109.124 3.80628L109.377 3.74361L109.501 3.71828L109.617 3.69761L109.733 3.67961L109.846 3.66895L109.955 3.65895L110.064 3.65161H110.166L110.48 3.65895L110.775 3.67695L111.058 3.70761L111.325 3.74961L111.579 3.80628L111.819 3.87295L112.04 3.95295L112.251 4.04361L112.446 4.14495L112.626 4.26095L112.79 4.39028L112.941 4.52695L113.08 4.67695L113.203 4.84095L113.311 5.01628L113.405 5.20228L113.485 5.39695L113.548 5.60761L113.597 5.82761L113.636 6.05828L113.657 6.30095L113.665 6.55495V9.72428L113.661 9.85095L113.655 9.96961L113.644 10.0889L113.629 10.2029L113.611 10.3189L113.587 10.4276L113.559 10.5363L113.527 10.6416L113.491 10.7429L113.454 10.8409L113.41 10.9389L113.361 11.0329L113.309 11.1276L113.252 11.2183L113.192 11.3063L113.129 11.3896L113.062 11.4743L112.988 11.5543L112.911 11.6349L112.833 11.7123L112.749 11.7849L112.66 11.8576L112.58 11.9216L112.498 11.9769L112.41 12.0329L112.322 12.0849L112.23 12.1343L112.139 12.1803L112.04 12.2249L111.942 12.2636L111.84 12.3023L111.629 12.3723L111.403 12.4289L111.29 12.4523L111.17 12.4749L111.051 12.4909L110.804 12.5196L110.677 12.5296L110.547 12.5369L110.416 12.5403H110.121L109.958 12.5343L109.801 12.5223L109.645 12.5116L109.49 12.4956L109.338 12.4749L109.191 12.4496L108.895 12.3869L108.75 12.3483L108.609 12.3096L108.468 12.2636L108.33 12.2143L108.194 12.1596L108.06 12.1029L107.926 12.0409L107.796 11.9736L107.665 11.9036L107.539 11.8309L107.411 11.7536L107.288 11.6689L107.165 11.5809V15.2369L107.161 15.3069L107.155 15.3736L107.148 15.4329L107.137 15.4929L107.122 15.5489L107.109 15.6009L107.091 15.6529L107.073 15.6996L107.048 15.7456L107.028 15.7823L106.999 15.8209L106.975 15.8523L106.942 15.8849L106.911 15.9116L106.876 15.9369L106.84 15.9549L106.801 15.9716L106.762 15.9863L106.721 15.9936L106.676 15.9996H106.583L106.541 15.9969L106.499 15.9863L106.46 15.9756L106.421 15.9609L106.351 15.9196L106.319 15.8956L106.288 15.8676L106.259 15.8316L106.234 15.7976L106.21 15.7589L106.189 15.7169L106.171 15.6709L106.153 15.6189L106.14 15.5669L106.124 15.5103L106.114 15.4483L106.108 15.3843L106.101 15.3143L106.098 15.2443V4.37561L106.101 4.30561L106.104 4.24295L106.111 4.18095L106.119 4.12095L106.129 4.06495L106.143 4.01295L106.158 3.96361L106.174 3.91428L106.21 3.82961L106.231 3.79561L106.257 3.76028L106.28 3.72895L106.309 3.70495L106.341 3.67961L106.369 3.65895L106.403 3.64095L106.474 3.62028L106.513 3.61295H106.577L106.598 3.61695L106.616 3.62028ZM109.635 4.78161L109.476 4.79161L109.321 4.80628L109.173 4.82761L109.032 4.84828L108.895 4.87628L108.765 4.91095L108.637 4.94895L108.515 4.99228L108.398 5.04028L108.296 5.08628L108.19 5.14228L108.085 5.20495L107.976 5.27761L107.866 5.36228L107.754 5.45295L107.637 5.55428L107.517 5.66295L107.394 5.77895L107.263 5.90495L107.126 6.03761V10.3963H107.165V10.3816L107.481 10.5676L107.788 10.7356L108.085 10.8903L108.369 11.0223L108.645 11.1383L108.913 11.2316L109.169 11.3123L109.412 11.3763L109.648 11.4209L109.874 11.4463L110.089 11.4563L110.275 11.4516L110.455 11.4463L110.628 11.4283L110.796 11.4076L110.959 11.3823L111.114 11.3476L111.262 11.3089L111.403 11.2603L111.538 11.2083L111.663 11.1443L111.78 11.0789L111.921 10.9909L112.044 10.8956L112.153 10.7949L112.249 10.6863L112.329 10.5703L112.397 10.4483L112.449 10.3189L112.491 10.1869L112.523 10.0423L112.537 9.89228L112.545 9.73761V6.56961L112.537 6.38695L112.52 6.21561L112.485 6.05828L112.439 5.90828L112.376 5.76828L112.301 5.63495L112.21 5.51295L112.108 5.40095L111.988 5.30028L111.853 5.20228L111.707 5.11695L111.587 5.05761L111.46 5.00295L111.325 4.95695L111.184 4.91495L111.033 4.87628L110.874 4.84495L110.71 4.81961L110.536 4.79895L110.356 4.78561L110.171 4.77828L109.976 4.77561L109.803 4.77828L109.635 4.78161Z" fill="white"/>
<path d="M100.437 4.62362C100.742 4.24295 101.01 4.01562 101.278 3.90429C101.542 3.75429 101.927 3.67695 102.356 3.67695C103.666 3.67695 104.353 4.32029 104.353 5.58229C104.353 6.20229 104.353 11.1516 104.353 11.7716C104.353 12.3023 104.163 12.5296 103.783 12.5296C103.398 12.5296 103.247 12.3023 103.247 11.7716C103.247 11.1903 103.247 6.55495 103.247 5.97495C103.247 5.18095 102.906 4.75029 102.244 4.75029C101.747 4.75029 101.239 5.05162 100.82 5.63495C100.82 6.25162 100.82 11.2036 100.82 11.8236C100.82 12.3516 100.627 12.579 100.284 12.579C99.9399 12.579 99.7492 12.3516 99.7492 11.8236C99.7492 11.2496 99.7492 6.67362 99.7492 6.10029C99.7492 5.21562 99.3692 4.79895 98.6669 4.79895C98.213 4.79895 97.7793 5.10362 97.3227 5.68362C97.3227 6.30095 97.3227 11.2183 97.3227 11.8343C97.3227 12.3663 97.1307 12.5936 96.7473 12.5936C96.3673 12.5936 96.2162 12.3663 96.2162 11.8343C96.2162 11.0743 96.2162 5.00295 96.2162 4.24295C96.2162 3.86562 96.3672 3.71562 96.6741 3.71562C96.8252 3.71562 96.9762 3.82695 97.0541 4.05429C97.1307 4.15562 97.1669 4.34429 97.1669 4.57162C97.5261 4.19429 97.7551 3.96629 97.8538 3.88962C98.0828 3.73895 98.3883 3.66162 98.8227 3.66162C99.4323 3.66162 99.9782 3.96629 100.437 4.62362Z" fill="white"/>
<path d="M90.8152 3.58162L90.9455 3.58896L91.0684 3.59962L91.1879 3.60696L91.3047 3.62029L91.4202 3.63029L91.5343 3.64829L91.6431 3.66162L91.7478 3.68429L91.8499 3.70029L91.9486 3.72562L92.0473 3.74629L92.1386 3.77029L92.2346 3.79829L92.3232 3.82696L92.4072 3.85496L92.4925 3.88629L92.573 3.92229L92.6543 3.95296L92.7315 3.99162L92.8053 4.02629L92.8758 4.06496L92.9457 4.10629L93.0236 4.16296L93.0974 4.22229L93.1672 4.28162L93.2351 4.34896L93.2995 4.41429L93.362 4.48829L93.4217 4.56096L93.4788 4.63829L93.5312 4.71896L93.5808 4.80229L93.6721 4.97429L93.75 5.16362L93.7843 5.26162L93.8158 5.35962L93.844 5.46362L93.8696 5.56896L93.8904 5.67762L93.9085 5.78896L93.9219 5.90496L93.9354 6.02429L93.9434 6.14296L93.9508 6.26496V10.3323L93.9535 10.3863V10.4383L93.9609 10.5363L93.9683 10.627L93.9743 10.673L93.9817 10.7143L93.9897 10.753L93.9998 10.795L94.0059 10.8336L94.0287 10.9036L94.0421 10.939L94.0837 11.033L94.0985 11.061L94.1153 11.089L94.1334 11.113L94.175 11.1623L94.2214 11.2083L94.2288 11.211L94.2395 11.2183L94.2456 11.2243L94.2603 11.229L94.2711 11.2363L94.2993 11.2496L94.316 11.2603L94.3516 11.2736L94.3731 11.2836L94.3939 11.2916L94.4685 11.3223L94.5524 11.3556L94.5839 11.3656L94.6155 11.379L94.6484 11.3896L94.68 11.403L94.7142 11.4176L94.7532 11.431L94.774 11.4383L94.8176 11.4596L94.8337 11.4743L94.8519 11.485L94.8881 11.5116L94.9015 11.529L94.915 11.5443L94.9297 11.5603L94.9405 11.581L94.9506 11.599L94.9714 11.641L94.9794 11.6663L94.9868 11.687L94.9929 11.715L95.0002 11.739L95.0029 11.767L95.0103 11.7956L95.0137 11.8263V11.8576L95.0184 11.8903V12.0303L95.0103 12.0643L95.0076 12.093L95.0002 12.1236L94.9929 12.1523L94.9821 12.1803L94.9714 12.2043L94.9579 12.2296L94.9432 12.2503L94.9089 12.2916L94.8908 12.3096L94.87 12.3276L94.7948 12.369L94.7397 12.3903L94.7082 12.3976L94.6726 12.4036L94.6021 12.411L94.5631 12.415H94.4926L94.4792 12.411H94.4685L94.4537 12.4076H94.4403L94.4255 12.4036L94.355 12.3903L94.3382 12.3823L94.316 12.3796L94.2952 12.3723L94.2738 12.369L94.2006 12.3483L94.1724 12.341L94.1482 12.3336L94.12 12.3276L94.0884 12.3203L94.0596 12.3096L94.0287 12.3023L93.9293 12.2683L93.883 12.2503L93.838 12.237L93.795 12.219L93.7111 12.191L93.6721 12.1776L93.6332 12.1656L93.599 12.1523L93.5661 12.1416L93.5312 12.1316L93.503 12.121L93.4714 12.1103L93.4432 12.103L93.419 12.093L93.3935 12.085L93.3519 12.0716L93.2995 12.051L93.2841 12.0463L93.274 12.041L93.2633 12.0363L93.2391 12.033L93.2169 12.0303L93.1927 12.023L93.1719 12.0156L93.1511 12.005L93.133 11.9916L93.1122 11.977L93.0941 11.9636L93.0759 11.9456L93.0598 11.925L93.0417 11.907L93.0269 11.883L93.0135 11.8623L92.9954 11.8343L92.9819 11.809L92.9712 11.7823L92.9564 11.7536L92.943 11.7223L92.9222 11.6583L92.8799 11.519L92.8678 11.4803L92.714 11.5856L92.5656 11.6836L92.4951 11.733L92.3622 11.8163L92.2977 11.8576L92.1776 11.935L92.0654 12.005L92.0131 12.0363L91.9634 12.0643L91.8721 12.121L91.8257 12.145L91.7868 12.1703L91.6747 12.225L91.6431 12.2396L91.5867 12.2683L91.5578 12.2743L91.5128 12.2963L91.4665 12.3096L91.3678 12.3436L91.2094 12.387L91.157 12.3976L91.0999 12.411L90.9247 12.4423L90.8649 12.4496L90.8052 12.4596L90.6145 12.481L90.5473 12.485L90.4802 12.491L90.4124 12.4956L90.3419 12.4983L90.2761 12.5016H89.9484L89.839 12.4983L89.7329 12.4956L89.5214 12.481L89.3179 12.4596L89.2192 12.4463L89.1205 12.429L88.9305 12.393L88.7479 12.3516L88.6593 12.3276L88.5706 12.2996L88.4854 12.271L88.4014 12.2396L88.2403 12.1776L88.1624 12.139L88.0845 12.103L88.0107 12.0643L87.9361 12.023L87.8656 11.981L87.7951 11.935L87.7146 11.8803L87.6367 11.8236L87.4896 11.697L87.4225 11.635L87.358 11.5676L87.2949 11.4983L87.2385 11.4283L87.1828 11.3556L87.1304 11.2783L87.0841 11.201L87.0378 11.1203L86.9955 11.0403L86.9572 10.9556L86.9223 10.8723L86.8907 10.7843L86.8343 10.603L86.8128 10.511L86.7954 10.417L86.7665 10.221L86.7531 10.019V9.80896L86.7591 9.70629L86.7665 9.60229L86.782 9.50429L86.8162 9.30829L86.8652 9.11962L86.8968 9.02896L86.9673 8.85296L87.0525 8.68229L87.1512 8.52162L87.2036 8.44429L87.2607 8.37029L87.3204 8.29696L87.3869 8.22762L87.4507 8.16029L87.5212 8.09496L87.5944 8.03096L87.7502 7.91229L87.8341 7.85696L87.9825 7.75162L88.0604 7.70229L88.2222 7.61162L88.3914 7.52696L88.4793 7.49029L88.6546 7.41896L88.7479 7.38762L88.9379 7.33229L89.0319 7.30696L89.1306 7.28362L89.23 7.26229L89.3287 7.24496L89.4301 7.22696L89.5321 7.21362L89.6382 7.20296L89.7403 7.19296L89.8497 7.18496L89.9558 7.17762L90.0652 7.17496H90.266L90.3573 7.17762L90.4513 7.18096L90.6413 7.19562L90.7373 7.20629L90.836 7.21629L90.9354 7.22962L91.0368 7.24762L91.1355 7.26229L91.2375 7.28362L91.3396 7.29962L91.4457 7.32229L91.6565 7.37096L91.9848 7.45429L92.0943 7.48562L92.2091 7.51696L92.3232 7.55229L92.4381 7.58629L92.5549 7.62496L92.6751 7.66362L92.7946 7.70562V6.36629L92.7919 6.28896L92.7872 6.21562L92.7812 6.14296L92.7704 6.06896L92.7556 6.00362L92.7422 5.93229L92.7214 5.86629L92.7006 5.80296L92.6751 5.74029L92.6462 5.68096L92.6153 5.62096L92.5448 5.50962L92.5025 5.45296L92.4609 5.40429L92.4146 5.35229L92.3159 5.26162L92.2588 5.21562L92.1386 5.13229L92.0762 5.09362L92.0083 5.05762L91.8647 4.98762L91.8157 4.96696L91.7089 4.92562L91.4846 4.85562L91.3047 4.81429L91.2402 4.80229L91.1805 4.79162L91.1147 4.78162L91.0502 4.77096L90.9878 4.76496L90.8542 4.75029L90.7837 4.74296L90.7165 4.73962L90.646 4.73229L90.5755 4.72896H90.5057L90.4352 4.72629H90.1176L89.9511 4.73229L89.79 4.73962L89.6382 4.75429L89.4932 4.77096L89.3522 4.79162L89.2219 4.81429L89.095 4.84096L88.9748 4.87362L88.8627 4.91096L88.758 4.94896L88.6546 4.99229L88.5606 5.04029L88.4719 5.08896L88.3914 5.14562L88.3162 5.20229L88.2463 5.26429L88.1832 5.33162L88.1262 5.40429L88.0738 5.47829L88.0322 5.55429L87.9899 5.63896L87.9569 5.72696L87.9301 5.81762L87.9093 5.91096L87.9019 5.95696L87.8912 5.99896L87.863 6.14629L87.8495 6.20829L87.8415 6.23696L87.8374 6.26496L87.8314 6.28896L87.8267 6.31429L87.8206 6.33496L87.8166 6.35562L87.8106 6.39162L87.8025 6.41962V6.43296L87.7998 6.44362V6.45362L87.7951 6.46096V6.47896L87.7851 6.50296L87.7636 6.54429L87.7535 6.56229L87.7246 6.59829L87.7146 6.61429L87.6964 6.62896L87.683 6.64229L87.6649 6.65762L87.6515 6.66762L87.6333 6.67829L87.6125 6.68896L87.5944 6.69896L87.5736 6.70496L87.5554 6.71229L87.5346 6.71962L87.5111 6.72762L87.4896 6.73029L87.4641 6.73762L87.4406 6.74096H87.4151L87.3909 6.74362H87.2922L87.2506 6.74096L87.1647 6.72762L87.1257 6.71962L87.021 6.67829L86.9881 6.65762L86.9572 6.63962L86.9283 6.61429L86.9015 6.59362L86.8518 6.53829L86.831 6.50562L86.7954 6.44362L86.7773 6.40496L86.7665 6.36629L86.7531 6.32762L86.743 6.28562L86.735 6.24429L86.7323 6.19829L86.7276 6.14896V6.03429L86.7323 5.96496L86.735 5.89762L86.7457 5.83096L86.7531 5.76562L86.782 5.63162L86.8162 5.49962L86.837 5.43229L86.8578 5.37029L86.8833 5.30296L86.9122 5.24096L86.9431 5.17362L87.0062 5.04762L87.123 4.85829L87.1647 4.79896L87.2117 4.73696L87.358 4.55829L87.4151 4.49896L87.4782 4.42429L87.6259 4.29229L87.7072 4.22962L87.8838 4.11096L87.9798 4.05762L88.0771 4.00496L88.1832 3.95629L88.2893 3.91029L88.4014 3.86829L88.5216 3.82696L88.6411 3.79096L88.7687 3.75696L88.899 3.72562L89.0319 3.69762L89.1696 3.67229L89.3106 3.64829L89.6073 3.61296L89.7611 3.59962L89.9202 3.58896L90.0814 3.58162L90.2479 3.57829L90.4171 3.57562H90.55L90.685 3.57829L90.8152 3.58162ZM89.1984 8.45496L88.7398 8.61562L88.384 8.84562L88.1262 9.14029L87.9717 9.49962L87.9227 9.92829L87.9361 10.151L87.9798 10.361L88.053 10.5596L88.1544 10.743L88.2846 10.9036L88.4511 11.0403L88.6485 11.1516L88.8177 11.2423L89.0037 11.3196L89.2045 11.3823L89.42 11.431L89.6489 11.467L89.8913 11.4876L90.1492 11.495L90.3754 11.4876L90.5923 11.4743L90.8052 11.4463L91.0113 11.403L91.2134 11.351L91.4141 11.2783L91.6102 11.1903L91.7452 11.113L92.058 10.9063L92.2346 10.7843L92.4246 10.6476L92.6227 10.5003L92.8308 10.3443V8.74162L92.471 8.63296L92.1117 8.54229L91.7559 8.46496L91.4068 8.40562L91.0657 8.35962L90.7346 8.33296L90.4171 8.32562L89.7584 8.35696L89.1984 8.45496Z" fill="white"/>
<path d="M83.7619 1.17496C84.5266 1.74562 84.9208 2.55429 84.9208 3.53696C84.9208 3.99162 84.7308 4.21962 84.3474 4.21962C84.0822 4.21962 83.8921 3.99162 83.7767 3.53696C83.6988 3.15962 83.5477 2.81895 83.3577 2.46229C83.0119 1.85696 82.2747 1.58029 81.1312 1.58029C80.1261 1.58029 79.4392 1.80829 79.0196 2.29829C78.6396 2.75362 78.4106 3.44896 78.4106 4.47029C78.4106 4.86896 78.4106 8.04162 78.4106 8.43695C78.4106 9.47295 78.6396 10.193 79.0585 10.6476C79.5171 11.141 80.2147 11.403 81.2071 11.403C82.7091 11.403 83.5866 10.875 83.7767 9.84029C83.8532 9.45829 83.8921 9.26962 83.8921 9.23095C83.9667 9.00362 84.1211 8.89162 84.3474 8.89162C84.7308 8.89162 84.9208 9.11962 84.9208 9.57429C84.9208 10.533 84.5401 11.253 83.727 11.8236C83.0743 12.2396 82.2612 12.4676 81.1937 12.4676C79.9603 12.4676 79.0062 12.201 78.3085 11.6303C77.5304 11.1023 77.1497 10.193 77.1497 9.00362C77.1497 6.14295 77.1497 4.55095 77.1497 4.23295C77.1497 1.71695 78.4596 0.493622 81.1447 0.493622C82.2257 0.493622 83.0643 0.720955 83.7619 1.17496Z" fill="white"/>
<path d="M71.981 3.70497L72.2731 3.73897L72.5517 3.79097L72.8169 3.85497L73.0667 3.9323L73.3017 4.0263L73.5253 4.13164L73.7287 4.25364L73.9214 4.39031L74.0987 4.53764L74.2598 4.70097L74.4082 4.87631L74.5459 5.0683L74.666 5.27497L74.7721 5.49164L74.8634 5.72697L74.94 5.9703L75.0044 6.23364L75.0535 6.50564L75.0884 6.79697L75.1092 7.09764L75.1166 7.41564L75.1139 7.49297L75.1092 7.56564L75.1031 7.63564L75.0958 7.7023L75.0823 7.76964L75.0669 7.82897L75.0494 7.88831L75.0326 7.94031L75.0118 7.98964L74.9863 8.03831L74.9581 8.08031L74.9266 8.12164L74.895 8.16031L74.8245 8.22431L74.7392 8.27364L74.6479 8.30764L74.5955 8.3223L74.5432 8.32831L74.4861 8.33564L68.501 8.3363L68.5003 9.51164L68.5077 9.67564L68.5211 9.83564L68.5493 9.98764L68.5856 10.1303L68.6346 10.267L68.6903 10.3963L68.7608 10.5156L68.8387 10.6296L68.93 10.7356L69.0287 10.8363L69.1422 10.927L69.2651 11.0116L69.3953 11.089L69.539 11.159L69.6948 11.2216L69.8566 11.2783L70.0332 11.3223L70.2205 11.3656L70.4166 11.397L70.6247 11.421L70.8436 11.4416L71.0726 11.4516L71.3123 11.4563H71.4002L71.4888 11.4516H71.5728L71.742 11.4463L71.8225 11.4383L71.9004 11.4356L72.0549 11.421L72.1294 11.415L72.2026 11.403L72.4141 11.3716L72.549 11.3436L72.6759 11.317L72.7357 11.299L72.7961 11.2836L72.8559 11.2676L72.9109 11.247L72.9962 11.2183L73.0278 11.2036L73.062 11.193L73.0983 11.177L73.1372 11.1623L73.1761 11.1443L73.2178 11.1236L73.2601 11.1056L73.3514 11.0583L73.4004 11.033L73.4501 11.0043L73.5025 10.9763L73.5562 10.945L73.6119 10.9136L73.669 10.8796L73.7287 10.8436L73.7885 10.805L73.8516 10.7636L73.9859 10.679L74.0537 10.6343L74.1242 10.585L74.1658 10.5463L74.2108 10.5076L74.2498 10.4736L74.2927 10.4383L74.3303 10.407L74.3693 10.3783L74.4398 10.3223L74.4727 10.2983L74.5069 10.273L74.5385 10.2523L74.5673 10.2316L74.5955 10.2136L74.6237 10.2003L74.6479 10.1823L74.6976 10.1616L74.7184 10.151L74.76 10.1376L74.7782 10.133L74.7929 10.1303H74.8487L74.8876 10.133L74.9232 10.1376L74.9863 10.151L75.0179 10.1616L75.0461 10.1716L75.0749 10.187L75.0984 10.2003L75.1193 10.2183L75.1629 10.2596L75.1797 10.2803L75.1971 10.3056L75.226 10.361L75.2361 10.3916L75.2468 10.4276L75.2616 10.4976L75.265 10.5363L75.2676 10.5776V10.6656L75.2616 10.7116L75.2576 10.7563L75.2468 10.7976L75.2361 10.8436L75.2227 10.8903L75.2052 10.9343L75.1837 10.9763L75.1629 11.0223L75.1374 11.0683L75.0823 11.159L75.0494 11.201L75.0145 11.247L74.9366 11.3376L74.799 11.4743L74.6405 11.6096L74.5808 11.6583L74.3847 11.7983L74.278 11.865L74.1658 11.9323L74.0537 11.9916L73.9335 12.051L73.8093 12.103L73.6824 12.155L73.5521 12.2043L73.4158 12.2503L73.2748 12.2916L73.1298 12.3303L72.9814 12.369L72.8304 12.4003L72.6759 12.429L72.5128 12.457L72.3483 12.4776L72.1791 12.4983L72.0052 12.5116L71.8299 12.527L71.4633 12.5403H71.2733L70.945 12.537L70.6321 12.5196L70.3326 12.491L70.0466 12.4496L69.7787 12.4003L69.5229 12.3383L69.2785 12.2636L69.0542 12.1776L68.8387 12.0823L68.6406 11.9736L68.458 11.855L68.2888 11.7223L68.1351 11.581L67.9927 11.4283L67.8698 11.2603L67.7577 11.085L67.6617 10.8956L67.5811 10.697L67.5133 10.4843L67.4609 10.2623L67.4267 10.029L67.4012 9.78097L67.3938 9.5223V6.46697L67.3985 6.38097L67.4012 6.28897L67.4086 6.20564L67.4193 6.11764L67.4327 6.0303L67.4683 5.86231L67.4925 5.78164L67.518 5.69831L67.5462 5.6183L67.5778 5.5383L67.612 5.46097L67.6899 5.3063L67.7362 5.2303L67.7812 5.15564L67.8309 5.08297L67.888 5.01297L67.9403 4.94364L68.0001 4.87364L68.1277 4.73964L68.1975 4.67297L68.2888 4.58631L68.3848 4.50497L68.4869 4.4243L68.5883 4.35164L68.6977 4.28164L68.8145 4.21497L68.93 4.1523L69.0542 4.09297L69.1771 4.04097L69.3074 3.98764L69.4417 3.94297L69.7237 3.8583L69.8673 3.82364L70.0184 3.79097L70.1708 3.7643L70.3286 3.74364L70.4918 3.72164L70.6563 3.70497L70.8221 3.6943L70.9947 3.6843L71.1713 3.67964L71.3512 3.67697L71.6742 3.6843L71.981 3.70497ZM70.614 4.77564L70.34 4.81964L70.0755 4.88697L69.8224 4.9703L69.5753 5.07297L69.343 5.19164L69.114 5.35964L68.924 5.53364L68.7709 5.7223L68.6514 5.9183L68.5675 6.12497L68.5184 6.3423L68.5003 6.56964V7.21364H73.9966L73.9396 6.55964L73.7677 6.00364L73.4816 5.54831L73.0801 5.1943L72.5665 4.93897L71.932 4.78897L71.1847 4.73697L70.896 4.74697L70.614 4.77564Z" fill="white"/>
<path d="M64.9142 0.0249671L64.9558 0.0383005L64.9948 0.0589671L65.031 0.0796338L65.0653 0.104967L65.0968 0.133634L65.1539 0.195634L65.1794 0.2343L65.2002 0.2763L65.221 0.3223L65.2392 0.366967L65.266 0.4723L65.2868 0.591634L65.2942 0.723634L65.2989 0.793634V12.019L65.2942 12.0716L65.2915 12.1203L65.2868 12.1663L65.266 12.2496L65.2553 12.2883L65.2392 12.3243L65.2244 12.3583L65.1821 12.4223L65.1331 12.471L65.1042 12.495L65.076 12.513L65.0418 12.531L65.0102 12.547L64.974 12.5616L64.935 12.5723L64.8511 12.5856L64.8081 12.5903H64.7316L64.6463 12.5796L64.6174 12.5723L64.5939 12.5616L64.5684 12.5543L64.5443 12.541L64.5234 12.531L64.5026 12.5156L64.4818 12.4983L64.4455 12.4636L64.4274 12.443L64.3858 12.369L64.3751 12.3416L64.365 12.309L64.3569 12.2776L64.3468 12.247L64.3435 12.2123V12.159L64.3408 12.131V12.107L64.3361 12.079V12.055L64.3334 12.027V11.9983L64.3287 11.9703L64.326 11.939L64.3227 11.911V11.8796L64.3153 11.817V11.7816L64.3126 11.7503L64.3079 11.7116V11.639L64.3046 11.6003V11.515L64.2132 11.5716L64.128 11.6283L64.0414 11.683L63.8782 11.7816L63.805 11.8303L63.5861 11.9596L63.519 11.9983L63.4559 12.037L63.3927 12.0716L63.2235 12.1663L63.1745 12.1903L63.1249 12.2183L63.0335 12.2603L62.9557 12.2956L62.9167 12.309L62.8596 12.3316L62.7999 12.3523L62.7401 12.369L62.6146 12.4043L62.4125 12.4456L62.342 12.461L62.201 12.4816L62.0532 12.5023L61.9794 12.5096L61.8256 12.523L61.7478 12.5263L61.6665 12.531L61.5886 12.5336L61.508 12.5363H61.2012L61.0602 12.5336L60.9273 12.5263L60.7923 12.5156L60.662 12.5056L60.5318 12.4876L60.4089 12.471L60.1618 12.4283L59.9295 12.373L59.8134 12.3416L59.7039 12.309L59.5945 12.2723L59.3837 12.195L59.2816 12.1483L59.1829 12.1043L59.0869 12.055L58.9929 12.0016L58.9009 11.9496L58.8082 11.893L58.7142 11.8276L58.5316 11.6803L58.449 11.603L58.3685 11.523L58.2919 11.4383L58.2201 11.3516L58.1543 11.2596L58.0898 11.169L57.9777 10.9743L57.928 10.8716L57.8864 10.7676L57.8441 10.659L57.8085 10.5503L57.7769 10.4343L57.7528 10.3156L57.7306 10.1963L57.7138 10.075L57.699 9.9483L57.693 9.81897V6.34897L57.699 6.21963L57.7138 6.09763L57.7272 5.97897L57.7481 5.8603L57.7769 5.7443L57.8051 5.6323L57.8394 5.5243L57.8783 5.4183L57.9206 5.31763L57.9696 5.2163L58.0193 5.1183L58.0764 5.02297L58.1388 4.9323L58.2033 4.84497L58.2738 4.75697L58.3443 4.67697L58.4222 4.5963L58.5027 4.51897L58.678 4.37363L58.774 4.3063L58.8579 4.2503L58.9432 4.19763L59.0345 4.14563L59.1305 4.09697L59.2245 4.05097L59.3232 4.00497L59.5273 3.92897L59.6334 3.8903L59.8523 3.8263L60.0766 3.77097L60.1934 3.7503L60.3129 3.72963L60.4331 3.71163L60.556 3.6943L60.8031 3.67297L60.93 3.66563L61.0602 3.66297H61.363L61.5322 3.6703L61.6128 3.67297L61.6981 3.6763L61.776 3.68363L61.8565 3.69097L61.9304 3.69697L62.0083 3.70763L62.156 3.72963L62.2265 3.7403L62.3675 3.76697L62.4346 3.78163L62.4977 3.79497L62.6878 3.8483L62.7448 3.86963L62.8046 3.8903L62.8596 3.91097L62.9201 3.93163L62.9765 3.95697L63.0369 3.98097L63.0966 4.00897L63.1591 4.03763L63.2793 4.09963L63.4693 4.20563L63.5337 4.2423L63.7238 4.36897L63.8574 4.45963L63.9218 4.50897L63.9876 4.55763L64.0548 4.61097L64.1877 4.72297V0.793634L64.1924 0.723634L64.1985 0.591634L64.2213 0.4723L64.2314 0.4203L64.2482 0.366967L64.2629 0.3223L64.2837 0.2763L64.3046 0.2343L64.3287 0.195634L64.3542 0.164967L64.3824 0.133634L64.4113 0.104967L64.4455 0.0796338L64.4771 0.0589671L64.5127 0.0383005L64.5516 0.0249671L64.6356 0.00430046L64.6779 -0.000366211H64.7766L64.8229 0.00430046L64.9142 0.0249671ZM61.0884 4.82097L60.9118 4.83697L60.7399 4.85497L60.5707 4.88363L60.4123 4.91897L60.2565 4.9563L60.1128 5.00497L59.9745 5.05897L59.8442 5.12097L59.7247 5.1883L59.5871 5.2863L59.4568 5.3903L59.3414 5.50297L59.2379 5.6223L59.1466 5.7443L59.0701 5.8763L59.003 6.0163L58.9539 6.16363L58.9177 6.31763L58.8935 6.47563L58.8861 6.64363V9.6583L58.8935 9.8323L58.915 9.99763L58.9459 10.155L58.9956 10.305L59.0553 10.445L59.1305 10.579L59.2218 10.7036L59.3266 10.8196L59.4434 10.9283L59.5764 11.0216L59.7247 11.1136L59.855 11.1736L59.99 11.2283L60.1303 11.2776L60.2787 11.3263L60.4297 11.3683L60.5915 11.4036L60.7581 11.435L60.9333 11.4603L61.1126 11.477L61.2999 11.487L61.4933 11.4916L61.8028 11.4843L61.9559 11.4736L62.1023 11.4603L62.3916 11.417L62.5293 11.3903L62.6636 11.355L62.7938 11.3163L62.9167 11.2743L63.0335 11.2256L63.1309 11.1583L63.2343 11.0883L63.339 11.0156L63.4451 10.9356L63.5546 10.855L63.6667 10.7676L63.7835 10.677L63.899 10.5816L64.0185 10.4803L64.1434 10.375L64.2656 10.2663V5.8703L64.1219 5.76763L63.9816 5.6743L63.8466 5.57897L63.7137 5.49163L63.5861 5.41097L63.4666 5.3383L63.3498 5.2683L63.2403 5.20897L63.1383 5.15697L63.0443 5.11097L62.9557 5.07497L62.8288 5.02763L62.7012 4.9843L62.5709 4.94563L62.438 4.91163L62.3044 4.88363L62.1667 4.8623L62.0257 4.84163L61.8881 4.82697L61.743 4.8163L61.4543 4.8103L61.2717 4.81363L61.0884 4.82097Z" fill="white"/>
<path d="M52.9124 3.69764L53.3166 3.75431L53.6966 3.82964L54.0424 3.93231L54.3627 4.05431L54.6521 4.20164L54.9092 4.36964L55.1389 4.56098L55.3349 4.77098L55.5041 5.00898L55.6418 5.26431L55.7478 5.54364L55.8257 5.84898L55.8707 6.16964L55.8855 6.51631V9.65164L55.8707 9.99831L55.8257 10.319L55.7512 10.6236L55.6465 10.9036L55.5115 11.159L55.3497 11.3923L55.155 11.6063L54.9334 11.7983L54.6803 11.9663L54.3989 12.1136L54.0847 12.237L53.743 12.3383L53.373 12.415L52.9722 12.4703L52.5424 12.5063L52.0839 12.5163L51.5977 12.5116L51.1425 12.485L50.7202 12.4316L50.3321 12.359L49.9776 12.261L49.6526 12.139L49.3605 11.9943L49.1 11.8263L48.8711 11.635L48.6703 11.421L48.5045 11.183L48.3662 10.9243L48.2614 10.6416L48.1869 10.3323L48.1419 10.0036L48.1271 9.65164V6.51631L48.1419 6.16964L48.1869 5.84898L48.2648 5.54364L48.3709 5.26431L48.5072 5.00898L48.6764 4.77098L48.8738 4.56098L49.1034 4.36964L49.3605 4.20164L49.6499 4.05431L49.9668 3.93231L50.316 3.82964L50.696 3.75431L51.1002 3.69764L51.538 3.66164L52.0066 3.65164L52.4746 3.66164L52.9124 3.69764ZM51.1157 4.77564L50.7618 4.83764L50.4462 4.92564L50.1629 5.03698L49.9178 5.17698L49.7097 5.33764L49.5405 5.52764L49.4055 5.73698L49.3115 5.97031L49.2511 6.23364L49.2337 6.51631V9.65164L49.2511 9.93431L49.3115 10.193L49.4055 10.4303L49.5432 10.6416L49.7171 10.8263L49.9279 10.9863L50.1783 11.1203L50.4671 11.2316L50.7947 11.3123L51.1606 11.3716L51.5662 11.3996L52.0066 11.403L52.439 11.3996L52.8345 11.3716L53.1964 11.3196L53.5174 11.2396L53.8027 11.1336L54.0498 11.0016L54.2613 10.8436L54.4332 10.6583L54.5681 10.4456L54.6621 10.2076L54.7226 9.94164L54.74 9.65164V6.51631L54.7226 6.23364L54.6621 5.97031L54.5681 5.73698L54.4305 5.52764L54.2539 5.33764L54.0424 5.17698L53.7893 5.03698L53.4959 4.92564L53.1622 4.83764L52.7922 4.77564L52.3793 4.73698L51.9288 4.72631L51.5064 4.73698L51.1157 4.77564Z" fill="white"/>
<path d="M45.2145 1.17496C45.9786 1.74562 46.3734 2.55429 46.3734 3.53696C46.3734 3.99162 46.1834 4.21962 45.7986 4.21962C45.5307 4.21962 45.3407 3.99162 45.2279 3.53696C45.1507 3.15962 44.999 2.81895 44.809 2.46229C44.4632 1.85696 43.728 1.58029 42.5825 1.58029C41.578 1.58029 40.8905 1.80829 40.4715 2.29829C40.0881 2.75362 39.8592 3.44896 39.8592 4.47029C39.8592 4.86896 39.8592 8.04162 39.8592 8.43695C39.8592 9.47295 40.0881 10.193 40.5071 10.6476C40.9657 11.141 41.666 11.403 42.6604 11.403C44.161 11.403 45.0379 10.875 45.2279 9.84029C45.3018 9.45829 45.3407 9.26962 45.3407 9.23095C45.4186 9.00362 45.5697 8.89162 45.7986 8.89162C46.1834 8.89162 46.3734 9.11962 46.3734 9.57429C46.3734 10.533 45.9887 11.253 45.1756 11.8236C44.5276 12.2396 43.7132 12.4676 42.6456 12.4676C41.4135 12.4676 40.4581 12.201 39.7571 11.6303C38.9427 11.1023 38.6016 10.193 38.6016 9.00362C38.6016 6.14295 38.6016 4.55095 38.6016 4.23295C38.6016 1.71695 39.8981 0.493622 42.5959 0.493622C43.6742 0.493622 44.5169 0.720955 45.2145 1.17496Z" fill="white"/>
<path d="M33.4329 3.70494L33.7263 3.73894L34.005 3.79094L34.2682 3.85494L34.5186 3.93227L34.755 4.02627L34.9732 4.13161L35.18 4.25361L35.37 4.39027L35.5499 4.53761L35.7131 4.70094L35.8615 4.87627L35.9944 5.06827L36.1146 5.27494L36.2207 5.49161L36.312 5.72694L36.3886 5.97027L36.453 6.23361L36.502 6.50561L36.5369 6.79694L36.5578 7.09761L36.5651 7.41561V7.49294L36.5618 7.56561L36.5544 7.63561L36.5336 7.76961L36.5202 7.82894L36.502 7.88827L36.4839 7.94027L36.4349 8.03827L36.4107 8.08027L36.3778 8.12161L36.3463 8.16027L36.312 8.19161L36.2731 8.22427L36.2341 8.24827L36.1925 8.27361L36.1462 8.28961L36.0965 8.30761L36.0468 8.32227L35.9944 8.32827L35.938 8.33561H29.9663V8.28694H29.9529V9.51161L29.959 9.67561L29.9744 9.83561L30.0026 9.98761L30.0368 10.1303L30.0832 10.2669L30.1436 10.3963L30.2094 10.5156L30.2913 10.6296L30.3826 10.7356L30.482 10.8363L30.5941 10.9269L30.7136 11.0116L30.8473 11.0889L30.9923 11.1589L31.1434 11.2216L31.3099 11.2783L31.4851 11.3223L31.6718 11.3656L31.8698 11.3969L32.076 11.4209L32.2949 11.4416L32.5238 11.4516L32.7635 11.4563H32.8521L32.9401 11.4516H33.024L33.1093 11.4489L33.1905 11.4463L33.2711 11.4383L33.3517 11.4356L33.5075 11.4209L33.5813 11.4149L33.6558 11.4029L33.8673 11.3716L33.9331 11.3583L33.9976 11.3436L34.0647 11.3303L34.1245 11.3169L34.1876 11.2989L34.2474 11.2836L34.3044 11.2676L34.3595 11.2469L34.4166 11.2289L34.4481 11.2183L34.4797 11.2036L34.5153 11.1929L34.5495 11.1769L34.5885 11.1623L34.6274 11.1443L34.6697 11.1236L34.7113 11.1056L34.8537 11.0329L34.9034 11.0043L34.9557 10.9763L35.0081 10.9449L35.0645 10.9136L35.1202 10.8796L35.18 10.8436L35.3673 10.7223L35.4345 10.6789L35.505 10.6343L35.5755 10.5849L35.6594 10.5076L35.7447 10.4383L35.7836 10.4069L35.8178 10.3783L35.8568 10.3503L35.893 10.3223L35.9555 10.2729L36.0186 10.2316L36.0468 10.2136L36.0757 10.2003L36.1012 10.1823L36.1489 10.1616L36.171 10.1509L36.1925 10.1436L36.2086 10.1376L36.2449 10.1303H36.3013L36.3718 10.1376L36.4067 10.1436L36.4376 10.1509L36.4705 10.1616L36.498 10.1716L36.547 10.2003L36.5725 10.2183L36.6142 10.2596L36.6323 10.2803L36.6504 10.3056L36.6773 10.3609L36.688 10.3916L36.6954 10.4276L36.7061 10.4636L36.7102 10.4976L36.7162 10.5363V10.5776L36.7209 10.6236L36.7162 10.6656L36.7135 10.7116L36.7061 10.7563L36.7001 10.7976L36.6565 10.9343L36.6356 10.9763L36.6142 11.0223L36.5907 11.0683L36.5336 11.1589L36.498 11.2009L36.4275 11.2916L36.3436 11.3823L36.2523 11.4743L36.1462 11.5649L36.0891 11.6096L36.0334 11.6583L35.9347 11.7283L35.8326 11.7983L35.7265 11.8649L35.6171 11.9323L35.505 11.9916L35.3854 12.0509L35.2626 12.1029L35.135 12.1549L35.0047 12.2043L34.8671 12.2503L34.7268 12.2916L34.5811 12.3303L34.4347 12.3689L34.2816 12.4003L33.966 12.4569L33.7995 12.4776L33.6303 12.4983L33.4584 12.5116L33.2819 12.5269L32.9146 12.5403H32.7246L32.3983 12.5369L32.084 12.5196L31.7846 12.4909L31.4999 12.4496L31.2273 12.4003L30.9742 12.3383L30.7318 12.2636L30.5028 12.1776L30.2913 12.0823L30.0939 11.9736L29.9099 11.8549L29.7407 11.7223L29.5863 11.5809L29.4453 11.4283L29.3184 11.2603L29.209 11.0849L29.115 10.8956L29.0337 10.6969L28.9666 10.4843L28.9142 10.2623L28.8753 10.0289L28.8545 9.78094L28.8464 9.52227V6.38094L28.8545 6.28894L28.8605 6.20561L28.8706 6.11761L28.8853 6.03027L28.8988 5.94694L28.9203 5.86227L28.9411 5.78161L28.9693 5.69827L28.9981 5.61827L29.0297 5.53827L29.0653 5.46094L29.1418 5.30627L29.1882 5.23027L29.2345 5.15561L29.2842 5.08294L29.3365 5.01294L29.3929 4.94361L29.4534 4.87361L29.5789 4.73961L29.6461 4.67294L29.7374 4.58627L29.9355 4.42427L30.0402 4.35161L30.1496 4.28161L30.2631 4.21494L30.3826 4.15227L30.5028 4.09294L30.6284 4.04094L30.7586 3.98761L30.8936 3.94294L31.0312 3.89961L31.1749 3.85827L31.3199 3.82361L31.4717 3.79094L31.6228 3.76427L31.7812 3.74361L31.943 3.72161L32.1048 3.70494L32.274 3.69427L32.4479 3.68427L32.6225 3.67961L32.8025 3.67694L33.1227 3.68427L33.4329 3.70494ZM32.0625 4.77561L31.792 4.81961L31.5267 4.88694L31.2709 4.97027L31.0265 5.07294L30.7915 5.19161L30.5653 5.35961L30.3752 5.53361L30.2195 5.72227L30.1047 5.91827L30.0194 6.12494L29.9697 6.34227L29.9529 6.56961V7.21361H35.4479L35.3881 6.55961L35.2189 6.00361L34.9342 5.54827L34.5321 5.19427L34.0184 4.93894L33.3832 4.78894L32.638 4.73694L32.3445 4.74694L32.0625 4.77561Z" fill="white"/>
<path d="M23.7798 3.70497L24.0732 3.73897L24.3519 3.79097L24.6157 3.85497L24.8655 3.9323L25.1018 4.0263L25.3207 4.13164L25.5275 4.25364L25.7175 4.39031L25.8968 4.53764L26.06 4.70097L26.2084 4.87631L26.342 5.0683L26.4615 5.27497L26.5676 5.49164L26.6589 5.72697L26.7354 5.9703L26.7999 6.23364L26.8496 6.50564L26.8838 6.79697L26.9046 7.09764L26.912 7.41564V7.49297L26.9093 7.56564L26.9019 7.63564L26.8811 7.76964L26.867 7.82897L26.8496 7.88831L26.8314 7.94031L26.7818 8.03831L26.7583 8.08031L26.7254 8.12164L26.6938 8.16031L26.6589 8.19164L26.6199 8.22431L26.5817 8.24831L26.5394 8.27364L26.493 8.28964L26.4434 8.30764L26.3943 8.3223L26.342 8.32831L26.2849 8.33564H20.3139V8.28697H20.3005V9.51164L20.3031 9.67564L20.3213 9.83564L20.3454 9.98764L20.3844 10.1303L20.4307 10.267L20.4905 10.3963L20.5563 10.5156L20.6389 10.6296L20.7255 10.7356L20.8289 10.8363L20.941 10.927L21.0612 11.0116L21.1941 11.089L21.3392 11.159L21.4909 11.2216L21.6567 11.2783L21.832 11.3223L22.0193 11.3656L22.2167 11.397L22.4235 11.421L22.6417 11.4416L22.8714 11.4516L23.1104 11.4563H23.199L23.2876 11.4516H23.3709L23.4568 11.449L23.5374 11.4463L23.618 11.4383L23.6992 11.4356L23.855 11.421L23.9282 11.415L24.0034 11.403L24.1437 11.3823L24.2095 11.3716L24.28 11.3583L24.4714 11.317L24.5345 11.299L24.5942 11.2836L24.6513 11.2676L24.707 11.247L24.7634 11.229L24.795 11.2183L24.8266 11.2036L24.8628 11.193L24.8971 11.177L24.936 11.1623L24.9749 11.1443L25.0166 11.1236L25.0589 11.1056L25.1965 11.033L25.2502 11.0043L25.2979 10.9763L25.412 10.9136L25.4671 10.8796L25.5275 10.8436L25.5873 10.805L25.7142 10.7223L25.782 10.679L25.8525 10.6343L25.9223 10.585L26.0063 10.5076L26.0915 10.4383L26.1305 10.407L26.1654 10.3783L26.2043 10.3503L26.2399 10.3223L26.303 10.273L26.3655 10.2316L26.3943 10.2136L26.4225 10.2003L26.4481 10.1823L26.4957 10.1616L26.5186 10.151L26.5394 10.1436L26.5562 10.1376L26.5917 10.1303H26.6488L26.7193 10.1376L26.7536 10.1436L26.7851 10.151L26.818 10.1616L26.8449 10.1716L26.8946 10.2003L26.9194 10.2183L26.9617 10.2596L26.9798 10.2803L26.9973 10.3056L27.0248 10.361L27.0349 10.3916L27.0423 10.4276L27.053 10.4636L27.0577 10.4976L27.0638 10.5363V10.5776L27.0678 10.6236L27.0638 10.6656L27.0604 10.7116L27.053 10.7563L27.047 10.7976L27.0033 10.9343L26.9825 10.9763L26.9617 11.0223L26.9375 11.0683L26.9093 11.113L26.8778 11.159L26.8449 11.201L26.7744 11.2916L26.6904 11.3823L26.5991 11.4743L26.493 11.565L26.436 11.6096L26.3809 11.6583L26.2822 11.7283L26.1802 11.7983L26.0741 11.865L25.9646 11.9323L25.8525 11.9916L25.7323 12.051L25.6094 12.103L25.4825 12.155L25.3523 12.2043L25.2146 12.2503L25.0736 12.2916L24.9286 12.3303L24.7816 12.369L24.6292 12.4003L24.3129 12.457L24.1471 12.4776L23.9779 12.4983L23.8053 12.5116L23.626 12.527L23.4461 12.5343L23.2621 12.5403H23.0714L22.7451 12.537L22.4309 12.5196L22.1314 12.491L21.8468 12.4496L21.5748 12.4003L21.3183 12.3383L21.0786 12.2636L20.8497 12.1776L20.6389 12.0823L20.4408 11.9736L20.2568 11.855L20.0849 11.7223L19.9332 11.581L19.7929 11.4283L19.6653 11.2603L19.5565 11.085L19.4618 10.8956L19.3766 10.697L19.3135 10.4843L19.2611 10.2623L19.2221 10.029L19.2013 9.78097L19.1939 9.5223V6.38097L19.2013 6.28897L19.2074 6.20564L19.2181 6.11764L19.2329 6.0303L19.2463 5.94697L19.2671 5.86231L19.2879 5.78164L19.3168 5.69831L19.345 5.6183L19.3766 5.5383L19.4122 5.46097L19.4887 5.3063L19.535 5.2303L19.5814 5.15564L19.631 5.08297L19.6834 5.01297L19.7405 4.94364L19.8002 4.87364L19.9258 4.73964L19.9936 4.67297L20.0849 4.58631L20.2823 4.4243L20.3871 4.35164L20.4965 4.28164L20.61 4.21497L20.7302 4.1523L20.8497 4.09297L20.9759 4.04097L21.1062 3.98764L21.2405 3.94297L21.3781 3.89964L21.5218 3.8583L21.6675 3.82364L21.8186 3.79097L21.9696 3.7643L22.1288 3.74364L22.2899 3.72164L22.4517 3.70497L22.6209 3.6943L22.7948 3.6843L22.9701 3.67964L23.1493 3.67697L23.4703 3.6843L23.7798 3.70497ZM22.4101 4.77564L22.1388 4.81964L21.8743 4.88697L21.6178 4.9703L21.3741 5.07297L21.1391 5.19164L20.9229 5.35964L20.7402 5.53364L20.5851 5.7223L20.4623 5.9183L20.3736 6.12497L20.3166 6.3423L20.3005 6.56964V7.21364H25.7954L25.7357 6.55964L25.5665 6.00364L25.2818 5.54831L24.8789 5.1943L24.3653 4.93897L23.7308 4.78897L22.9848 4.73697L22.6914 4.74697L22.4101 4.77564Z" fill="white"/>
<path d="M9.54082 4.38299C9.54082 4.00498 9.77045 3.85498 10.2284 3.85498C10.4499 3.85498 12.2285 3.85498 12.4548 3.85498C12.8348 3.85498 13.0249 4.19432 13.0249 4.81432C13.7124 4.09298 14.4476 3.66165 15.2124 3.66165C15.861 3.66165 16.3686 3.85498 16.713 4.23299C17.0944 4.61032 17.2488 5.15298 17.2488 5.76098C17.2488 6.17698 17.0554 6.40499 16.713 6.40499C16.4841 6.40499 16.3323 6.25165 16.2564 5.98832C16.1034 5.45632 16.0275 5.19165 15.9885 5.15299C15.8368 4.88965 15.53 4.73698 15.1499 4.73698C14.7303 4.73698 14.3113 4.88965 13.9548 5.19165C13.7258 5.34498 13.419 5.68365 13.0249 6.18765C13.0249 6.53098 13.0249 8.23499 13.0249 11.3017C14.2677 11.3017 14.9599 11.3017 15.0955 11.3017C15.5541 11.3017 15.7831 11.495 15.7831 11.8343C15.7831 12.2117 15.5541 12.4037 15.0955 12.4037C14.6061 12.4037 10.6681 12.4037 10.1746 12.4037C9.71741 12.4037 9.48845 12.2117 9.48845 11.873C9.48845 11.495 9.71741 11.3403 10.1746 11.3403C10.2881 11.3403 10.8514 11.3403 11.866 11.3403C11.866 11.3377 11.866 11.321 11.866 11.2917C11.866 11.2917 11.8713 11.2917 11.8801 11.2917C11.8801 7.46565 11.8801 5.34032 11.8801 4.91499C10.8514 4.91499 10.3002 4.91499 10.2284 4.91499C9.77045 4.91499 9.54082 4.72632 9.54082 4.38299Z" fill="white"/>
<path d="M0.649088 3.86582C0.73436 3.86582 1.14125 3.86582 1.88586 3.86582C1.88586 3.22182 1.88586 2.86515 1.88586 2.79249C1.88586 0.923821 2.85137 0.000488281 4.73205 0.000488281C5.4968 0.000488281 6.15883 0.153822 6.65099 0.419822C7.29959 0.797155 7.6588 1.41716 7.6588 2.13849C7.6588 2.62715 7.4661 2.81915 7.12434 2.81915C6.89539 2.81915 6.66643 2.66582 6.5496 2.39982C6.39853 1.91049 6.24679 1.64449 6.1689 1.51849C5.93995 1.25249 5.48203 1.10182 4.82 1.10182C3.66447 1.10182 3.09376 1.66849 3.09376 2.81915C3.09376 2.88582 3.09376 3.23249 3.09376 3.85515C4.42923 3.85515 5.16915 3.85515 5.31753 3.85515C5.81305 3.85515 6.042 4.04382 6.042 4.38315C6.042 4.76049 5.81305 4.91515 5.31753 4.91515C5.16915 4.91515 4.42923 4.91515 3.09376 4.91515C3.09376 9.10649 3.09376 11.4312 3.09376 11.8965C3.09376 12.3132 2.90039 12.5405 2.55796 12.5405C2.17726 12.5405 2.0235 12.3132 2.0235 11.8965C2.0235 11.4312 2.0235 9.11849 2.0235 4.92715C2.02149 4.92715 0.716902 4.92582 0.649088 4.92582C0.229445 4.92582 0.000488281 4.73715 0.000488281 4.39782C0.000488281 4.01582 0.229445 3.86582 0.649088 3.86582Z" fill="white"/>
</svg>
